<svg width="30" height="31" viewBox="0 0 30 31" fill="none" xmlns="http://www.w3.org/2000/svg">
<g clip-path="url(#clip0_3264_16665)">
<path d="M19.24 18.4459V21.9059C19.2374 22.8254 18.8709 23.7065 18.2207 24.3567C17.5706 25.0069 16.6895 25.3733 15.77 25.3759H7C6.54179 25.3799 6.08734 25.2931 5.66287 25.1205C5.23841 24.9478 4.85233 24.6929 4.52692 24.3703C4.20152 24.0476 3.94324 23.6638 3.76698 23.2408C3.59072 22.8178 3.49998 22.3642 3.5 21.9059V16.0459C3.49998 15.5877 3.59072 15.134 3.76698 14.7111C3.94324 14.2881 4.20152 13.9042 4.52692 13.5816C4.85233 13.259 5.23841 13.004 5.66287 12.8314C6.08734 12.6588 6.54179 12.572 7 12.5759H11.64" stroke="#004181" stroke-linecap="round" stroke-linejoin="round"/>
<path d="M11.37 27.266V25.376H9.28003L11.37 27.266Z" stroke="#004181" stroke-linecap="round" stroke-linejoin="round"/>
<path d="M5.93994 16.2959H12.9799" stroke="#004181" stroke-linecap="round" stroke-linejoin="round"/>
<path d="M5.93994 18.976H16.0099" stroke="#004181" stroke-linecap="round" stroke-linejoin="round"/>
<path d="M5.93994 21.606H14.1899" stroke="#004181" stroke-linecap="round" stroke-linejoin="round"/>
<path d="M26.5 10.776C26.4961 11.7329 26.2679 12.6755 25.8338 13.5283C25.3996 14.381 24.7715 15.12 24 15.686C23.3912 16.1244 22.7159 16.462 22 16.686C21.2332 16.9449 20.4292 17.0767 19.62 17.076C15.8 17.076 12.7 14.246 12.7 10.746C12.7 7.24602 15.8 4.41602 19.62 4.41602C23.44 4.41602 26.5 7.27602 26.5 10.776Z" fill="#DFEFFF" stroke="#004181" stroke-linecap="round" stroke-linejoin="round"/>
<path d="M24 15.6859V18.6259L22 16.7259C22.7185 16.4896 23.3939 16.1384 24 15.6859V15.6859Z" stroke="#004181" stroke-linecap="round" stroke-linejoin="round"/>
<path d="M19.6899 14.116H19.7299" stroke="#004181" stroke-width="0.9" stroke-linecap="round" stroke-linejoin="round"/>
<path d="M19.71 10.876V12.466" stroke="#004181" stroke-width="0.9" stroke-linecap="round" stroke-linejoin="round"/>
<path d="M18.13 9.29592C18.126 8.98261 18.2153 8.67519 18.3865 8.41274C18.5577 8.15029 18.803 7.94467 19.0914 7.82201C19.3797 7.69935 19.698 7.6652 20.0058 7.72388C20.3136 7.78257 20.597 7.93145 20.82 8.1516C21.0429 8.37175 21.1954 8.65323 21.258 8.96025C21.3206 9.26727 21.2905 9.58598 21.1716 9.87585C21.0526 10.1657 20.8501 10.4137 20.5899 10.5882C20.3296 10.7627 20.0234 10.8559 19.71 10.8559" stroke="#004181" stroke-width="0.9" stroke-linecap="round" stroke-linejoin="round"/>
<path d="M15.98 21.606H16.01" stroke="#004181" stroke-width="0.9" stroke-linecap="round" stroke-linejoin="round"/>
</g>
<defs>
<clipPath id="clip0_3264_16665">
<rect width="30" height="30" fill="white" transform="translate(0 0.855957)"/>
</clipPath>
</defs>
</svg>
