<svg width="30" height="32" viewBox="0 0 30 32" fill="none" xmlns="http://www.w3.org/2000/svg">
<path d="M22.16 4.23901V4.91225M27.44 10.2879H28.1M18 5.9833L18.46 6.45253M26.46 5.9833L26 6.45253" stroke="#004181" stroke-width="1.2" stroke-linecap="round" stroke-linejoin="round"/>
<path d="M20.19 12.9707C19.6705 12.5712 19.2788 12.0237 19.0643 11.3972C18.8498 10.7707 18.8223 10.0934 18.985 9.45098C19.1478 8.80852 19.4937 8.22971 19.9789 7.7877C20.4641 7.34569 21.0669 7.06033 21.711 6.96769C22.3552 6.87504 23.0118 6.97927 23.5979 7.2672C24.184 7.55512 24.6733 8.01383 25.0039 8.58533C25.3345 9.15683 25.4915 9.81547 25.4552 10.478C25.419 11.1406 25.1909 11.7772 24.8 12.3076C24.6134 12.5608 24.391 12.7843 24.14 12.9707C23.882 13.2349 23.688 13.5569 23.5734 13.9111C23.4588 14.2652 23.4268 14.6418 23.48 15.0108C23.4959 15.1967 23.4737 15.3841 23.4149 15.5608C23.356 15.7376 23.2618 15.9 23.1381 16.0376C23.0144 16.1752 22.8641 16.2851 22.6965 16.3603C22.529 16.4355 22.348 16.4743 22.165 16.4743C21.982 16.4743 21.8009 16.4355 21.6334 16.3603C21.4659 16.2851 21.3155 16.1752 21.1919 16.0376C21.0682 15.9 20.9739 15.7376 20.9151 15.5608C20.8562 15.3841 20.8341 15.1967 20.85 15.0108C20.9031 14.6418 20.8711 14.2652 20.7566 13.9111C20.642 13.5569 20.448 13.2349 20.19 12.9707Z" fill="#DFEFFF"/>
<path d="M20.19 12.9707C19.6705 12.5712 19.2788 12.0237 19.0643 11.3972C18.8498 10.7707 18.8223 10.0934 18.985 9.45098C19.1478 8.80852 19.4937 8.22971 19.9789 7.7877C20.4641 7.34569 21.0669 7.06033 21.711 6.96769C22.3552 6.87504 23.0118 6.97927 23.5979 7.2672C24.184 7.55512 24.6733 8.01383 25.0039 8.58533C25.3345 9.15683 25.4915 9.81547 25.4552 10.478C25.419 11.1406 25.1909 11.7772 24.8 12.3076C24.6134 12.5608 24.391 12.7843 24.14 12.9707C23.882 13.2349 23.688 13.5569 23.5734 13.9111C23.4588 14.2652 23.4268 14.6418 23.48 15.0108C23.4959 15.1967 23.4737 15.3841 23.4149 15.5608C23.356 15.7376 23.2618 15.9 23.1381 16.0376C23.0144 16.1752 22.8641 16.2851 22.6965 16.3603C22.529 16.4355 22.348 16.4743 22.165 16.4743C21.982 16.4743 21.8009 16.4355 21.6334 16.3603C21.4659 16.2851 21.3155 16.1752 21.1919 16.0376C21.0682 15.9 20.9739 15.7376 20.9151 15.5608C20.8562 15.3841 20.8341 15.1967 20.85 15.0108C20.9031 14.6418 20.8711 14.2652 20.7566 13.9111C20.642 13.5569 20.448 13.2349 20.19 12.9707" stroke="#004181" stroke-width="1.2" stroke-linecap="round" stroke-linejoin="round"/>
<path d="M20.6499 13.6438H23.6799" stroke="#004181" stroke-width="1.2" stroke-linecap="round" stroke-linejoin="round"/>
<path d="M22.25 16.398C22.2753 16.5841 22.2753 16.7729 22.25 16.959C22.25 21.6003 17.87 25.3643 12.47 25.3643C11.4572 25.3659 10.4486 25.2322 9.46997 24.9664C8.10771 24.6026 6.83198 23.9606 5.71997 23.0793C4.80623 22.3615 4.06226 21.4434 3.54301 20.3929C3.02376 19.3424 2.74249 18.1863 2.71997 17.01C2.71997 12.6646 6.56997 9.09444 11.5 8.66602" stroke="#004181" stroke-width="1.2" stroke-linecap="round" stroke-linejoin="round"/>
<path d="M13.26 8.5946C14.6431 8.68357 15.9986 9.02925 17.26 9.61466" stroke="#004181" stroke-width="1.2" stroke-linecap="round" stroke-linejoin="round"/>
<path d="M9.50997 24.9664L5.71997 26.6189V23.0793C6.84385 23.9656 8.13365 24.6078 9.50997 24.9664Z" fill="#DFEFFF" stroke="#004181" stroke-width="1.2" stroke-linecap="round" stroke-linejoin="round"/>
<path d="M8.1001 14.7047H14.3901" stroke="#004181" stroke-width="1.2" stroke-linecap="round" stroke-linejoin="round"/>
<path d="M8.1001 16.9692H16.6501" stroke="#004181" stroke-width="1.2" stroke-linecap="round" stroke-linejoin="round"/>
<path d="M8.1001 19.4785H16.6501" stroke="#004181" stroke-width="1.2" stroke-linecap="round" stroke-linejoin="round"/>
</svg>
