<svg width="30" height="31" viewBox="0 0 30 31" fill="none" xmlns="http://www.w3.org/2000/svg">
<path d="M19.1899 7.18285C19.1899 4.85055 17.3364 2.95984 15.0499 2.95984C12.7635 2.95984 10.9099 4.85055 10.9099 7.18285V15.9349C10.9099 18.2672 12.7635 20.1579 15.0499 20.1579C17.3364 20.1579 19.1899 18.2672 19.1899 15.9349V7.18285Z" fill="#DFEFFF" stroke="#004181" stroke-linecap="round" stroke-linejoin="round"/>
<path d="M21.39 16.1287C21.39 16.9779 21.226 17.8189 20.9074 18.6035C20.5887 19.3882 20.1217 20.1011 19.533 20.7016C18.9443 21.3021 18.2454 21.7785 17.4762 22.1035C16.707 22.4285 15.8825 22.5958 15.05 22.5958C14.2174 22.5958 13.393 22.4285 12.6237 22.1035C11.8545 21.7785 11.1556 21.3021 10.5669 20.7016C9.97818 20.1011 9.51118 19.3882 9.19256 18.6035C8.87395 17.8189 8.70996 16.9779 8.70996 16.1287" stroke="#004181" stroke-linecap="round" stroke-linejoin="round"/>
<path d="M14.01 22.5347V25.7988" stroke="#004181" stroke-linecap="round" stroke-linejoin="round"/>
<path d="M15.9399 22.5347V25.7988" stroke="#004181" stroke-linecap="round" stroke-linejoin="round"/>
<path d="M12.84 25.7987H17.35C17.6922 25.7987 18.0203 25.9374 18.2622 26.1842C18.5041 26.4309 18.64 26.7656 18.64 27.1146V27.9103H11.54V27.1146C11.54 26.9409 11.5737 26.769 11.6392 26.6087C11.7046 26.4484 11.8006 26.3029 11.9214 26.1805C12.0422 26.0582 12.1856 25.9615 12.3433 25.896C12.501 25.8304 12.6698 25.7974 12.84 25.7987Z" fill="#DFEFFF" stroke="#004181" stroke-linecap="round" stroke-linejoin="round"/>
<path d="M8.70996 8.84546V11.5588" stroke="#004181" stroke-linecap="round" stroke-linejoin="round"/>
<path d="M6.80005 7.1012V13.9763" stroke="#004181" stroke-linecap="round" stroke-linejoin="round"/>
<path d="M4.83008 7.64185V12.7727" stroke="#004181" stroke-linecap="round" stroke-linejoin="round"/>
<path d="M2.82007 5.76501V14.211" stroke="#004181" stroke-linecap="round" stroke-linejoin="round"/>
<path d="M21.3899 8.84546V11.5588" stroke="#004181" stroke-linecap="round" stroke-linejoin="round"/>
<path d="M23.27 7.1012V12.0994" stroke="#004181" stroke-linecap="round" stroke-linejoin="round"/>
<path d="M25.24 7.64185V12.7727" stroke="#004181" stroke-linecap="round" stroke-linejoin="round"/>
<path d="M27.1799 5.5304V14.211" stroke="#004181" stroke-linecap="round" stroke-linejoin="round"/>
<path d="M13.6699 6.73401H16.2699" stroke="#004181" stroke-linecap="round" stroke-linejoin="round"/>
<path d="M13.6699 8.58032H16.2699" stroke="#004181" stroke-linecap="round" stroke-linejoin="round"/>
<path d="M17.12 15.8839C17.1365 16.1766 17.0937 16.4696 16.9942 16.7447C16.8947 17.0197 16.7407 17.2709 16.5417 17.4824C16.3427 17.694 16.1031 17.8614 15.8379 17.9743C15.5726 18.0871 15.2874 18.1429 15 18.1382" stroke="#004181" stroke-linecap="round" stroke-linejoin="round"/>
<path d="M10.9099 11.9974H19.1899" stroke="#004181" stroke-linecap="round" stroke-linejoin="round"/>
</svg>
