<svg width="21" height="17" viewBox="0 0 21 17" fill="none" xmlns="http://www.w3.org/2000/svg">
<path d="M3.15 7.4375C4.30828 7.4375 5.25 6.48457 5.25 5.3125C5.25 4.14043 4.30828 3.1875 3.15 3.1875C1.99172 3.1875 1.05 4.14043 1.05 5.3125C1.05 6.48457 1.99172 7.4375 3.15 7.4375ZM17.85 7.4375C19.0083 7.4375 19.95 6.48457 19.95 5.3125C19.95 4.14043 19.0083 3.1875 17.85 3.1875C16.6917 3.1875 15.75 4.14043 15.75 5.3125C15.75 6.48457 16.6917 7.4375 17.85 7.4375ZM18.9 8.5H16.8C16.2225 8.5 15.7008 8.73574 15.3202 9.11758C16.6425 9.85137 17.5809 11.1762 17.7844 12.75H19.95C20.5308 12.75 21 12.2752 21 11.6875V10.625C21 9.45293 20.0583 8.5 18.9 8.5ZM10.5 8.5C12.5311 8.5 14.175 6.83652 14.175 4.78125C14.175 2.72598 12.5311 1.0625 10.5 1.0625C8.46891 1.0625 6.825 2.72598 6.825 4.78125C6.825 6.83652 8.46891 8.5 10.5 8.5ZM13.02 9.5625H12.7477C12.0652 9.89453 11.3072 10.0938 10.5 10.0938C9.69281 10.0938 8.93812 9.89453 8.25234 9.5625H7.98C5.89312 9.5625 4.2 11.2758 4.2 13.3875V14.3438C4.2 15.2236 4.90547 15.9375 5.775 15.9375H15.225C16.0945 15.9375 16.8 15.2236 16.8 14.3438V13.3875C16.8 11.2758 15.1069 9.5625 13.02 9.5625ZM5.67984 9.11758C5.29922 8.73574 4.7775 8.5 4.2 8.5H2.1C0.941719 8.5 0 9.45293 0 10.625V11.6875C0 12.2752 0.469219 12.75 1.05 12.75H3.21234C3.41906 11.1762 4.3575 9.85137 5.67984 9.11758Z" fill="#586888"/>
</svg>
