<svg width="18" height="14" viewBox="0 0 18 14" fill="none" xmlns="http://www.w3.org/2000/svg">
<path d="M8.16663 4.49998C8.16663 5.88331 7.04996 6.99998 5.66663 6.99998C4.28329 6.99998 3.16663 5.88331 3.16663 4.49998C3.16663 3.11665 4.28329 1.99998 5.66663 1.99998C7.04996 1.99998 8.16663 3.11665 8.16663 4.49998ZM10.6666 13.6666H0.666626V12C0.666626 10.1583 2.90829 8.66665 5.66663 8.66665C8.42496 8.66665 10.6666 10.1583 10.6666 12M4.83329 4.49998C4.83329 4.95831 5.20829 5.33331 5.66663 5.33331C6.12496 5.33331 6.49996 4.95831 6.49996 4.49998C6.49996 4.04165 6.12496 3.66665 5.66663 3.66665C5.20829 3.66665 4.83329 4.04165 4.83329 4.49998ZM2.33329 12H8.99996C8.99996 11.0833 7.50829 10.3333 5.66663 10.3333C3.82496 10.3333 2.33329 11.0833 2.33329 12ZM17.3333 6.99998V8.66665H9.83329V6.99998M17.3333 3.66665V5.33331H9.83329V3.66665M17.3333 0.333313V1.99998H9.83329V0.333313H17.3333Z" fill="#586888"/>
</svg>
