<svg width="20" height="20" viewBox="0 0 20 20" fill="none" xmlns="http://www.w3.org/2000/svg">
<path d="M10 2C5.58217 2 2 5.58217 2 10C2 14.4178 5.58217 18 10 18C14.4178 18 18 14.4178 18 10C18 5.58217 14.4178 2 10 2Z" stroke="#586888" stroke-width="1.6" stroke-miterlimit="10"/>
<path d="M8.78271 9.58301H10.174V14.6265" stroke="#586888" stroke-width="1.6" stroke-linecap="round" stroke-linejoin="round"/>
<path d="M10.0001 5.66992C9.77649 5.66992 9.55793 5.73622 9.37203 5.86043C9.18613 5.98465 9.04124 6.1612 8.95568 6.36776C8.87012 6.57432 8.84773 6.80161 8.89135 7.02089C8.93497 7.24018 9.04263 7.4416 9.20073 7.59969C9.35882 7.75779 9.56024 7.86545 9.77953 7.90907C9.99881 7.95269 10.2261 7.9303 10.4327 7.84474C10.6392 7.75918 10.8158 7.61429 10.94 7.42839C11.0642 7.24249 11.1305 7.02394 11.1305 6.80036C11.1305 6.50055 11.0114 6.21302 10.7994 6.00102C10.5874 5.78902 10.2999 5.66992 10.0001 5.66992Z" fill="#586888"/>
</svg>
