<svg width="28" height="28" viewBox="0 0 28 28" fill="none" xmlns="http://www.w3.org/2000/svg">
<g clip-path="url(#clip0_599_3186)">
<path d="M20.6667 11.5H13.1667C12.2462 11.5 11.5 12.2462 11.5 13.1667V20.6667C11.5 21.5871 12.2462 22.3333 13.1667 22.3333H20.6667C21.5871 22.3333 22.3333 21.5871 22.3333 20.6667V13.1667C22.3333 12.2462 21.5871 11.5 20.6667 11.5Z" stroke="#586888" stroke-width="1.6" stroke-linecap="round" stroke-linejoin="round"/>
<path d="M8.16669 16.5013H7.33335C6.89133 16.5013 6.4674 16.3257 6.15484 16.0131C5.84228 15.7006 5.66669 15.2767 5.66669 14.8346V7.33464C5.66669 6.89261 5.84228 6.46868 6.15484 6.15612C6.4674 5.84356 6.89133 5.66797 7.33335 5.66797H14.8334C15.2754 5.66797 15.6993 5.84356 16.0119 6.15612C16.3244 6.46868 16.5 6.89261 16.5 7.33464V8.16797" stroke="#586888" stroke-width="1.6" stroke-linecap="round" stroke-linejoin="round"/>
</g>
<defs>
<clipPath id="clip0_599_3186">
<rect width="20" height="20" fill="white" transform="translate(4 4)"/>
</clipPath>
</defs>
</svg>
