<svg width="30" height="32" viewBox="0 0 30 32" fill="none" xmlns="http://www.w3.org/2000/svg">
<path d="M21.78 27.5366H6C5.40763 27.5393 4.83833 27.3026 4.41666 26.8782C3.99499 26.4538 3.75528 25.8763 3.75 25.272V4.64661L6.75 7.14573L10 4.64661L12.79 7.06413L15.79 4.64661L18.88 6.96212L21.88 4.64661L21.78 27.5366Z" stroke="#004181" stroke-width="1.2" stroke-linecap="round" stroke-linejoin="round"/>
<path d="M24.25 27.5365H21.78V13.776H26.25V25.4964C26.25 26.0375 26.0393 26.5564 25.6642 26.939C25.2891 27.3216 24.7804 27.5365 24.25 27.5365Z" fill="#DFEFFF" stroke="#004181" stroke-width="1.2" stroke-linecap="round" stroke-linejoin="round"/>
<path d="M7.95996 17.2034H17.43" stroke="#004181" stroke-width="1.2" stroke-linecap="round" stroke-linejoin="round"/>
<path d="M7.95996 21.7631H17.43" stroke="#004181" stroke-width="1.2" stroke-linecap="round" stroke-linejoin="round"/>
<path d="M10.65 9.65503H9C8.73478 9.65503 8.48043 9.7625 8.29289 9.9538C8.10536 10.1451 8 10.4045 8 10.6751C8 10.9456 8.10536 11.2051 8.29289 11.3964C8.48043 11.5877 8.73478 11.6951 9 11.6951H9.67C9.93522 11.6951 10.1896 11.8026 10.3771 11.9939C10.5646 12.1852 10.67 12.4446 10.67 12.7152C10.67 12.9857 10.5646 13.2452 10.3771 13.4365C10.1896 13.6278 9.93522 13.7352 9.67 13.7352H8" stroke="#004181" stroke-linecap="round" stroke-linejoin="round"/>
<path d="M9.31006 13.7658V14.4595M9.31006 8.95117V9.64481" stroke="#004181" stroke-linecap="round" stroke-linejoin="round"/>
</svg>
