<svg width="25" height="25" viewBox="0 0 25 25" fill="none" xmlns="http://www.w3.org/2000/svg">
<path d="M20.3125 16.4062H17.9688V14.0625H16.4062V16.4062H14.0625V17.9688H16.4062V20.3125H17.9688V17.9688H20.3125V16.4062Z" fill="#586888"/>
<path d="M17.1875 23.4375C13.75 23.4375 10.9375 20.625 10.9375 17.1875C10.9375 13.75 13.75 10.9375 17.1875 10.9375C20.625 10.9375 23.4375 13.75 23.4375 17.1875C23.4375 20.625 20.625 23.4375 17.1875 23.4375ZM17.1875 12.5C14.6094 12.5 12.5 14.6094 12.5 17.1875C12.5 19.7656 14.6094 21.875 17.1875 21.875C19.7656 21.875 21.875 19.7656 21.875 17.1875C21.875 14.6094 19.7656 12.5 17.1875 12.5Z" fill="#586888"/>
<path d="M21.875 4.6875C21.875 3.82812 21.1719 3.125 20.3125 3.125H17.1875V1.5625H15.625V3.125H9.375V1.5625H7.8125V3.125H4.6875C3.82812 3.125 3.125 3.82812 3.125 4.6875V20.3125C3.125 21.1719 3.82812 21.875 4.6875 21.875H9.375V20.3125H4.6875V4.6875H7.8125V6.25H9.375V4.6875H15.625V6.25H17.1875V4.6875H20.3125V9.375H21.875V4.6875Z" fill="#586888"/>
</svg>
