<svg width="30" height="32" viewBox="0 0 30 32" fill="none" xmlns="http://www.w3.org/2000/svg">
<path d="M17.6201 15.2369V26.0189C17.6201 26.422 17.4631 26.8086 17.1836 27.0936C16.9042 27.3786 16.5252 27.5388 16.1301 27.5388H6.54006C6.14662 27.5361 5.7702 27.3747 5.49293 27.09C5.21566 26.8053 5.06005 26.4202 5.06006 26.0189V9.13702" stroke="#004181" stroke-width="0.7" stroke-linecap="round" stroke-linejoin="round"/>
<path d="M17.6201 13.207V13.7171" stroke="#004181" stroke-width="0.7" stroke-linecap="round" stroke-linejoin="round"/>
<path d="M5.06006 7.29074V5.39344C5.06005 4.99211 5.21566 4.60706 5.49293 4.32232C5.7702 4.03758 6.14662 3.87626 6.54006 3.87357H16.1301C16.5252 3.87357 16.9042 4.0337 17.1836 4.31873C17.4631 4.60376 17.6201 4.99035 17.6201 5.39344V6.41349" stroke="#004181" stroke-width="0.7" stroke-linecap="round" stroke-linejoin="round"/>
<path d="M8.66009 6.05649H6.94009C6.74679 6.05649 6.59009 6.21633 6.59009 6.41351V8.16799C6.59009 8.36517 6.74679 8.52501 6.94009 8.52501H8.66009C8.85339 8.52501 9.01009 8.36517 9.01009 8.16799V6.41351C9.01009 6.21633 8.85339 6.05649 8.66009 6.05649Z" fill="#DFEFFF" stroke="#004181" stroke-width="0.5" stroke-miterlimit="10"/>
<path d="M12.1999 6.05649H10.4799C10.2866 6.05649 10.1299 6.21633 10.1299 6.41351V8.16799C10.1299 8.36517 10.2866 8.52501 10.4799 8.52501H12.1999C12.3932 8.52501 12.5499 8.36517 12.5499 8.16799V6.41351C12.5499 6.21633 12.3932 6.05649 12.1999 6.05649Z" fill="#DFEFFF" stroke="#004181" stroke-width="0.5" stroke-miterlimit="10"/>
<path d="M15.86 6.05649H14.14C13.9467 6.05649 13.79 6.21633 13.79 6.41351V8.16799C13.79 8.36517 13.9467 8.52501 14.14 8.52501H15.86C16.0533 8.52501 16.21 8.36517 16.21 8.16799V6.41351C16.21 6.21633 16.0533 6.05649 15.86 6.05649Z" fill="#DFEFFF" stroke="#004181" stroke-width="0.5" stroke-miterlimit="10"/>
<path d="M8.60003 10.1163H6.88003C6.68673 10.1163 6.53003 10.2761 6.53003 10.4733V12.2278C6.53003 12.425 6.68673 12.5848 6.88003 12.5848H8.60003C8.79333 12.5848 8.95003 12.425 8.95003 12.2278V10.4733C8.95003 10.2761 8.79333 10.1163 8.60003 10.1163Z" fill="#DFEFFF" stroke="#004181" stroke-width="0.5" stroke-miterlimit="10"/>
<path d="M12.1401 10.1163H10.4201C10.2268 10.1163 10.0701 10.2761 10.0701 10.4733V12.2278C10.0701 12.425 10.2268 12.5848 10.4201 12.5848H12.1401C12.3334 12.5848 12.4901 12.425 12.4901 12.2278V10.4733C12.4901 10.2761 12.3334 10.1163 12.1401 10.1163Z" fill="#DFEFFF" stroke="#004181" stroke-width="0.5" stroke-miterlimit="10"/>
<path d="M15.8 10.1163H14.08C13.8867 10.1163 13.73 10.2761 13.73 10.4733V12.2278C13.73 12.425 13.8867 12.5848 14.08 12.5848H15.8C15.9933 12.5848 16.15 12.425 16.15 12.2278V10.4733C16.15 10.2761 15.9933 10.1163 15.8 10.1163Z" fill="#DFEFFF" stroke="#004181" stroke-width="0.5" stroke-miterlimit="10"/>
<path d="M5.32007 23.7646H17.3601" stroke="#004181" stroke-width="0.7" stroke-linecap="round" stroke-linejoin="round"/>
<path d="M10.8401 25.6109H11.9501" stroke="#004181" stroke-width="0.5" stroke-linecap="round" stroke-linejoin="round"/>
<path d="M21.0001 9.65727C21.0001 9.825 21.0654 9.98586 21.1817 10.1045C21.298 10.2231 21.4557 10.2897 21.6201 10.2897H22.1601V11.83H20.5101V12.3706C20.5114 12.4545 20.4964 12.5378 20.4658 12.6158C20.4353 12.6937 20.3898 12.7646 20.3321 12.8244C20.2744 12.8842 20.2056 12.9317 20.1297 12.9641C20.0538 12.9966 19.9724 13.0132 19.8901 13.0132H19.8401C19.6748 13.0106 19.5171 12.9417 19.4011 12.8214C19.2851 12.7012 19.2201 12.5393 19.2201 12.3706V11.83H17.9001C17.8259 11.83 17.7546 11.7999 17.7021 11.7463C17.6496 11.6928 17.6201 11.6201 17.6201 11.5444V7.54576C17.6201 7.47001 17.6496 7.39736 17.7021 7.3438C17.7546 7.29024 17.8259 7.26015 17.9001 7.26015H19.2201V7.81098C19.2201 7.97871 19.2854 8.13957 19.4017 8.25817C19.518 8.37678 19.6757 8.44341 19.8401 8.44341H19.8901C20.0545 8.44341 20.2122 8.37678 20.3285 8.25817C20.4448 8.13957 20.5101 7.97871 20.5101 7.81098V7.23975H22.1201V9.02484H21.5801C21.4227 9.03522 21.2751 9.1064 21.1673 9.2239C21.0596 9.3414 20.9998 9.49637 21.0001 9.65727Z" fill="#DFEFFF" stroke="#004181" stroke-width="0.6" stroke-miterlimit="10"/>
<path d="M26.61 7.54576V11.5648C26.61 11.6388 26.5819 11.7099 26.5316 11.7632C26.4812 11.8165 26.4125 11.8477 26.34 11.8504H25V11.2996C24.9974 11.1309 24.9298 10.97 24.812 10.8517C24.6941 10.7334 24.5354 10.6671 24.37 10.6671C24.2056 10.6671 24.0479 10.7338 23.9316 10.8524C23.8153 10.971 23.75 11.1318 23.75 11.2996V11.8504H22.15V10.3407H21.61C21.4473 10.338 21.2922 10.2702 21.178 10.1519C21.0639 10.0336 21 9.87425 21 9.70827C21 9.54054 21.0653 9.37968 21.1816 9.26108C21.2979 9.14247 21.4556 9.07584 21.62 9.07584H22.16V7.23975H23.76V6.69912C23.76 6.53044 23.825 6.36851 23.941 6.24828C24.057 6.12805 24.2147 6.05917 24.38 6.05649C24.5471 6.05649 24.7073 6.12419 24.8255 6.24471C24.9436 6.36523 25.01 6.52868 25.01 6.69912V7.23975H26.34C26.3777 7.24102 26.4147 7.25004 26.4489 7.26626C26.483 7.28248 26.5136 7.30557 26.5388 7.33414C26.5641 7.36271 26.5834 7.39619 26.5956 7.43255C26.6078 7.46891 26.6127 7.50742 26.61 7.54576Z" fill="#DFEFFF" stroke="#004181" stroke-width="0.6" stroke-miterlimit="10"/>
</svg>
