<svg width="30" height="32" viewBox="0 0 30 32" fill="none" xmlns="http://www.w3.org/2000/svg">
<path d="M8.17993 18.5666V8.19268C8.17979 8.08467 8.20121 7.97777 8.24289 7.87848C8.28457 7.77919 8.34562 7.68959 8.42234 7.61515C8.49907 7.54071 8.58984 7.48298 8.68914 7.44548C8.78844 7.40799 8.89419 7.3915 8.99993 7.39704H17.5299" stroke="#004181" stroke-width="0.75" stroke-linecap="round" stroke-linejoin="round"/>
<path d="M21.69 10.1716V27.0738C21.69 27.1792 21.6695 27.2835 21.6297 27.3807C21.5898 27.4779 21.5315 27.566 21.458 27.6401C21.3845 27.7141 21.2973 27.7725 21.2015 27.8119C21.1057 27.8512 21.0032 27.8708 20.9 27.8695H8.99997C8.7931 27.8695 8.59471 27.7856 8.44843 27.6364C8.30215 27.4872 8.21997 27.2848 8.21997 27.0738V20.0151" stroke="#004181" stroke-width="0.75" stroke-linecap="round" stroke-linejoin="round"/>
<path d="M22.8999 9.51874H26.9999C27.1032 9.51873 27.2054 9.53964 27.3007 9.58026C27.396 9.62088 27.4824 9.6804 27.555 9.75537C27.6276 9.83034 27.6848 9.91925 27.7234 10.017C27.762 10.1147 27.7812 10.2192 27.7799 10.3246V24.9419C27.7812 25.0473 27.762 25.1518 27.7234 25.2495C27.6848 25.3472 27.6276 25.4362 27.555 25.5111C27.4824 25.5861 27.396 25.6456 27.3007 25.6862C27.2054 25.7269 27.1032 25.7478 26.9999 25.7478H22.8999" stroke="#004181" stroke-width="0.75" stroke-linecap="round" stroke-linejoin="round"/>
<path d="M7.10003 9.51874H3.00003C2.89676 9.51873 2.79451 9.53964 2.69921 9.58026C2.60392 9.62088 2.51749 9.6804 2.44493 9.75537C2.37236 9.83034 2.31512 9.91925 2.27651 10.017C2.23791 10.1147 2.21871 10.2192 2.22003 10.3246V24.9419C2.21871 25.0473 2.23791 25.1518 2.27651 25.2495C2.31512 25.3472 2.37236 25.4362 2.44493 25.5111C2.51749 25.5861 2.60392 25.6456 2.69921 25.6862C2.79451 25.7269 2.89676 25.7478 3.00003 25.7478H7.10003" stroke="#004181" stroke-width="0.75" stroke-linecap="round" stroke-linejoin="round"/>
<path d="M18.91 10.1716H10.95C10.5579 10.1716 10.24 10.4958 10.24 10.8958V16.2103C10.24 16.6103 10.5579 16.9345 10.95 16.9345H18.91C19.3021 16.9345 19.62 16.6103 19.62 16.2103V10.8958C19.62 10.4958 19.3021 10.1716 18.91 10.1716Z" fill="#DFEFFF" stroke="#004181" stroke-width="0.75" stroke-linecap="round" stroke-linejoin="round"/>
<path d="M15.29 25.5845H11.6C11.5112 25.5846 11.4232 25.5665 11.3413 25.5316C11.2593 25.4966 11.185 25.4453 11.1227 25.3808C11.0603 25.3162 11.0112 25.2397 10.9781 25.1556C10.945 25.0715 10.9287 24.9815 10.93 24.8909V23.7077C10.93 23.5264 11.0006 23.3526 11.1262 23.2244C11.2519 23.0962 11.4223 23.0242 11.6 23.0242H18.26C18.3488 23.0229 18.437 23.0395 18.5195 23.0733C18.6019 23.107 18.677 23.1571 18.7402 23.2207C18.8035 23.2843 18.8538 23.3601 18.8881 23.4437C18.9224 23.5273 18.94 23.617 18.94 23.7077V24.8909C18.9414 24.9824 18.9247 25.0732 18.891 25.158C18.8573 25.2427 18.8073 25.3198 18.7438 25.3845C18.6804 25.4491 18.6049 25.5002 18.5218 25.5345C18.4387 25.5689 18.3497 25.5859 18.26 25.5845H16.92" fill="#DFEFFF"/>
<path d="M15.29 25.5845H11.6C11.5112 25.5846 11.4232 25.5665 11.3413 25.5316C11.2593 25.4966 11.185 25.4453 11.1227 25.3808C11.0603 25.3162 11.0112 25.2397 10.9781 25.1556C10.945 25.0715 10.9287 24.9815 10.93 24.8909V23.7077C10.93 23.5264 11.0006 23.3526 11.1262 23.2244C11.2519 23.0962 11.4223 23.0242 11.6 23.0242H18.26C18.3488 23.0229 18.437 23.0395 18.5195 23.0733C18.6019 23.107 18.677 23.1571 18.7402 23.2207C18.8035 23.2843 18.8538 23.3601 18.8881 23.4437C18.9224 23.5273 18.94 23.617 18.94 23.7077V24.8909C18.9414 24.9824 18.9247 25.0732 18.891 25.158C18.8573 25.2427 18.8073 25.3198 18.7438 25.3845C18.6804 25.4491 18.6049 25.5002 18.5218 25.5345C18.4387 25.5689 18.3497 25.5859 18.26 25.5845H16.92" stroke="#004181" stroke-width="0.75" stroke-linecap="round" stroke-linejoin="round"/>
<path d="M7.10989 23.0242H4.38989C4.29801 23.0243 4.20706 23.0054 4.12255 22.9687C4.03803 22.9319 3.96168 22.8781 3.89813 22.8104C3.83458 22.7427 3.78513 22.6626 3.75278 22.5748C3.72043 22.4871 3.70584 22.3936 3.70989 22.3V21.1473C3.71252 20.9651 3.78532 20.7913 3.91256 20.6634C4.0398 20.5356 4.21126 20.4639 4.38989 20.4639H7.10989" fill="#DFEFFF"/>
<path d="M7.10989 23.0242H4.38989C4.29801 23.0243 4.20706 23.0054 4.12255 22.9687C4.03803 22.9319 3.96168 22.8781 3.89813 22.8104C3.83458 22.7427 3.78513 22.6626 3.75278 22.5748C3.72043 22.4871 3.70584 22.3936 3.70989 22.3V21.1473C3.71252 20.9651 3.78532 20.7913 3.91256 20.6634C4.0398 20.5356 4.21126 20.4639 4.38989 20.4639H7.10989" stroke="#004181" stroke-width="0.75" stroke-linecap="round" stroke-linejoin="round"/>
<path d="M7.09996 16.1797H4.38996C4.21133 16.1797 4.03987 16.108 3.91263 15.9801C3.78539 15.8522 3.71259 15.6784 3.70996 15.4962V12.3647C3.71259 12.1825 3.78539 12.0087 3.91263 11.8808C4.03987 11.7529 4.21133 11.6812 4.38996 11.6812H7.09996" fill="#DFEFFF"/>
<path d="M7.09996 16.1797H4.38996C4.21133 16.1797 4.03987 16.108 3.91263 15.9801C3.78539 15.8522 3.71259 15.6784 3.70996 15.4962V12.3647C3.71259 12.1825 3.78539 12.0087 3.91263 11.8808C4.03987 11.7529 4.21133 11.6812 4.38996 11.6812H7.09996" stroke="#004181" stroke-width="0.75" stroke-linecap="round" stroke-linejoin="round"/>
<path d="M22.8 23.0242H25.51C25.5989 23.0256 25.6871 23.0089 25.7695 22.9752C25.852 22.9414 25.927 22.8913 25.9903 22.8277C26.0536 22.7641 26.1038 22.6883 26.1381 22.6047C26.1724 22.5211 26.1901 22.4314 26.1901 22.3408V21.1473C26.1901 21.0567 26.1724 20.967 26.1381 20.8834C26.1038 20.7998 26.0536 20.724 25.9903 20.6604C25.927 20.5968 25.852 20.5467 25.7695 20.513C25.6871 20.4792 25.5989 20.4626 25.51 20.4639H22.8" fill="#DFEFFF"/>
<path d="M22.8 23.0242H25.51C25.5989 23.0256 25.6871 23.0089 25.7695 22.9752C25.852 22.9414 25.927 22.8913 25.9903 22.8277C26.0536 22.7641 26.1038 22.6883 26.1381 22.6047C26.1724 22.5211 26.1901 22.4314 26.1901 22.3408V21.1473C26.1901 21.0567 26.1724 20.967 26.1381 20.8834C26.1038 20.7998 26.0536 20.724 25.9903 20.6604C25.927 20.5968 25.852 20.5467 25.7695 20.513C25.6871 20.4792 25.5989 20.4626 25.51 20.4639H22.8" stroke="#004181" stroke-width="0.75" stroke-linecap="round" stroke-linejoin="round"/>
<path d="M22.8 16.1797H25.51C25.5989 16.181 25.6871 16.1644 25.7695 16.1306C25.852 16.0969 25.927 16.0468 25.9903 15.9832C26.0536 15.9196 26.1038 15.8438 26.1381 15.7602C26.1724 15.6766 26.1901 15.5869 26.1901 15.4963V12.3647C26.1901 12.2741 26.1724 12.1844 26.1381 12.1008C26.1038 12.0172 26.0536 11.9414 25.9903 11.8778C25.927 11.8142 25.852 11.7641 25.7695 11.7303C25.6871 11.6966 25.5989 11.6799 25.51 11.6813H22.8" fill="#DFEFFF"/>
<path d="M22.8 16.1797H25.51C25.5989 16.181 25.6871 16.1644 25.7695 16.1306C25.852 16.0969 25.927 16.0468 25.9903 15.9832C26.0536 15.9196 26.1038 15.8438 26.1381 15.7602C26.1724 15.6766 26.1901 15.5869 26.1901 15.4963V12.3647C26.1901 12.2741 26.1724 12.1844 26.1381 12.1008C26.1038 12.0172 26.0536 11.9414 25.9903 11.8778C25.927 11.8142 25.852 11.7641 25.7695 11.7303C25.6871 11.6966 25.5989 11.6799 25.51 11.6813H22.8" stroke="#004181" stroke-width="0.75" stroke-linecap="round" stroke-linejoin="round"/>
<path d="M4.69995 18.0668H6.85995" stroke="#004181" stroke-width="0.75" stroke-linecap="round" stroke-linejoin="round"/>
<path d="M11.1299 19.0358H18.9399" stroke="#004181" stroke-width="0.75" stroke-linecap="round" stroke-linejoin="round"/>
<path d="M11.1299 21.0861H18.9399" stroke="#004181" stroke-width="0.75" stroke-linecap="round" stroke-linejoin="round"/>
<path d="M23.0701 18.0668H25.2401" stroke="#004181" stroke-width="0.75" stroke-linecap="round" stroke-linejoin="round"/>
<path d="M20.93 8.91692C22.1285 8.91692 23.1 7.9259 23.1 6.70341C23.1 5.48092 22.1285 4.4899 20.93 4.4899C19.7316 4.4899 18.76 5.48092 18.76 6.70341C18.76 7.9259 19.7316 8.91692 20.93 8.91692Z" fill="#DFEFFF" stroke="#004181" stroke-width="0.75" stroke-miterlimit="10"/>
</svg>
