<svg width="30" height="32" viewBox="0 0 30 32" fill="none" xmlns="http://www.w3.org/2000/svg">
<path d="M19.4601 15.8995C22.8235 15.8995 25.5501 13.1182 25.5501 9.68734C25.5501 6.25648 22.8235 3.47522 19.4601 3.47522C16.0967 3.47522 13.3701 6.25648 13.3701 9.68734C13.3701 13.1182 16.0967 15.8995 19.4601 15.8995Z" fill="#DFEFFF" stroke="#004181" stroke-miterlimit="10"/>
<path d="M19.5002 5.82135L19.4602 9.68735L21.6702 10.9726" stroke="#004181" stroke-linecap="round" stroke-linejoin="round"/>
<path d="M20.05 17.3479V18.98" stroke="#004181" stroke-linecap="round" stroke-linejoin="round"/>
<path d="M20.05 20.5509V27.426C20.05 27.5761 20.021 27.7246 19.9647 27.8632C19.9084 28.0018 19.8259 28.1278 19.7219 28.2339C19.6179 28.34 19.4945 28.4241 19.3586 28.4815C19.2227 28.5389 19.077 28.5685 18.93 28.5685H5.56996C5.27465 28.5658 4.99234 28.4442 4.78446 28.2303C4.57657 28.0163 4.45995 27.7273 4.45996 27.426V8.48368C4.45995 8.18244 4.57657 7.89338 4.78446 7.67942C4.99234 7.46546 5.27465 7.34391 5.56996 7.34122H12.29" stroke="#004181" stroke-linecap="round" stroke-linejoin="round"/>
<path d="M8.48999 11.5336H13.65" stroke="#004181" stroke-linecap="round" stroke-linejoin="round"/>
<path d="M8.48999 15.8893H16.08" stroke="#004181" stroke-linecap="round" stroke-linejoin="round"/>
<path d="M8.48999 20.0817H16.08" stroke="#004181" stroke-linecap="round" stroke-linejoin="round"/>
<path d="M8.45996 24.274H16.05" stroke="#004181" stroke-linecap="round" stroke-linejoin="round"/>
</svg>
