<svg width="30" height="31" viewBox="0 0 30 31" fill="none" xmlns="http://www.w3.org/2000/svg">
<g clip-path="url(#clip0_3264_16404)">
<path d="M22.3001 13.4332H3.63009C3.45458 13.4332 3.28082 13.468 3.1188 13.5354C2.95678 13.6029 2.80971 13.7017 2.68608 13.8263C2.56245 13.9509 2.46469 14.0987 2.39844 14.2612C2.33219 14.4237 2.29877 14.5977 2.30009 14.7732V24.5632C2.29877 24.7387 2.33219 24.9127 2.39844 25.0753C2.46469 25.2378 2.56245 25.3856 2.68608 25.5101C2.80971 25.6347 2.95678 25.7336 3.1188 25.801C3.28082 25.8685 3.45458 25.9032 3.63009 25.9032H22.3001C22.6555 25.9032 22.9963 25.762 23.2476 25.5108C23.4989 25.2595 23.6401 24.9186 23.6401 24.5632V14.7732C23.6401 14.5973 23.6054 14.423 23.5381 14.2604C23.4707 14.0979 23.372 13.9501 23.2476 13.8257C23.1232 13.7013 22.9755 13.6026 22.8129 13.5352C22.6503 13.4679 22.4761 13.4332 22.3001 13.4332ZM9.06009 20.5632C9.06144 20.6476 9.04581 20.7315 9.01412 20.8097C8.98244 20.888 8.93534 20.9591 8.87564 21.0188C8.81594 21.0785 8.74485 21.1256 8.66659 21.1573C8.58833 21.1889 8.50451 21.2046 8.42009 21.2032H5.28009C5.11035 21.2032 4.94756 21.1358 4.82754 21.0158C4.70751 20.8958 4.64009 20.733 4.64009 20.5632V19.3532C4.64009 19.1835 4.70751 19.0207 4.82754 18.9007C4.94756 18.7807 5.11035 18.7132 5.28009 18.7132H8.42009C8.58982 18.7132 8.75261 18.7807 8.87263 18.9007C8.99266 19.0207 9.06009 19.1835 9.06009 19.3532V20.5632Z" stroke="#004181" stroke-width="0.75" stroke-miterlimit="10"/>
<path d="M9.05989 19.3532V20.5632C9.06124 20.6476 9.04561 20.7315 9.01393 20.8097C8.98224 20.888 8.93515 20.9591 8.87545 21.0188C8.81575 21.0785 8.74466 21.1256 8.6664 21.1573C8.58814 21.1889 8.50431 21.2046 8.41989 21.2032H5.27989C5.11015 21.2032 4.94737 21.1358 4.82734 21.0158C4.70732 20.8958 4.63989 20.733 4.63989 20.5632V19.3532C4.63989 19.1835 4.70732 19.0207 4.82734 18.9007C4.94737 18.7807 5.11015 18.7132 5.27989 18.7132H8.41989C8.58963 18.7132 8.75242 18.7807 8.87244 18.9007C8.99246 19.0207 9.05989 19.1835 9.05989 19.3532Z" fill="#DFEFFF" stroke="#004181" stroke-width="0.5" stroke-miterlimit="10"/>
<path d="M4.63989 23.3932H7.31989" stroke="#004181" stroke-width="0.75" stroke-linecap="round" stroke-linejoin="round"/>
<path d="M9.3999 23.3932H12.0799" stroke="#004181" stroke-width="0.75" stroke-linecap="round" stroke-linejoin="round"/>
<path d="M14.01 23.3932H16.69" stroke="#004181" stroke-width="0.75" stroke-linecap="round" stroke-linejoin="round"/>
<path d="M18.6001 23.3932H21.2801" stroke="#004181" stroke-width="0.75" stroke-linecap="round" stroke-linejoin="round"/>
<path d="M27.6799 10.0832L27.3699 11.8632L25.9999 19.6732C25.9389 20.0233 25.7413 20.3348 25.4506 20.5392C25.16 20.7436 24.8 20.8242 24.4499 20.7632L23.6499 20.6232V14.7732C23.6499 14.4178 23.5087 14.077 23.2574 13.8257C23.0061 13.5744 22.6653 13.4332 22.3099 13.4332H5.41992L6.65992 6.37322C6.72327 6.02499 6.92182 5.71596 7.21223 5.51361C7.50263 5.31126 7.8613 5.23203 8.20992 5.29322L26.5999 8.56322C26.9433 8.62438 27.2489 8.81796 27.4509 9.10227C27.6529 9.38657 27.7351 9.73885 27.6799 10.0832Z" fill="#DFEFFF" stroke="#004181" stroke-width="0.75" stroke-miterlimit="10"/>
<path d="M6.51001 8.18323L27.37 11.8632" stroke="#004181" stroke-width="0.75" stroke-miterlimit="10"/>
</g>
<defs>
<clipPath id="clip0_3264_16404">
<rect width="30" height="30" fill="white" transform="translate(0 0.563232)"/>
</clipPath>
</defs>
</svg>
