<svg width="30" height="32" viewBox="0 0 30 32" fill="none" xmlns="http://www.w3.org/2000/svg">
<path d="M5.08008 4.89108H17.1801C17.4453 4.89108 17.6996 4.99855 17.8872 5.18985C18.0747 5.38115 18.1801 5.6406 18.1801 5.91113V27.577H4.08008V5.91113C4.08008 5.6406 4.18544 5.38115 4.37297 5.18985C4.56051 4.99855 4.81486 4.89108 5.08008 4.89108V4.89108Z" stroke="#004181" stroke-width="1.2" stroke-miterlimit="10"/>
<path d="M14.3501 8.65508H7.80008C7.12629 8.65508 6.58008 9.21224 6.58008 9.89954V9.90974C6.58008 10.597 7.12629 11.1542 7.80008 11.1542H14.3501C15.0239 11.1542 15.5701 10.597 15.5701 9.90974V9.89954C15.5701 9.21224 15.0239 8.65508 14.3501 8.65508Z" stroke="#004181" stroke-width="1.2" stroke-miterlimit="10"/>
<path d="M14.4299 13.6125H7.87991C7.20612 13.6125 6.65991 14.1697 6.65991 14.857V14.8672C6.65991 15.5545 7.20612 16.1117 7.87991 16.1117H14.4299C15.1037 16.1117 15.6499 15.5545 15.6499 14.8672V14.857C15.6499 14.1697 15.1037 13.6125 14.4299 13.6125Z" stroke="#004181" stroke-width="1.2" stroke-miterlimit="10"/>
<path d="M9.91991 22.5686H12.4299C12.6235 22.5686 12.8092 22.647 12.9461 22.7867C13.083 22.9263 13.1599 23.1157 13.1599 23.3132V27.577H9.15991V23.3132C9.15983 23.2128 9.17966 23.1134 9.21821 23.021C9.25675 22.9286 9.31322 22.8451 9.38422 22.7756C9.45522 22.706 9.53927 22.6518 9.63133 22.6162C9.72339 22.5807 9.82155 22.5645 9.91991 22.5686V22.5686Z" stroke="#004181" stroke-width="1.2" stroke-miterlimit="10"/>
<path d="M18.1899 7.38002H19.7599C21.3512 7.38002 22.8774 8.02484 24.0026 9.17262C25.1278 10.3204 25.7599 11.8771 25.7599 13.5003V27.577H18.1899V7.38002Z" fill="#DFEFFF" stroke="#004181" stroke-width="1.2" stroke-miterlimit="10"/>
<path d="M2.1001 27.577H27.9001" stroke="#004181" stroke-width="1.2" stroke-miterlimit="10" stroke-linecap="round"/>
<path d="M20.25 13.1433H23.63" stroke="#004181" stroke-miterlimit="10" stroke-linecap="round"/>
<path d="M20.25 15.4792H23.63" stroke="#004181" stroke-miterlimit="10" stroke-linecap="round"/>
<path d="M20.25 17.8049H23.63" stroke="#004181" stroke-miterlimit="10" stroke-linecap="round"/>
<path d="M20.25 20.1307H23.63" stroke="#004181" stroke-miterlimit="10" stroke-linecap="round"/>
</svg>
