<svg width="30" height="32" viewBox="0 0 30 32" fill="none" xmlns="http://www.w3.org/2000/svg">
<g clip-path="url(#clip0_3264_16273)">
<path d="M6.09009 22.4192L2.09009 29.376H27.9101L24.0301 22.4192" fill="#DFEFFF"/>
<path d="M6.09009 22.4192L2.09009 29.376H27.9101L24.0301 22.4192" stroke="#004181" stroke-width="1.3" stroke-linecap="round" stroke-linejoin="round"/>
<path d="M5.8501 12.0045C5.86963 10.7989 6.12182 9.60894 6.59225 8.50273C7.06269 7.39652 7.74215 6.39568 8.59184 5.55737C9.44153 4.71906 10.4448 4.0597 11.5443 3.61697C12.6439 3.17423 13.8182 2.95678 15.0001 2.97704C16.182 2.95678 17.3563 3.17423 18.4559 3.61697C19.5554 4.0597 20.5587 4.71906 21.4084 5.55737C22.258 6.39568 22.9375 7.39652 23.4079 8.50273C23.8784 9.60894 24.1306 10.7989 24.1501 12.0045C24.1501 12.1371 24.1501 12.2595 24.1501 12.3921C24.1501 12.5247 24.1501 12.7491 24.1501 12.9327C23.9346 14.2866 23.4806 15.5895 22.8101 16.7783C20.2001 21.6542 15.0001 26.4994 15.0001 26.4994C10.9201 23.7147 7.2001 16.7681 7.0001 16.2989" stroke="#004181" stroke-width="1.3" stroke-linecap="round" stroke-linejoin="round"/>
<path d="M15.03 15.8909C16.9575 15.8909 18.52 14.297 18.52 12.3309C18.52 10.3648 16.9575 8.77094 15.03 8.77094C13.1026 8.77094 11.54 10.3648 11.54 12.3309C11.54 14.297 13.1026 15.8909 15.03 15.8909Z" stroke="#004181" stroke-width="1.3" stroke-miterlimit="10"/>
</g>
<defs>
<clipPath id="clip0_3264_16273">
<rect width="30" height="30.6015" fill="white" transform="translate(0 0.875732)"/>
</clipPath>
</defs>
</svg>
