<svg width="30" height="31" viewBox="0 0 30 31" fill="none" xmlns="http://www.w3.org/2000/svg">
<path d="M17.7001 28.8562H5.21012C4.63001 28.8271 4.08472 28.5652 3.69319 28.1276C3.30166 27.69 3.09566 27.1123 3.12012 26.5203V4.65042C3.10105 4.06195 3.30947 3.4894 3.70044 3.05625C4.09141 2.62309 4.63361 2.36402 5.21012 2.3349H25.0001C25.5095 2.36613 25.9879 2.59478 26.3374 2.97404C26.6869 3.3533 26.881 3.85449 26.8801 4.375V5.01764" stroke="#004181" stroke-linecap="round" stroke-linejoin="round"/>
<path d="M10.06 9.69968C11.2142 9.69968 12.15 8.7452 12.15 7.56778C12.15 6.39036 11.2142 5.43587 10.06 5.43587C8.9057 5.43587 7.96997 6.39036 7.96997 7.56778C7.96997 8.7452 8.9057 9.69968 10.06 9.69968Z" fill="#DFEFFF" stroke="#004181" stroke-width="0.75" stroke-miterlimit="10" stroke-linecap="round"/>
<path d="M7.4601 11.444H12.6501C13.0771 11.444 13.4866 11.617 13.7885 11.925C14.0905 12.233 14.2601 12.6507 14.2601 13.0863V15.2182C14.2576 15.5601 14.1247 15.8877 13.8895 16.1314C13.6543 16.3751 13.3353 16.5159 13.0001 16.5238H7.1401C6.79797 16.5238 6.46985 16.3852 6.22793 16.1384C5.98601 15.8916 5.8501 15.5569 5.8501 15.208V13.0863C5.8501 12.6507 6.01972 12.233 6.32166 11.925C6.62359 11.617 7.0331 11.444 7.4601 11.444Z" fill="#DFEFFF" stroke="#004181" stroke-width="0.75" stroke-miterlimit="10" stroke-linecap="round"/>
<path d="M15.5601 5.97649C15.8396 5.79861 16.1642 5.70848 16.4935 5.71733C16.8229 5.72618 17.1424 5.83361 17.4124 6.02625C17.6823 6.2189 17.8908 6.48826 18.0118 6.80082C18.1329 7.11338 18.1611 7.45535 18.0931 7.78417C18.0251 8.113 17.8638 8.41417 17.6293 8.65022C17.3948 8.88626 17.0974 9.04677 16.7742 9.11176C16.451 9.17675 16.1161 9.14336 15.8114 9.01574C15.5066 8.88813 15.2453 8.67192 15.0601 8.39402" fill="#DFEFFF"/>
<path d="M15.5601 5.97649C15.8396 5.79861 16.1642 5.70848 16.4935 5.71733C16.8229 5.72618 17.1424 5.83361 17.4124 6.02625C17.6823 6.2189 17.8908 6.48826 18.0118 6.80082C18.1329 7.11338 18.1611 7.45535 18.0931 7.78417C18.0251 8.113 17.8638 8.41417 17.6293 8.65022C17.3948 8.88626 17.0974 9.04677 16.7742 9.11176C16.451 9.17675 16.1161 9.14336 15.8114 9.01574C15.5066 8.88813 15.2453 8.67192 15.0601 8.39401" stroke="#004181" stroke-width="0.75" stroke-miterlimit="10" stroke-linecap="round"/>
<path d="M15.24 11.2502H16.79C17.0586 11.25 17.3245 11.305 17.5719 11.412C17.8192 11.5189 18.0429 11.6756 18.2295 11.8727C18.4162 12.0698 18.562 12.3032 18.6583 12.559C18.7546 12.8148 18.7994 13.0878 18.79 13.3617V13.6983C18.794 13.9073 18.7575 14.115 18.6828 14.3096C18.6081 14.5042 18.4965 14.6819 18.3544 14.8325C18.2123 14.9831 18.0425 15.1037 17.8547 15.1874C17.667 15.2711 17.4649 15.3162 17.26 15.3202H16.74" fill="#DFEFFF"/>
<path d="M15.24 11.2502H16.79C17.0586 11.25 17.3245 11.305 17.5719 11.412C17.8192 11.5189 18.0429 11.6756 18.2295 11.8727C18.4162 12.0698 18.562 12.3032 18.6583 12.559C18.7546 12.8148 18.7994 13.0878 18.79 13.3617V13.6983C18.794 13.9073 18.7575 14.115 18.6828 14.3096C18.6081 14.5042 18.4965 14.6819 18.3544 14.8325C18.2123 14.9831 18.0425 15.1037 17.8547 15.1874C17.667 15.2711 17.4649 15.3162 17.26 15.3202H16.74" stroke="#004181" stroke-width="0.75" stroke-miterlimit="10" stroke-linecap="round"/>
<path d="M9.09996 20.043H6.49996C6.3398 20.043 6.20996 20.1754 6.20996 20.3388V21.7159C6.20996 21.8793 6.3398 22.0117 6.49996 22.0117H9.09996C9.26012 22.0117 9.38996 21.8793 9.38996 21.7159V20.3388C9.38996 20.1754 9.26012 20.043 9.09996 20.043Z" fill="#DFEFFF" stroke="#004181" stroke-width="0.75" stroke-miterlimit="10"/>
<path d="M12.04 20.043H24.2" stroke="#004181" stroke-width="0.75" stroke-miterlimit="10" stroke-linecap="round"/>
<path d="M12.04 23.9804H26.88" stroke="#004181" stroke-width="0.75" stroke-miterlimit="10" stroke-linecap="round"/>
<path d="M12.04 22.0117H18.4" stroke="#004181" stroke-width="0.75" stroke-miterlimit="10" stroke-linecap="round"/>
<path d="M12.04 25.9593H22.64" stroke="#004181" stroke-width="0.75" stroke-miterlimit="10" stroke-linecap="round"/>
</svg>
