<svg width="30" height="31" viewBox="0 0 30 31" fill="none" xmlns="http://www.w3.org/2000/svg">
<path d="M23.5701 8.25638C21.852 6.21379 19.4837 4.85348 16.8807 4.41406C14.2776 3.97463 11.606 4.48415 9.33445 5.85324C7.06289 7.22234 5.33643 9.36358 4.45792 11.9014C3.57941 14.4392 3.60495 17.2115 4.53005 19.732" stroke="#004181" stroke-linecap="round" stroke-linejoin="round"/>
<path d="M20.29 7.99112L23.64 8.34813L24.03 5.10437" stroke="#004181" stroke-linecap="round" stroke-linejoin="round"/>
<path d="M25.28 11.0615C25.9042 12.5078 26.2244 14.0715 26.22 15.6518C26.2204 18.0191 25.5011 20.3284 24.1612 22.2614C22.8212 24.1944 20.9267 25.6559 18.7384 26.4447C16.5502 27.2335 14.176 27.3107 11.943 26.6657C9.70991 26.0206 7.72791 24.6851 6.27002 22.8431" stroke="#004181" stroke-linecap="round" stroke-linejoin="round"/>
<path d="M5.71997 26.1277L6.03997 22.6289L9.41997 22.9451" stroke="#004181" stroke-linecap="round" stroke-linejoin="round"/>
<path d="M19.84 12.5916H10.16C9.85126 12.6046 9.55909 12.7375 9.3434 12.9632C9.12771 13.189 9.00485 13.4903 9 13.8054V19.9257C9 20.2531 9.12748 20.567 9.3544 20.7985C9.58132 21.03 9.88909 21.16 10.21 21.16H19.89C20.0489 21.16 20.2062 21.1281 20.353 21.0661C20.4999 21.004 20.6332 20.9131 20.7456 20.7985C20.858 20.6839 20.9471 20.5478 21.0079 20.3981C21.0687 20.2483 21.1 20.0878 21.1 19.9257V13.8054C21.0975 13.6407 21.0626 13.4781 20.9975 13.3273C20.9324 13.1766 20.8384 13.0406 20.721 12.9275C20.6035 12.8143 20.4651 12.7263 20.3138 12.6686C20.1625 12.6109 20.0014 12.5847 19.84 12.5916Z" fill="#DFEFFF" stroke="#004181" stroke-linecap="round" stroke-linejoin="round"/>
<path d="M17.4201 21.2008V11.3369C17.4201 11.1748 17.3888 11.0143 17.328 10.8646C17.2672 10.7148 17.178 10.5788 17.0657 10.4642C16.9533 10.3496 16.8199 10.2586 16.6731 10.1966C16.5263 10.1346 16.369 10.1027 16.2101 10.1027H13.7901C13.6312 10.1027 13.4738 10.1346 13.327 10.1966C13.1802 10.2586 13.0468 10.3496 12.9345 10.4642C12.8221 10.5788 12.733 10.7148 12.6722 10.8646C12.6114 11.0143 12.5801 11.1748 12.5801 11.3369V21.2008" stroke="#004181" stroke-linecap="round" stroke-linejoin="round"/>
</svg>
