<svg width="30" height="32" viewBox="0 0 30 32" fill="none" xmlns="http://www.w3.org/2000/svg">
<path d="M5.83999 8.55532C6.86172 8.55532 7.68999 7.71044 7.68999 6.66822C7.68999 5.62601 6.86172 4.78113 5.83999 4.78113C4.81826 4.78113 3.98999 5.62601 3.98999 6.66822C3.98999 7.71044 4.81826 8.55532 5.83999 8.55532Z" fill="#DFEFFF" stroke="#004181" stroke-width="0.75" stroke-miterlimit="10"/>
<path d="M5.83999 17.797C6.86172 17.797 7.68999 16.9521 7.68999 15.9099C7.68999 14.8677 6.86172 14.0228 5.83999 14.0228C4.81826 14.0228 3.98999 14.8677 3.98999 15.9099C3.98999 16.9521 4.81826 17.797 5.83999 17.797Z" fill="#DFEFFF" stroke="#004181" stroke-width="0.75" stroke-miterlimit="10"/>
<path d="M5.83999 27.0387C6.86172 27.0387 7.68999 26.1938 7.68999 25.1516C7.68999 24.1093 6.86172 23.2645 5.83999 23.2645C4.81826 23.2645 3.98999 24.1093 3.98999 25.1516C3.98999 26.1938 4.81826 27.0387 5.83999 27.0387Z" fill="#DFEFFF" stroke="#004181" stroke-width="0.75" stroke-miterlimit="10"/>
<path d="M9 6.66825H10.69C10.8601 6.66278 11.0296 6.69224 11.1883 6.75489C11.347 6.81754 11.4918 6.9121 11.614 7.03295C11.7362 7.15379 11.8333 7.29846 11.8996 7.45835C11.966 7.61824 12.0001 7.7901 12 7.96371V23.8561C12 24.0271 11.9668 24.1964 11.9024 24.3542C11.8379 24.5121 11.7435 24.6553 11.6245 24.7758C11.5055 24.8962 11.3643 24.9914 11.2091 25.0559C11.0538 25.1204 10.8876 25.1529 10.72 25.1516H9" stroke="#004181" stroke-width="0.75" stroke-linecap="round" stroke-linejoin="round"/>
<path d="M16.4901 15.9099H9.33008" stroke="#004181" stroke-width="0.75" stroke-linecap="round" stroke-linejoin="round"/>
<path d="M15.05 14.7368L16.69 15.9099L15.05 17.1135" stroke="#004181" stroke-width="0.75" stroke-linecap="round" stroke-linejoin="round"/>
<path d="M18.5799 12.8497C18.5743 12.8766 18.5743 12.9044 18.5799 12.9313V12.8497Z" stroke="black" stroke-width="0.6" stroke-linecap="round" stroke-linejoin="round"/>
<path d="M26.0001 12.8497V15.9099C26.0001 16.5423 25.3501 17.1135 24.3801 17.4502C23.0174 17.8718 21.5628 17.8718 20.2001 17.4502C19.2001 17.1135 18.5801 16.5423 18.5801 15.9099V12.8497C18.5801 13.4618 19.1801 14.0126 20.1101 14.339C20.815 14.5837 21.5555 14.7045 22.3001 14.696C23.0478 14.7035 23.7915 14.5828 24.5001 14.339C25.4101 14.0432 26.0001 13.4924 26.0001 12.8497Z" fill="#DFEFFF" stroke="#004181" stroke-width="0.75" stroke-linecap="round" stroke-linejoin="round"/>
<path d="M18.5999 19.1536V18.97C18.5933 19.031 18.5933 19.0926 18.5999 19.1536V19.1536Z" stroke="black" stroke-width="0.6" stroke-linecap="round" stroke-linejoin="round"/>
<path d="M26 15.9099L26 18.9701C26.009 19.0412 26.009 19.1132 26 19.1843C26 19.9901 24.23 20.8265 22.31 20.8265C20.39 20.8265 18.82 20.1023 18.62 19.1843C18.611 19.1132 18.611 19.0412 18.62 18.9701V15.8143C18.62 16.4467 19.27 17.1136 20.24 17.4502C21.6027 17.8718 23.0574 17.8718 24.42 17.4502C25.36 17.0728 26 16.5015 26 15.9099Z" fill="#DFEFFF" stroke="#004181" stroke-width="0.75" stroke-linecap="round" stroke-linejoin="round"/>
<path d="M25.9999 12.8498C25.9999 13.4618 25.3999 14.0126 24.4799 14.3391C23.7713 14.5828 23.0277 14.7035 22.2799 14.6961C21.5354 14.7045 20.7948 14.5838 20.0899 14.3391C19.1599 14.0126 18.5599 13.4618 18.5599 12.8498C18.5542 12.8229 18.5542 12.7951 18.5599 12.7682C18.6399 11.7481 20.2699 10.9933 22.2699 10.9933C24.2699 10.9933 25.9199 11.8297 25.9999 12.8498Z" fill="#DFEFFF" stroke="#004181" stroke-width="0.75" stroke-linecap="round" stroke-linejoin="round"/>
<path d="M24.1 15.8691H24.01V15.9609H24.1V15.8691Z" stroke="#004181" stroke-width="0.75" stroke-linecap="round" stroke-linejoin="round"/>
<path d="M24.13 18.8068H23.99V18.9496H24.13V18.8068Z" stroke="#004181" stroke-width="0.75" stroke-linecap="round" stroke-linejoin="round"/>
</svg>
