<svg width="30" height="32" viewBox="0 0 30 32" fill="none" xmlns="http://www.w3.org/2000/svg">
<path d="M21.0901 12.3712L21.5701 11.8816" stroke="#004181" stroke-width="1.4" stroke-linecap="round"/>
<path d="M24.8699 10.5964V16.5025C24.8728 16.7775 24.8212 17.0503 24.7181 17.3045C24.615 17.5587 24.4625 17.789 24.2699 17.9815L16.1899 26.2337C15.9969 26.4211 15.7736 26.5729 15.5299 26.6826C15.2791 26.7875 15.011 26.8429 14.7399 26.8458C14.4721 26.8429 14.2073 26.7875 13.9599 26.6826C13.7162 26.5729 13.4929 26.4211 13.2999 26.2337L7.50991 20.3174C7.31774 20.1277 7.16769 19.8981 7.06991 19.6442C6.96802 19.3916 6.91374 19.1217 6.90991 18.8486C6.90991 18.7364 6.90991 18.6344 6.90991 18.5222C6.94132 18.3614 6.98821 18.2043 7.04991 18.0529C7.14497 17.7946 7.29528 17.5611 7.48991 17.3695L15.5899 9.11728C15.9659 8.7368 16.4705 8.51776 16.9999 8.50525H22.7899H23.0499C23.5573 8.5518 24.0282 8.7941 24.3664 9.1827C24.7046 9.57131 24.8847 10.0769 24.8699 10.5964V10.5964Z" stroke="#004181" stroke-width="1.4" stroke-linecap="round" stroke-linejoin="round"/>
<path d="M23.09 7.55659V8.52564H22.83H17C16.4566 8.52762 15.9358 8.74745 15.55 9.13767L7.50998 17.3695C7.31535 17.5611 7.16503 17.7946 7.06998 18.0529C7.00828 18.2042 6.96139 18.3614 6.92998 18.5221L5.72998 17.2777C5.53165 17.0912 5.37773 16.8609 5.27998 16.6044C5.18129 16.3512 5.13039 16.0813 5.12998 15.8088C5.12733 15.536 5.17834 15.2655 5.27998 15.0132C5.37999 14.755 5.53349 14.5218 5.72998 14.3297L13.81 6.07752C14.0004 5.88337 14.2265 5.72939 14.4753 5.62437C14.7241 5.51936 14.9907 5.46537 15.26 5.46549H21C21.2725 5.46006 21.5434 5.51014 21.7968 5.6128C22.0501 5.71545 22.2809 5.86862 22.4755 6.06334C22.6701 6.25806 22.8247 6.49042 22.9302 6.74682C23.0357 7.00322 23.09 7.27852 23.09 7.55659Z" fill="#DFEFFF" stroke="#004181" stroke-width="1.4" stroke-linecap="round" stroke-linejoin="round"/>
</svg>
