<svg width="30" height="31" viewBox="0 0 30 31" fill="none" xmlns="http://www.w3.org/2000/svg">
<g clip-path="url(#clip0_3264_16626)">
<path d="M11.8201 20.7936V21.8536C11.8201 22.697 12.1551 23.5059 12.7515 24.1022C13.3478 24.6986 14.1567 25.0336 15.0001 25.0336C15.8435 25.0336 16.6523 24.6986 17.2487 24.1022C17.845 23.5059 18.1801 22.697 18.1801 21.8536V20.7936" fill="#DFEFFF"/>
<path d="M11.8201 20.7936V21.8536C11.8201 22.697 12.1551 23.5059 12.7515 24.1022C13.3478 24.6986 14.1567 25.0336 15.0001 25.0336C15.8435 25.0336 16.6523 24.6986 17.2487 24.1022C17.845 23.5059 18.1801 22.697 18.1801 21.8536V20.7936" stroke="#004181" stroke-width="1.2" stroke-linecap="round" stroke-linejoin="round"/>
<path d="M12.88 8.09363C12.88 7.53137 13.1034 6.99214 13.501 6.59457C13.8985 6.19699 14.4378 5.97363 15 5.97363C15.5623 5.97363 16.1015 6.19699 16.4991 6.59457C16.8967 6.99214 17.12 7.53137 17.12 8.09363C18.3354 8.66806 19.3713 9.56268 20.1165 10.6814C20.8618 11.8002 21.2882 13.1008 21.35 14.4436V17.6236C21.4305 18.2811 21.6643 18.9105 22.0325 19.4611C22.4008 20.0117 22.8931 20.4681 23.47 20.7936H6.53003C7.10692 20.4681 7.59931 20.0117 7.96753 19.4611C8.33576 18.9105 8.56953 18.2811 8.65003 17.6236V14.4436C8.71185 13.1008 9.13829 11.8002 9.88353 10.6814C10.6288 9.56268 11.6647 8.66806 12.88 8.09363" stroke="#004181" stroke-width="1.2" stroke-linecap="round" stroke-linejoin="round"/>
<path d="M7.06006 11.1336C7.84291 9.42044 8.98547 7.89589 10.4101 6.66364" stroke="#004181" stroke-width="1.2" stroke-linecap="round" stroke-linejoin="round"/>
<path d="M19.8799 6.66364C21.2986 7.90135 22.4401 9.42454 23.2299 11.1336" stroke="#004181" stroke-width="1.2" stroke-linecap="round" stroke-linejoin="round"/>
</g>
<defs>
<clipPath id="clip0_3264_16626">
<rect width="30" height="30" fill="white" transform="translate(0 0.503662)"/>
</clipPath>
</defs>
</svg>
