<svg width="30" height="32" viewBox="0 0 30 32" fill="none" xmlns="http://www.w3.org/2000/svg">
<path d="M21.2201 23.8976V27.6106C21.2082 27.8619 21.1056 28.0999 20.9321 28.2788C20.7586 28.4577 20.5264 28.5648 20.2801 28.5796H3.78008C3.53204 28.5672 3.29738 28.4612 3.12178 28.2821C2.94618 28.1029 2.8422 27.8636 2.83008 27.6106V4.65939C2.82976 4.39747 2.92822 4.14545 3.10508 3.95556C3.28193 3.76566 3.52362 3.65244 3.78008 3.63934H20.2801C20.5348 3.65496 20.774 3.76928 20.9487 3.95891C21.1235 4.14854 21.2205 4.39914 21.2201 4.65939V12.5546" fill="#DFEFFF"/>
<path d="M21.2201 23.8976V27.6106C21.2082 27.8619 21.1056 28.0999 20.9321 28.2788C20.7586 28.4577 20.5264 28.5648 20.2801 28.5796H3.78008C3.53204 28.5672 3.29738 28.4612 3.12178 28.2821C2.94618 28.1029 2.8422 27.8636 2.83008 27.6106V4.65939C2.82976 4.39747 2.92822 4.14545 3.10508 3.95556C3.28193 3.76566 3.52362 3.65244 3.78008 3.63934H20.2801C20.5348 3.65496 20.774 3.76928 20.9487 3.95891C21.1235 4.14854 21.2205 4.39914 21.2201 4.65939V12.5546" stroke="#004181" stroke-miterlimit="10" stroke-linecap="round"/>
<path d="M17.4101 5.7713H6.6001V7.47479H17.4101" stroke="#004181" stroke-linecap="round" stroke-linejoin="round"/>
<path d="M7.81006 9.71887H16.1901" stroke="#004181" stroke-linecap="round" stroke-linejoin="round"/>
<path d="M9.62012 12.7791H18.7101" stroke="#004181" stroke-linecap="round" stroke-linejoin="round"/>
<path d="M5.68994 15.2986H14.1699" stroke="#004181" stroke-linecap="round" stroke-linejoin="round"/>
<path d="M15.8401 15.2986H18.7101" stroke="#004181" stroke-linecap="round" stroke-linejoin="round"/>
<path d="M5.68994 17.3693H9.92994" stroke="#004181" stroke-linecap="round" stroke-linejoin="round"/>
<path d="M11.5601 17.3693H14.6101" stroke="#004181" stroke-linecap="round" stroke-linejoin="round"/>
<path d="M22.6799 11.6161L27.1099 14.3295L25.0199 17.9609" stroke="#004181" stroke-linecap="round" stroke-linejoin="round"/>
<path d="M12.8201 25.2032L13.9001 21.7861H14.7401L14.9601 24.1934L15.4501 24.2138L16.1701 23.2243L17.1901 24.9584L18.4501 23.3365" stroke="#004181" stroke-width="0.8" stroke-linecap="round" stroke-linejoin="round"/>
<path d="M6.28003 23.3672L7.51003 24.5912L9.38003 22.7347" stroke="#004181" stroke-width="0.8" stroke-linecap="round" stroke-linejoin="round"/>
<path d="M10.8101 23.7038C10.8172 24.4633 10.5628 25.2012 10.0913 25.789C9.61972 26.3768 8.96092 26.7772 8.22968 26.9204C7.49844 27.0636 6.74112 26.9405 6.08973 26.5726C5.43833 26.2046 4.93416 25.6152 4.66509 24.907C4.39602 24.1988 4.3791 23.4167 4.6173 22.6971C4.85549 21.9775 5.33368 21.366 5.96854 20.9691C6.60339 20.5722 7.35464 20.4152 8.09136 20.5253C8.82809 20.6355 9.50356 21.0058 10.0001 21.5719" stroke="#004181" stroke-width="0.8" stroke-miterlimit="10" stroke-linecap="round"/>
<path d="M19.6599 18.6953L21.9599 20.0724L26.9599 11.1368L24.7499 9.87189L19.6599 18.6953Z" stroke="#004181" stroke-linecap="round" stroke-linejoin="round"/>
<path d="M18.71 21.1332L20.46 22.1839L21.96 20.0724L19.66 18.6953L18.71 21.1332Z" stroke="#004181" stroke-linecap="round" stroke-linejoin="round"/>
<path d="M18.6801 23.0408C18.8609 23.1642 19.0798 23.2157 19.2954 23.1856C19.511 23.1556 19.7083 23.046 19.8501 22.8776L20.4501 22.1737L18.7001 21.1537L18.3501 21.9085C18.2636 22.1064 18.2493 22.3292 18.3099 22.5369C18.3704 22.7445 18.5017 22.9233 18.6801 23.0408Z" stroke="#004181" stroke-linecap="round" stroke-linejoin="round"/>
<path d="M25 10.0147L26.6 10.9328L27.04 10.1065C27.0977 10.001 27.1343 9.88478 27.1474 9.76467C27.1605 9.64457 27.15 9.523 27.1165 9.40709C27.083 9.29118 27.0271 9.18327 26.9521 9.08968C26.8772 8.99608 26.7847 8.9187 26.68 8.86206V8.86206C26.4743 8.75311 26.2356 8.72834 26.0126 8.79279C25.7896 8.85724 25.5991 9.00606 25.48 9.20888L25 10.0147Z" stroke="#004181" stroke-linecap="round" stroke-linejoin="round"/>
</svg>
