<svg width="20" height="20" viewBox="0 0 20 20" fill="none" xmlns="http://www.w3.org/2000/svg">
<path fill-rule="evenodd" clip-rule="evenodd" d="M11.6 5.15789V3.57895H8.4V5.15789H11.6ZM3.6 6.73684V15.4211H16.4V6.73684H3.6ZM16.4 5.15789C17.288 5.15789 18 5.86053 18 6.73684V15.4211C18 16.2974 17.288 17 16.4 17H3.6C2.712 17 2 16.2974 2 15.4211L2.008 6.73684C2.008 5.86053 2.712 5.15789 3.6 5.15789H6.8V3.57895C6.8 2.70263 7.512 2 8.4 2H11.6C12.488 2 13.2 2.70263 13.2 3.57895V5.15789H16.4Z" fill="#586888"/>
</svg>
