<svg width="20" height="20" viewBox="0 0 20 20" fill="none" xmlns="http://www.w3.org/2000/svg">
<path d="M15.7331 10.6993V5.62406C15.7332 5.56881 15.7223 5.51409 15.7012 5.46305C15.68 5.412 15.649 5.36563 15.6099 5.32658L13.4066 3.12319C13.3279 3.04441 13.2211 3.0001 13.1098 3H4.95414C4.84276 3 4.73594 3.04425 4.65718 3.123C4.57843 3.20176 4.53418 3.30858 4.53418 3.41996V16.5787C4.53418 16.6901 4.57843 16.7969 4.65718 16.8757C4.73594 16.9545 4.84276 16.9987 4.95414 16.9987H11.5335" stroke="#586888" stroke-width="1.4" stroke-linecap="round" stroke-linejoin="round"/>
<path d="M12.9336 3V5.37978C12.9336 5.49116 12.9778 5.59798 13.0566 5.67674C13.1354 5.75549 13.2422 5.79974 13.3536 5.79974H15.7333M12.9336 14.8989H17.1332M17.1332 14.8989L15.0334 12.7991M17.1332 14.8989L15.0334 16.9987" stroke="#586888" stroke-width="1.4" stroke-linecap="round" stroke-linejoin="round"/>
</svg>
