<svg width="20" height="20" viewBox="0 0 20 20" fill="none" xmlns="http://www.w3.org/2000/svg">
<path d="M14.8958 3.54167H10.5C10.3653 3.17678 10.1915 2.82753 9.98167 2.5H14.8958C15.5865 2.5 16.2489 2.77437 16.7373 3.26274C17.2256 3.75112 17.5 4.4135 17.5 5.10417V10.8038C17.5001 11.1458 17.4328 11.4844 17.3019 11.8004C17.1711 12.1164 16.9793 12.4035 16.7375 12.6454L12.645 16.7371C12.4032 16.979 12.1161 17.1708 11.8001 17.3017C11.4841 17.4326 11.1454 17.5 10.8033 17.5H5.10417C4.4135 17.5 3.75112 17.2256 3.26274 16.7373C2.77437 16.2489 2.5 15.5865 2.5 14.8958V9.98167C2.825 10.19 3.17417 10.3646 3.54167 10.5V14.8958C3.54167 15.3102 3.70629 15.7077 3.99931 16.0007C4.29234 16.2937 4.68977 16.4583 5.10417 16.4583H10.8333V13.4375C10.8333 12.7468 11.1077 12.0845 11.5961 11.5961C12.0845 11.1077 12.7468 10.8333 13.4375 10.8333H16.4583V5.10417C16.4583 4.68977 16.2937 4.29234 16.0007 3.99931C15.7077 3.70629 15.3102 3.54167 14.8958 3.54167ZM11.875 16.0333L11.9083 16.0008L16.0008 11.9087L16.0333 11.875H13.4375C13.0231 11.875 12.6257 12.0396 12.3326 12.3326C12.0396 12.6257 11.875 13.0231 11.875 13.4375V16.0333Z" fill="#0053A5"/>
<path d="M7.91634 5.05273H6.19759V3.33398H5.05176V5.05273H3.33301V6.19857H5.05176V7.91732H6.19759V6.19857H7.91634V5.05273Z" fill="#0053A5"/>
<path d="M5.625 10C3.21875 10 1.25 8.03125 1.25 5.625C1.25 3.21875 3.21875 1.25 5.625 1.25C8.03125 1.25 10 3.21875 10 5.625C10 8.03125 8.03125 10 5.625 10ZM5.625 2.34375C3.82031 2.34375 2.34375 3.82031 2.34375 5.625C2.34375 7.42969 3.82031 8.90625 5.625 8.90625C7.42969 8.90625 8.90625 7.42969 8.90625 5.625C8.90625 3.82031 7.42969 2.34375 5.625 2.34375Z" fill="#0053A5"/>
</svg>
