<svg width="20" height="20" viewBox="0 0 20 20" fill="none" xmlns="http://www.w3.org/2000/svg">
<path d="M12.183 16.7745C12.0323 16.9253 11.8533 17.0449 11.6564 17.1265C11.4594 17.2081 11.2483 17.2501 11.0351 17.2501C10.8219 17.2501 10.6108 17.2081 10.4139 17.1265C10.2169 17.0449 10.038 16.9253 9.88725 16.7745L3.4755 10.3628C3.17111 10.0584 3.00007 9.64567 3 9.21525V4.62225C3 3.7275 3.7275 3 4.623 3H9.21525C9.645 3 10.0583 3.171 10.3628 3.4755L16.7745 9.88725C16.9253 10.038 17.0449 10.2169 17.1265 10.4139C17.2081 10.6108 17.2501 10.8219 17.2501 11.0351C17.2501 11.2483 17.2081 11.4594 17.1265 11.6564C17.0449 11.8533 16.9253 12.0323 16.7745 12.183L12.183 16.7745Z" stroke="#0053A5" stroke-width="1.5" stroke-linecap="round" stroke-linejoin="round"/>
<path d="M5.625 5.625L6 6" stroke="#0053A5" stroke-width="1.5" stroke-linecap="round"/>
</svg>
