<svg width="20" height="20" viewBox="0 0 20 20" fill="none" xmlns="http://www.w3.org/2000/svg">
<path d="M17.3581 2C17.2821 2 17.2041 2.014 17.1261 2.04599L5.59955 6.67742H2.31996C2.14398 6.67742 2 6.8254 2 7.00937V12.9886C2 13.1726 2.14398 13.3206 2.31996 13.3206H4.35371C4.27972 13.5526 4.23972 13.7985 4.23972 14.0485C4.23972 15.3663 5.31559 16.4382 6.63942 16.4382C7.74728 16.4382 8.68117 15.6863 8.95713 14.6704L17.1281 17.954C17.2061 17.984 17.2841 18 17.3601 18C17.698 18 18 17.716 18 17.3361V2.66392C17.998 2.28396 17.698 2 17.3581 2ZM6.63942 15.0044C6.10949 15.0044 5.67954 14.5764 5.67954 14.0485C5.67954 13.8245 5.75753 13.6105 5.89951 13.4406L7.5973 14.1225C7.55731 14.6144 7.14336 15.0044 6.63942 15.0044ZM16.5582 16.1722L6.13548 11.9848L5.87752 11.8808H3.43982V8.11724H5.87752L6.13548 8.01325L16.5582 3.82577V16.1722Z" fill="#0053A5"/>
</svg>
