<svg width="20" height="20" viewBox="0 0 20 20" fill="none" xmlns="http://www.w3.org/2000/svg">
<path fill-rule="evenodd" clip-rule="evenodd" d="M5.00016 7.91659C3.84957 7.91659 2.91683 8.84933 2.91683 9.99992C2.91683 11.1505 3.84957 12.0833 5.00016 12.0833C6.15076 12.0833 7.0835 11.1505 7.0835 9.99992C7.0835 8.84933 6.15076 7.91659 5.00016 7.91659ZM2.0835 9.99992C2.0835 8.38909 3.38933 7.08325 5.00016 7.08325C6.61099 7.08325 7.91683 8.38909 7.91683 9.99992C7.91683 11.6107 6.61099 12.9166 5.00016 12.9166C3.38933 12.9166 2.0835 11.6107 2.0835 9.99992Z" fill="#0053A5" stroke="#0053A5" stroke-width="0.4"/>
<path fill-rule="evenodd" clip-rule="evenodd" d="M15.0002 2.91659C13.8496 2.91659 12.9168 3.84933 12.9168 4.99992C12.9168 6.15051 13.8496 7.08325 15.0002 7.08325C16.1508 7.08325 17.0835 6.15051 17.0835 4.99992C17.0835 3.84933 16.1508 2.91659 15.0002 2.91659ZM12.0835 4.99992C12.0835 3.38909 13.3893 2.08325 15.0002 2.08325C16.611 2.08325 17.9168 3.38909 17.9168 4.99992C17.9168 6.61075 16.611 7.91658 15.0002 7.91658C13.3893 7.91658 12.0835 6.61075 12.0835 4.99992Z" fill="#0053A5" stroke="#0053A5" stroke-width="0.4"/>
<path fill-rule="evenodd" clip-rule="evenodd" d="M15.0002 12.9166C13.8496 12.9166 12.9168 13.8493 12.9168 14.9999C12.9168 16.1505 13.8496 17.0833 15.0002 17.0833C16.1508 17.0833 17.0835 16.1505 17.0835 14.9999C17.0835 13.8493 16.1508 12.9166 15.0002 12.9166ZM12.0835 14.9999C12.0835 13.3891 13.3893 12.0833 15.0002 12.0833C16.611 12.0833 17.9168 13.3891 17.9168 14.9999C17.9168 16.6107 16.611 17.9166 15.0002 17.9166C13.3893 17.9166 12.0835 16.6107 12.0835 14.9999Z" fill="#0053A5" stroke="#0053A5" stroke-width="0.4"/>
<path fill-rule="evenodd" clip-rule="evenodd" d="M12.6975 6.20003L7.28083 9.1167L6.88574 8.38298L12.3024 5.46631L12.6975 6.20003Z" fill="#0053A5" stroke="#0053A5" stroke-width="0.4" stroke-linejoin="round"/>
<path fill-rule="evenodd" clip-rule="evenodd" d="M12.3024 14.5334L6.88574 11.6168L7.28083 10.8831L12.6975 13.7997L12.3024 14.5334Z" fill="#0053A5" stroke="#0053A5" stroke-width="0.4" stroke-linejoin="round"/>
</svg>
