<svg width="20" height="20" viewBox="0 0 20 20" fill="none" xmlns="http://www.w3.org/2000/svg">
<path d="M14.3333 7C12.3067 7 10.6667 8.56545 10.6667 10.5C10.6667 11.3464 10.98 12.1227 11.5067 12.7273H8.49333C9.02 12.1227 9.33333 11.3464 9.33333 10.5C9.33333 8.56545 7.69333 7 5.66667 7C3.64 7 2 8.56545 2 10.5C2 12.4345 3.64 14 5.66667 14H14.3333C16.36 14 18 12.4345 18 10.5C18 8.56545 16.36 7 14.3333 7ZM5.66667 12.7273C4.38 12.7273 3.33333 11.7282 3.33333 10.5C3.33333 9.27182 4.38 8.27273 5.66667 8.27273C6.95333 8.27273 8 9.27182 8 10.5C8 11.7282 6.95333 12.7273 5.66667 12.7273ZM14.3333 12.7273C13.0467 12.7273 12 11.7282 12 10.5C12 9.27182 13.0467 8.27273 14.3333 8.27273C15.62 8.27273 16.6667 9.27182 16.6667 10.5C16.6667 11.7282 15.62 12.7273 14.3333 12.7273Z" fill="#0053A5"/>
</svg>
