<svg width="30" height="31" viewBox="0 0 30 31" fill="none" xmlns="http://www.w3.org/2000/svg">
<path d="M19.5799 16.8839C19.2938 16.5918 18.954 16.3604 18.5798 16.2028C18.2057 16.0452 17.8047 15.9647 17.3999 15.9658H11.2499C10.8459 15.9658 10.4459 16.0472 10.0728 16.2052C9.69967 16.3632 9.36079 16.5948 9.07559 16.8866C8.79038 17.1785 8.56445 17.5249 8.41076 17.9061C8.25707 18.2872 8.17863 18.6955 8.17995 19.1076V20.6683" stroke="#004181" stroke-width="1.2" stroke-linecap="round" stroke-linejoin="round"/>
<path d="M14.33 12.824C14.9396 12.824 15.5355 12.6395 16.0422 12.2938C16.5489 11.9482 16.9437 11.4569 17.1765 10.8822C17.4093 10.3075 17.4697 9.67532 17.3501 9.0656C17.2304 8.45588 16.9361 7.89609 16.5043 7.45712C16.0726 7.01815 15.5229 6.71973 14.9247 6.59966C14.3266 6.47959 13.707 6.54326 13.1444 6.78262C12.5818 7.02198 12.1015 7.42625 11.7642 7.94425C11.427 8.46225 11.248 9.07068 11.25 9.69249C11.2487 10.105 11.3275 10.5136 11.482 10.8948C11.6364 11.2761 11.8634 11.6223 12.1498 11.9135C12.4362 12.2047 12.7763 12.4351 13.1505 12.5914C13.5248 12.7477 13.9256 12.8267 14.33 12.824Z" fill="#DFEFFF" stroke="#004181" stroke-width="1.2" stroke-linecap="round" stroke-linejoin="round"/>
<path d="M6.1001 18.3834V21.2599L12.3601 27.4516H23.9001V3.56201H6.1001V5.71432V18.3834Z" stroke="#004181" stroke-width="1.2" stroke-linecap="round" stroke-linejoin="round"/>
<path d="M7 21.6272H12V26.7275" fill="#DFEFFF"/>
<path d="M7 21.6272H12V26.7275" stroke="#004181" stroke-width="1.2" stroke-linecap="round" stroke-linejoin="round"/>
<path d="M20.68 19.1995L15.51 24.5241" stroke="#004181" stroke-width="1.2" stroke-miterlimit="10" stroke-linecap="round"/>
<path d="M15.48 19.2198L20.71 24.4935" stroke="#004181" stroke-width="1.2" stroke-miterlimit="10" stroke-linecap="round"/>
</svg>
