<svg width="30" height="31" viewBox="0 0 30 31" fill="none" xmlns="http://www.w3.org/2000/svg">
<path d="M8.12009 5.52014H5.34009V27.7267H21.8901V25.2989" fill="#DFEFFF"/>
<path d="M8.12009 5.52014H5.34009V27.7267H21.8901V25.2989" stroke="#004181" stroke-width="1.2" stroke-linecap="round" stroke-linejoin="round"/>
<path d="M24.6601 11.5282V8.8455L18.8401 3.09241H8.12012V25.2989H24.6601V23.2996" fill="white"/>
<path d="M24.6601 11.5282V8.8455L18.8401 3.09241H8.12012V25.2989H24.6601V23.2996" stroke="#004181" stroke-width="1.2" stroke-linecap="round" stroke-linejoin="round"/>
<path d="M24.6201 8.89658H19.0701V3.4801" stroke="#004181" stroke-width="1.2" stroke-linecap="round" stroke-linejoin="round"/>
<path d="M15.46 14.7108H23.74" stroke="#004181" stroke-width="1.2" stroke-linecap="round" stroke-linejoin="round"/>
<path d="M15.1899 20.8413H21.3199" stroke="#004181" stroke-width="1.2" stroke-linecap="round" stroke-linejoin="round"/>
<path d="M15.1899 17.5771H21.3199" stroke="#004181" stroke-width="1.2" stroke-linecap="round" stroke-linejoin="round"/>
<path d="M10.1799 17.5771H11.5499" stroke="#004181" stroke-width="1.2" stroke-linecap="round" stroke-linejoin="round"/>
<path d="M10.1799 20.8413H11.5499" stroke="#004181" stroke-width="1.2" stroke-linecap="round" stroke-linejoin="round"/>
<path d="M10.1799 14.7108H11.5499" stroke="#004181" stroke-width="1.2" stroke-linecap="round" stroke-linejoin="round"/>
<path d="M15.46 11.8037H21.32" stroke="#004181" stroke-width="1.2" stroke-linecap="round" stroke-linejoin="round"/>
<path d="M10.1799 11.8037H11.5499" stroke="#004181" stroke-width="1.2" stroke-linecap="round" stroke-linejoin="round"/>
<path d="M13.08 6.59119H10.52V9.20252H13.08V6.59119Z" fill="#DFEFFF" stroke="#004181" stroke-linecap="round" stroke-linejoin="round"/>
</svg>
