<svg width="30" height="31" viewBox="0 0 30 31" fill="none" xmlns="http://www.w3.org/2000/svg">
<path d="M21 25.4852H3.99996C3.76011 25.4852 3.52262 25.4369 3.30116 25.3429C3.07969 25.249 2.87861 25.1113 2.70948 24.9379C2.54034 24.7644 2.40649 24.5585 2.31562 24.3321C2.22474 24.1057 2.17864 23.8632 2.17996 23.6185V15.3153" stroke="#004181" stroke-width="0.8" stroke-linecap="round" stroke-linejoin="round"/>
<path d="M27.7601 23.2616V23.6186C27.7614 23.8633 27.7153 24.1058 27.6244 24.3322C27.5336 24.5586 27.3997 24.7645 27.2306 24.938C27.0614 25.1114 26.8604 25.2491 26.6389 25.343C26.4174 25.437 26.1799 25.4853 25.9401 25.4853H22.8501" stroke="#004181" stroke-width="0.8" stroke-linecap="round" stroke-linejoin="round"/>
<path d="M24.9399 5.8595H25.9399C26.1798 5.85949 26.4173 5.90785 26.6387 6.00178C26.8602 6.09572 27.0613 6.23338 27.2304 6.40685C27.3996 6.58033 27.5334 6.78619 27.6243 7.01261C27.7152 7.23903 27.7613 7.48154 27.7599 7.72619V11.8064" stroke="#004181" stroke-width="0.8" stroke-linecap="round" stroke-linejoin="round"/>
<path d="M2.24002 13.7547V7.72619C2.2387 7.48154 2.2848 7.23903 2.37568 7.01261C2.46655 6.78619 2.6004 6.58033 2.76953 6.40685C2.93867 6.23338 3.13975 6.09572 3.36122 6.00178C3.58268 5.90785 3.82017 5.85949 4.06002 5.8595H23" stroke="#004181" stroke-width="0.8" stroke-linecap="round" stroke-linejoin="round"/>
<path d="M2.6499 10.2457H27.5299" stroke="#004181" stroke-width="0.8" stroke-linecap="round" stroke-linejoin="round"/>
<path d="M5.79006 8.44017C5.91708 8.44017 6.02006 8.33513 6.02006 8.20556C6.02006 8.07599 5.91708 7.97095 5.79006 7.97095C5.66303 7.97095 5.56006 8.07599 5.56006 8.20556C5.56006 8.33513 5.66303 8.44017 5.79006 8.44017Z" stroke="#004181" stroke-width="0.5" stroke-linecap="round" stroke-linejoin="round"/>
<path d="M8.35012 8.44017C8.47714 8.44017 8.58012 8.33513 8.58012 8.20556C8.58012 8.07599 8.47714 7.97095 8.35012 7.97095C8.22309 7.97095 8.12012 8.07599 8.12012 8.20556C8.12012 8.33513 8.22309 8.44017 8.35012 8.44017Z" stroke="#004181" stroke-width="0.5" stroke-linecap="round" stroke-linejoin="round"/>
<path d="M10.9099 8.44017C11.037 8.44017 11.1399 8.33513 11.1399 8.20556C11.1399 8.07599 11.037 7.97095 10.9099 7.97095C10.7829 7.97095 10.6799 8.07599 10.6799 8.20556C10.6799 8.33513 10.7829 8.44017 10.9099 8.44017Z" stroke="#004181" stroke-width="0.5" stroke-linecap="round" stroke-linejoin="round"/>
<path d="M25.5299 12.7142H5.68989C5.38614 12.7142 5.13989 12.9654 5.13989 13.2753V16.978C5.13989 17.2879 5.38614 17.5391 5.68989 17.5391H25.5299C25.8337 17.5391 26.0799 17.2879 26.0799 16.978V13.2753C26.0799 12.9654 25.8337 12.7142 25.5299 12.7142Z" fill="#DFEFFF" stroke="#004181" stroke-width="0.75" stroke-linecap="round" stroke-linejoin="round"/>
<path d="M5.13989 19.7322H14.1499" stroke="#004181" stroke-width="0.75" stroke-linecap="round" stroke-linejoin="round"/>
<path d="M4.93994 21.1194H9.20994" stroke="#004181" stroke-width="0.75" stroke-linecap="round" stroke-linejoin="round"/>
<path d="M11.6899 21.1194H13.9499" stroke="#004181" stroke-width="0.75" stroke-linecap="round" stroke-linejoin="round"/>
<path d="M5.13989 22.5168H7.64989" stroke="#004181" stroke-width="0.75" stroke-linecap="round" stroke-linejoin="round"/>
<path d="M9.63989 22.5168H12.2299" stroke="#004181" stroke-width="0.75" stroke-linecap="round" stroke-linejoin="round"/>
<path d="M17.0601 22.5168H21.2901" stroke="#004181" stroke-width="0.75" stroke-linecap="round" stroke-linejoin="round"/>
<path d="M23.4099 22.5168H24.2999" stroke="#004181" stroke-width="0.75" stroke-linecap="round" stroke-linejoin="round"/>
<path d="M21.6899 21.1194H26.0699" stroke="#004181" stroke-width="0.75" stroke-linecap="round" stroke-linejoin="round"/>
<path d="M23.4099 19.7322H26.0699" stroke="#004181" stroke-width="0.75" stroke-linecap="round" stroke-linejoin="round"/>
<path d="M17.0601 19.7322H21.2901" stroke="#004181" stroke-width="0.75" stroke-linecap="round" stroke-linejoin="round"/>
<path d="M17.0601 21.1194H19.5201" stroke="#004181" stroke-width="0.75" stroke-linecap="round" stroke-linejoin="round"/>
</svg>
