<svg width="30" height="31" viewBox="0 0 30 31" fill="none" xmlns="http://www.w3.org/2000/svg">
<path d="M22.6201 17.959L22.8501 17.7346" stroke="#004181" stroke-width="0.9" stroke-linecap="round"/>
<path d="M24.41 17.1225V19.9175C24.4089 20.1801 24.3086 20.4322 24.13 20.6213L20.3 24.5383C20.2063 24.6281 20.098 24.7006 19.98 24.7525C19.7424 24.8491 19.4776 24.8491 19.24 24.7525C19.1208 24.7028 19.0121 24.6301 18.92 24.5383L16.17 21.7332C16.083 21.6368 16.0121 21.5265 15.96 21.4068C15.9166 21.2892 15.893 21.1651 15.89 21.0395C15.885 20.9853 15.885 20.9306 15.89 20.8763C15.89 20.8049 15.89 20.7335 15.95 20.6519C16.0022 20.5353 16.0732 20.4285 16.16 20.3357L20 16.4595C20.1837 16.2735 20.4311 16.1675 20.69 16.1637H23.56C23.7884 16.1988 23.9979 16.3134 24.1529 16.4882C24.3078 16.663 24.3987 16.8872 24.41 17.1225V17.1225Z" stroke="#004181" stroke-width="0.9" stroke-linecap="round" stroke-linejoin="round"/>
<path d="M23.5701 15.674V16.133H20.7001C20.5681 16.1376 20.4382 16.1688 20.3181 16.2248C20.1979 16.2808 20.0899 16.3606 20.0001 16.4595L16.1701 20.3357C16.0833 20.4284 16.0124 20.5353 15.9601 20.6519C15.9601 20.7335 15.9101 20.8049 15.9001 20.8763L15.3301 20.2949C15.2367 20.2037 15.1649 20.0921 15.1201 19.9684C15.0677 19.8498 15.0405 19.7212 15.0405 19.591C15.0405 19.4609 15.0677 19.3322 15.1201 19.2136C15.1649 19.0899 15.2367 18.9783 15.3301 18.8872L19.1601 14.9804C19.3439 14.7944 19.5912 14.6883 19.8501 14.6846H22.6001C22.855 14.6923 23.0973 14.799 23.2776 14.9829C23.4579 15.1668 23.5626 15.414 23.5701 15.674Z" fill="#DFEFFF" stroke="#004181" stroke-width="0.9" stroke-linecap="round" stroke-linejoin="round"/>
<path d="M18.3801 9.49257C18.3792 10.0133 18.2626 10.527 18.0392 10.9951C17.8158 11.4633 17.4913 11.8737 17.0901 12.1957C16.8646 12.3817 16.6158 12.5361 16.3501 12.6547C15.9211 12.8452 15.458 12.9425 14.9901 12.9403C14.5301 12.9387 14.0748 12.8452 13.6501 12.6649C13.4033 12.5465 13.1687 12.4029 12.9501 12.2365C12.4931 11.8809 12.1325 11.4122 11.9025 10.8748C11.6725 10.3374 11.5806 9.74899 11.6356 9.16529C11.6907 8.58159 11.8907 8.02185 12.2169 7.53899C12.5431 7.05613 12.9846 6.66611 13.4997 6.40581C14.0148 6.1455 14.5865 6.02352 15.1607 6.05138C15.7349 6.07924 16.2927 6.25604 16.7813 6.56505C17.2698 6.87406 17.6731 7.30507 17.9528 7.81733C18.2326 8.32959 18.3797 8.90618 18.3801 9.49257Z" fill="#DFEFFF" stroke="#004181" stroke-miterlimit="10"/>
<path d="M13.1999 20.0093H9.37988V16.8063C9.38498 15.7385 9.7462 14.7043 10.4041 13.8737C11.062 13.0432 11.9775 12.4658 12.9999 12.2365C13.2185 12.4029 13.453 12.5464 13.6999 12.6649C14.1246 12.8451 14.5799 12.9387 15.0399 12.9403C15.5077 12.9424 15.9709 12.8452 16.3999 12.6547C16.6655 12.5361 16.9144 12.3817 17.1399 12.1957C17.7889 12.3332 18.4002 12.6154 18.9299 13.0219" stroke="#004181" stroke-linecap="round" stroke-linejoin="round"/>
<path d="M8.89996 10.7167C8.83073 10.796 8.75366 10.8678 8.66996 10.9309C8.48682 11.0746 8.28901 11.1977 8.07996 11.2981C7.64234 11.4972 7.15983 11.5711 6.68419 11.5118C6.20854 11.4525 5.75768 11.2623 5.37996 10.9615C5.06896 10.7359 4.80877 10.4452 4.61679 10.1088C4.42481 9.77242 4.30547 9.39809 4.26676 9.01085C4.22804 8.62361 4.27085 8.2324 4.3923 7.8634C4.51375 7.49439 4.71106 7.1561 4.97102 6.87115C5.23098 6.5862 5.5476 6.36116 5.89969 6.21109C6.25179 6.06103 6.63124 5.98939 7.01267 6.00097C7.39409 6.01255 7.7687 6.10708 8.11142 6.27825C8.45414 6.44941 8.75707 6.69326 8.99996 6.99348" fill="#DFEFFF"/>
<path d="M8.89996 10.7167C8.83073 10.796 8.75366 10.8678 8.66996 10.9309C8.48682 11.0746 8.28901 11.1977 8.07996 11.2981C7.64234 11.4972 7.15983 11.5711 6.68419 11.5118C6.20854 11.4525 5.75768 11.2623 5.37996 10.9615C5.06896 10.7359 4.80877 10.4452 4.61679 10.1088C4.42481 9.77242 4.30547 9.39809 4.26676 9.01085C4.22804 8.62361 4.27085 8.2324 4.3923 7.8634C4.51375 7.49439 4.71106 7.1561 4.97102 6.87115C5.23098 6.5862 5.5476 6.36116 5.89969 6.21109C6.25179 6.06103 6.63124 5.98939 7.01267 6.00097C7.39409 6.01255 7.7687 6.10708 8.11142 6.27825C8.45414 6.44941 8.75707 6.69326 8.99996 6.99348" stroke="#004181" stroke-miterlimit="10" stroke-linecap="round"/>
<path d="M8.67005 10.9308C8.48691 11.0745 8.2891 11.1976 8.08005 11.298C7.73721 11.4418 7.37073 11.518 7.00005 11.5224C6.63272 11.5169 6.2697 11.4408 5.93005 11.298C5.73336 11.2103 5.54852 11.0971 5.38005 10.9614C4.57238 11.147 3.85087 11.6079 3.33456 12.2681C2.81825 12.9283 2.538 13.7483 2.54005 14.5928V17.1327H9.38005V16.8063C9.3785 16.0826 9.54215 15.3685 9.85804 14.7205C10.1739 14.0725 10.6334 13.5084 11.2001 13.0729" stroke="#004181" stroke-linecap="round" stroke-linejoin="round"/>
<path d="M21 7.00361C21.243 6.71271 21.5432 6.47704 21.881 6.3118C22.2189 6.14655 22.587 6.05541 22.9615 6.04426C23.336 6.0331 23.7087 6.10218 24.0554 6.24703C24.4022 6.39189 24.7153 6.6093 24.9746 6.88523C25.2338 7.16116 25.4335 7.48948 25.5606 7.849C25.6878 8.20852 25.7397 8.59124 25.7129 8.97246C25.686 9.35369 25.5812 9.72494 25.405 10.0623C25.2288 10.3996 24.9852 10.6955 24.69 10.9308C24.2208 11.3187 23.6339 11.5279 23.03 11.5224C22.6625 11.519 22.2991 11.4428 21.96 11.298C21.7602 11.2103 21.572 11.0972 21.4 10.9614C21.3051 10.8856 21.2149 10.8038 21.13 10.7166" fill="#DFEFFF"/>
<path d="M21 7.00361C21.243 6.71271 21.5432 6.47704 21.881 6.3118C22.2189 6.14655 22.587 6.05541 22.9615 6.04426C23.336 6.0331 23.7087 6.10218 24.0554 6.24703C24.4022 6.39189 24.7153 6.6093 24.9746 6.88523C25.2338 7.16116 25.4335 7.48948 25.5606 7.849C25.6878 8.20852 25.7397 8.59124 25.7129 8.97246C25.686 9.35369 25.5812 9.72494 25.405 10.0623C25.2288 10.3996 24.9852 10.6955 24.69 10.9308C24.2208 11.3187 23.6339 11.5279 23.03 11.5224C22.6625 11.519 22.2991 11.4428 21.96 11.298C21.7602 11.2103 21.572 11.0972 21.4 10.9614C21.3051 10.8856 21.2149 10.8038 21.13 10.7166" stroke="#004181" stroke-miterlimit="10" stroke-linecap="round"/>
<path d="M21.3701 10.9614C21.5421 11.0972 21.7303 11.2103 21.9301 11.298C22.2692 11.4427 22.6326 11.5189 23.0001 11.5224C23.604 11.5278 24.1909 11.3187 24.6601 10.9308C25.449 11.095 26.1582 11.5317 26.6683 12.1672C27.1783 12.8027 27.458 13.5981 27.4601 14.4194V17.1225H26.2401" stroke="#004181" stroke-linecap="round" stroke-linejoin="round"/>
</svg>
