<svg width="30" height="31" viewBox="0 0 30 31" fill="none" xmlns="http://www.w3.org/2000/svg">
<g clip-path="url(#clip0_3264_16607)">
<path d="M6.17006 7.24516L8.35006 7.52516L6.80006 9.07516L7.20006 11.2352L5.24006 10.2452L3.31006 11.2952L3.66006 9.12516L2.06006 7.61516L4.23006 7.26516L5.18006 5.28516L6.17006 7.24516Z" fill="#DFEFFF" stroke="#004181" stroke-width="0.75" stroke-linecap="round" stroke-linejoin="round"/>
<path d="M6.17006 14.8351L8.35006 15.1251L6.80006 16.6751L7.20006 18.8351L5.24006 17.8351L3.31006 18.8851L3.66006 16.7151L2.06006 15.2051L4.23006 14.8651L5.18006 12.8851L6.17006 14.8351Z" fill="#DFEFFF" stroke="#004181" stroke-width="0.75" stroke-linecap="round" stroke-linejoin="round"/>
<path d="M6.17006 22.1751L8.35006 22.4651L6.80006 24.0151L7.20006 26.1751L5.24006 25.1751L3.31006 26.2251L3.66006 24.0551L2.06006 22.5451L4.23006 22.2051L5.18006 20.2151L6.17006 22.1751Z" fill="#DFEFFF" stroke="#004181" stroke-width="0.75" stroke-linecap="round" stroke-linejoin="round"/>
<path d="M26.1699 6.74512H27.9399V10.1051H11.1699V6.74512H24.5999" stroke="#004181" stroke-width="0.75" stroke-linecap="round" stroke-linejoin="round"/>
<path d="M13.6799 8.42517H24.6299" stroke="#004181" stroke-width="0.75" stroke-linecap="round" stroke-linejoin="round"/>
<path d="M13.49 15.8851H21.06" stroke="#004181" stroke-width="0.75" stroke-linecap="round" stroke-linejoin="round"/>
<path d="M13.3401 23.2251H16.1901" stroke="#004181" stroke-width="0.75" stroke-linecap="round" stroke-linejoin="round"/>
<path d="M13.8799 21.5851H17.9999C18.1246 21.5851 18.2441 21.6346 18.3323 21.7227C18.4204 21.8109 18.4699 21.9304 18.4699 22.0551V24.4351C18.4699 24.5607 18.4207 24.6813 18.3329 24.771C18.245 24.8607 18.1255 24.9125 17.9999 24.9151H11.6299C11.5043 24.9125 11.3848 24.8607 11.2969 24.771C11.2091 24.6813 11.1599 24.5607 11.1599 24.4351V22.0551C11.1599 21.9304 11.2094 21.8109 11.2976 21.7227C11.3857 21.6346 11.5053 21.5851 11.6299 21.5851H12.8299" stroke="#004181" stroke-width="0.75" stroke-linecap="round" stroke-linejoin="round"/>
<path d="M20.8099 17.5052H11.6299C11.5053 17.5052 11.3857 17.4557 11.2976 17.3675C11.2094 17.2794 11.1599 17.1598 11.1599 17.0352V14.6552C11.1599 14.5305 11.2094 14.411 11.2976 14.3228C11.3857 14.2347 11.5053 14.1852 11.6299 14.1852H23.2399C23.3655 14.1852 23.4861 14.2343 23.5758 14.3222C23.6656 14.4101 23.7173 14.5296 23.7199 14.6552V17.0352C23.7173 17.1607 23.6656 17.2803 23.5758 17.3681C23.4861 17.456 23.3655 17.5052 23.2399 17.5052H22.2399" stroke="#004181" stroke-width="0.75" stroke-linecap="round" stroke-linejoin="round"/>
</g>
<defs>
<clipPath id="clip0_3264_16607">
<rect width="30" height="30" fill="white" transform="translate(0 0.755127)"/>
</clipPath>
</defs>
</svg>
