<svg width="30" height="32" viewBox="0 0 30 32" fill="none" xmlns="http://www.w3.org/2000/svg">
<path d="M14.91 7.22099V12.107C14.91 12.4614 14.772 12.8013 14.5263 13.0519C14.2806 13.3025 13.9474 13.4433 13.6 13.4433H3.27C2.92955 13.4327 2.60653 13.2872 2.36944 13.0378C2.13235 12.7883 1.99984 12.4545 2 12.107V4.33425C2.00243 3.98857 2.13609 3.65731 2.37291 3.41003C2.60972 3.16276 2.93127 3.01873 3.27 3.00818H13.6C13.9457 3.00817 14.2774 3.14755 14.5228 3.39595C14.7682 3.64435 14.9074 3.98162 14.91 4.33425V5.70112" stroke="#004181" stroke-linecap="round" stroke-linejoin="round"/>
<path d="M8.4299 15.2283V13.4432H6.1499L8.4299 15.2283Z" stroke="#004181" stroke-linecap="round" stroke-linejoin="round"/>
<path d="M11.39 9.72001V10.6279C11.394 10.7157 11.3768 10.8033 11.34 10.8829C11.3062 10.9592 11.2587 11.0283 11.2 11.0869C11.1378 11.1242 11.0703 11.1517 11 11.1685C10.9179 11.1892 10.8321 11.1892 10.75 11.1685C9.8707 11.0651 9.02466 10.7646 8.2726 10.2885C7.52053 9.81229 6.88106 9.17229 6.40004 8.41434C5.90224 7.6493 5.58714 6.77591 5.48004 5.86421C5.46466 5.78336 5.46466 5.70025 5.48004 5.6194C5.5075 5.53916 5.55188 5.46604 5.61004 5.40519C5.66293 5.33773 5.73175 5.28508 5.81004 5.25218C5.88932 5.23674 5.97076 5.23674 6.05004 5.25218H7.00004C7.07175 5.24998 7.14317 5.26237 7.21014 5.28864C7.2771 5.31492 7.33826 5.35453 7.39004 5.40519C7.50223 5.49682 7.57706 5.62769 7.60004 5.77241C7.63106 6.06547 7.69825 6.35337 7.80004 6.62925C7.83036 6.73932 7.83036 6.85579 7.80004 6.96587C7.77717 7.07867 7.72139 7.18179 7.64004 7.26168L7.26004 7.6493C7.67701 8.38401 8.27738 8.9929 9.00004 9.41399L9.38004 9.03657C9.45836 8.95359 9.55945 8.89669 9.67004 8.87336C9.77724 8.83754 9.89284 8.83754 10 8.87336C10.2716 8.97556 10.5533 9.04738 10.84 9.08757C10.9849 9.10541 11.1179 9.17833 11.2125 9.29177C11.307 9.40522 11.3561 9.55085 11.35 9.6996L11.39 9.72001Z" fill="#DFEFFF" stroke="#004181" stroke-width="0.75" stroke-linecap="round" stroke-linejoin="round"/>
<path d="M2.91992 17.1155H7.89992" stroke="#004181" stroke-linecap="round" stroke-linejoin="round"/>
<path d="M5 19.2576H9.98" stroke="#004181" stroke-linecap="round" stroke-linejoin="round"/>
<path d="M1.93994 21.3997H9.05994" stroke="#004181" stroke-linecap="round" stroke-linejoin="round"/>
<path d="M9.25 17.1155H11.13" stroke="#004181" stroke-linecap="round" stroke-linejoin="round"/>
<path d="M2.01001 19.2576H3.54001" stroke="#004181" stroke-linecap="round" stroke-linejoin="round"/>
<path d="M4.87012 23.5316H9.85012" stroke="#004181" stroke-linecap="round" stroke-linejoin="round"/>
<path d="M3.01001 25.7145H7.99001" stroke="#004181" stroke-linecap="round" stroke-linejoin="round"/>
<path d="M1.87988 23.5316H3.40988" stroke="#004181" stroke-linecap="round" stroke-linejoin="round"/>
<path d="M9.42993 25.7145H10.9599" stroke="#004181" stroke-linecap="round" stroke-linejoin="round"/>
<path d="M20.1401 27.8158C23.614 27.8158 26.4301 24.9432 26.4301 21.3996C26.4301 17.8561 23.614 14.9835 20.1401 14.9835C16.6662 14.9835 13.8501 17.8561 13.8501 21.3996C13.8501 24.9432 16.6662 27.8158 20.1401 27.8158Z" stroke="#004181" stroke-linecap="round" stroke-linejoin="round"/>
<path d="M14.3701 15.769C15.7526 14.2657 17.648 13.3607 19.6654 13.2408C21.6827 13.1209 23.6683 13.7951 25.2127 15.1245C26.7571 16.4538 27.7426 18.3369 27.966 20.3856C28.1894 22.4343 27.6337 24.4923 26.4135 26.1354C25.1932 27.7784 23.4014 28.8812 21.4075 29.2165C19.4136 29.5517 17.3696 29.0937 15.697 27.9371C14.0244 26.7804 12.8506 25.0131 12.4176 22.9997C11.9847 20.9862 12.3256 18.8801 13.3701 17.1155" stroke="#004181" stroke-linecap="round" stroke-linejoin="round"/>
<path d="M20.1701 20.7366C20.6395 20.7366 21.0201 20.3485 21.0201 19.8696C21.0201 19.3908 20.6395 19.0026 20.1701 19.0026C19.7006 19.0026 19.3201 19.3908 19.3201 19.8696C19.3201 20.3485 19.7006 20.7366 20.1701 20.7366Z" fill="#DFEFFF" stroke="#004181" stroke-width="0.75" stroke-miterlimit="10" stroke-linecap="round"/>
<path d="M20.1999 16.9319L20.1699 18.9516" stroke="#004181" stroke-width="0.75" stroke-miterlimit="10" stroke-linecap="round"/>
<path d="M23.1301 21.8586H17.2101C17.0223 21.8586 16.8701 22.0139 16.8701 22.2055V23.5519C16.8701 23.7435 17.0223 23.8987 17.2101 23.8987H23.1301C23.3179 23.8987 23.4701 23.7435 23.4701 23.5519V22.2055C23.4701 22.0139 23.3179 21.8586 23.1301 21.8586Z" fill="#DFEFFF" stroke="#004181" stroke-width="0.75" stroke-miterlimit="10" stroke-linecap="round"/>
</svg>
