<svg width="30" height="32" viewBox="0 0 30 32" fill="none" xmlns="http://www.w3.org/2000/svg">
<path d="M11 12.7274C11.0047 13.1991 10.9024 13.6655 10.7012 14.0902C10.5 14.5148 10.2052 14.8863 9.83999 15.1756C9.63054 15.3422 9.40224 15.4826 9.15999 15.5938C8.77158 15.7643 8.35283 15.8511 7.92999 15.8488C7.51068 15.848 7.09581 15.7613 6.70999 15.5938C6.48679 15.4925 6.27546 15.3659 6.07999 15.2164C5.70586 14.9228 5.40238 14.5461 5.19268 14.1147C4.98299 13.6834 4.87262 13.2089 4.86999 12.7274C4.84615 12.3019 4.90774 11.8758 5.051 11.4753C5.19425 11.0749 5.41616 10.7084 5.70311 10.3985C5.99006 10.0886 6.33602 9.84174 6.7198 9.67301C7.10357 9.50427 7.51708 9.41724 7.93499 9.41724C8.3529 9.41724 8.76641 9.50427 9.15018 9.67301C9.53396 9.84174 9.87992 10.0886 10.1669 10.3985C10.4538 10.7084 10.6757 11.0749 10.819 11.4753C10.9622 11.8758 11.0238 12.3019 11 12.7274V12.7274Z" stroke="#004181" stroke-width="0.75" stroke-miterlimit="10"/>
<path d="M13.2501 19.164V22.2241H2.53008V19.3578C2.52693 18.6867 2.68255 18.0247 2.98372 17.428C3.28489 16.8314 3.72273 16.3176 4.26008 15.9304C4.75794 15.5608 5.32722 15.3035 5.93008 15.1756C6.14107 15.3229 6.36543 15.4493 6.60008 15.553C7.01009 15.7215 7.44803 15.8081 7.89008 15.808C8.33222 15.8091 8.77035 15.7225 9.18008 15.553C9.43178 15.442 9.67004 15.3017 9.89008 15.1348C10.5048 15.2541 11.0856 15.512 11.5901 15.8896C12.1058 16.2577 12.5263 16.7479 12.8155 17.3182C13.1046 17.8885 13.2537 18.5219 13.2501 19.164V19.164Z" stroke="#004181" stroke-width="0.75" stroke-linecap="round" stroke-linejoin="round"/>
<path d="M21.4699 6.8418H18.1899V25.0191H21.4699" stroke="#004181" stroke-width="0.75" stroke-linecap="round" stroke-linejoin="round"/>
<path d="M10.53 15.1755H14.06" stroke="#004181" stroke-width="0.75" stroke-linecap="round" stroke-linejoin="round"/>
<path d="M17.1201 15.1755H21.4701" stroke="#004181" stroke-width="0.75" stroke-linecap="round" stroke-linejoin="round"/>
<path d="M15.3501 15.1755H15.8401" stroke="#004181" stroke-width="0.75" stroke-linecap="round" stroke-linejoin="round"/>
<path d="M26.82 4.45483H23.46C23.0955 4.45483 22.8 4.75625 22.8 5.12807V8.55544C22.8 8.92726 23.0955 9.22868 23.46 9.22868H26.82C27.1846 9.22868 27.48 8.92726 27.48 8.55544V5.12807C27.48 4.75625 27.1846 4.45483 26.82 4.45483Z" fill="#DFEFFF" stroke="#004181" stroke-width="0.75" stroke-linecap="round" stroke-linejoin="round"/>
<path d="M26.82 12.7887H23.46C23.0955 12.7887 22.8 13.0901 22.8 13.4619V16.8893C22.8 17.2611 23.0955 17.5625 23.46 17.5625H26.82C27.1846 17.5625 27.48 17.2611 27.48 16.8893V13.4619C27.48 13.0901 27.1846 12.7887 26.82 12.7887Z" fill="#DFEFFF" stroke="#004181" stroke-width="0.75" stroke-linecap="round" stroke-linejoin="round"/>
<path d="M26.82 22.6322H23.46C23.0955 22.6322 22.8 22.9336 22.8 23.3054V26.7328C22.8 27.1046 23.0955 27.406 23.46 27.406H26.82C27.1846 27.406 27.48 27.1046 27.48 26.7328V23.3054C27.48 22.9336 27.1846 22.6322 26.82 22.6322Z" fill="#DFEFFF" stroke="#004181" stroke-width="0.75" stroke-linecap="round" stroke-linejoin="round"/>
<path d="M24.05 6.88257L24.75 7.61701L26.22 6.06653" stroke="#004181" stroke-width="0.5" stroke-linecap="round" stroke-linejoin="round"/>
<path d="M24.05 15.2164L24.75 15.9508L26.22 14.4105" stroke="#004181" stroke-width="0.5" stroke-linecap="round" stroke-linejoin="round"/>
<path d="M24.05 25.0598L24.75 25.7841L26.22 24.2438" stroke="#004181" stroke-width="0.5" stroke-linecap="round" stroke-linejoin="round"/>
</svg>
