<svg width="30" height="31" viewBox="0 0 30 31" fill="none" xmlns="http://www.w3.org/2000/svg">
<path d="M5.83999 7.9667C6.86172 7.9667 7.68999 7.12181 7.68999 6.0796C7.68999 5.03739 6.86172 4.1925 5.83999 4.1925C4.81826 4.1925 3.98999 5.03739 3.98999 6.0796C3.98999 7.12181 4.81826 7.9667 5.83999 7.9667Z" fill="#DFEFFF" stroke="#004181" stroke-width="0.75" stroke-miterlimit="10"/>
<path d="M5.83999 17.2084C6.86172 17.2084 7.68999 16.3635 7.68999 15.3213C7.68999 14.2791 6.86172 13.4342 5.83999 13.4342C4.81826 13.4342 3.98999 14.2791 3.98999 15.3213C3.98999 16.3635 4.81826 17.2084 5.83999 17.2084Z" fill="#DFEFFF" stroke="#004181" stroke-width="0.75" stroke-miterlimit="10"/>
<path d="M5.83999 26.4501C6.86172 26.4501 7.68999 25.6052 7.68999 24.563C7.68999 23.5208 6.86172 22.6759 5.83999 22.6759C4.81826 22.6759 3.98999 23.5208 3.98999 24.563C3.98999 25.6052 4.81826 26.4501 5.83999 26.4501Z" fill="#DFEFFF" stroke="#004181" stroke-width="0.75" stroke-miterlimit="10"/>
<path d="M9 6.07962H10.69C10.8601 6.07415 11.0296 6.10362 11.1883 6.16627C11.347 6.22892 11.4918 6.32348 11.614 6.44432C11.7362 6.56517 11.8333 6.70983 11.8996 6.86973C11.966 7.02962 12.0001 7.20148 12 7.37509V23.2675C12 23.4385 11.9668 23.6078 11.9024 23.7656C11.8379 23.9235 11.7435 24.0667 11.6245 24.1872C11.5055 24.3076 11.3643 24.4028 11.2091 24.4673C11.0538 24.5318 10.8876 24.5643 10.72 24.563H9" stroke="#004181" stroke-width="0.75" stroke-linecap="round" stroke-linejoin="round"/>
<path d="M16.4901 15.3213H9.33008" stroke="#004181" stroke-width="0.75" stroke-linecap="round" stroke-linejoin="round"/>
<path d="M15.05 14.1482L16.69 15.3213L15.05 16.5249" stroke="#004181" stroke-width="0.75" stroke-linecap="round" stroke-linejoin="round"/>
<path d="M18.5799 12.2611C18.5743 12.288 18.5743 12.3158 18.5799 12.3427V12.2611Z" stroke="black" stroke-width="0.6" stroke-linecap="round" stroke-linejoin="round"/>
<path d="M26.0001 12.2611V15.3213C26.0001 15.9537 25.3501 16.5249 24.3801 16.8615C23.0174 17.2832 21.5628 17.2832 20.2001 16.8615C19.2001 16.5249 18.5801 15.9537 18.5801 15.3213V12.2611C18.5801 12.8731 19.1801 13.424 20.1101 13.7504C20.815 13.9951 21.5555 14.1158 22.3001 14.1074C23.0478 14.1148 23.7915 13.9942 24.5001 13.7504C25.4101 13.4546 26.0001 12.9037 26.0001 12.2611Z" fill="#DFEFFF" stroke="#004181" stroke-width="0.75" stroke-linecap="round" stroke-linejoin="round"/>
<path d="M18.5999 18.5651V18.3815C18.5933 18.4425 18.5933 18.5041 18.5999 18.5651V18.5651Z" stroke="black" stroke-width="0.6" stroke-linecap="round" stroke-linejoin="round"/>
<path d="M26 15.3213L26 18.3815C26.009 18.4526 26.009 18.5246 26 18.5957C26 19.4015 24.23 20.238 22.31 20.238C20.39 20.238 18.82 19.5137 18.62 18.5957C18.611 18.5246 18.611 18.4526 18.62 18.3815V15.2257C18.62 15.8581 19.27 16.525 20.24 16.8616C21.6027 17.2833 23.0574 17.2833 24.42 16.8616C25.36 16.4842 26 15.913 26 15.3213Z" fill="#DFEFFF" stroke="#004181" stroke-width="0.75" stroke-linecap="round" stroke-linejoin="round"/>
<path d="M25.9999 12.2612C25.9999 12.8732 25.3999 13.424 24.4799 13.7504C23.7713 13.9942 23.0277 14.1149 22.2799 14.1075C21.5354 14.1159 20.7948 13.9952 20.0899 13.7504C19.1599 13.424 18.5599 12.8732 18.5599 12.2612C18.5542 12.2343 18.5542 12.2064 18.5599 12.1796C18.6399 11.1595 20.2699 10.4047 22.2699 10.4047C24.2699 10.4047 25.9199 11.2411 25.9999 12.2612Z" fill="#DFEFFF" stroke="#004181" stroke-width="0.75" stroke-linecap="round" stroke-linejoin="round"/>
<path d="M24.1 15.2805H24.01V15.3723H24.1V15.2805Z" stroke="#004181" stroke-width="0.75" stroke-linecap="round" stroke-linejoin="round"/>
<path d="M24.13 18.2183H23.99V18.3611H24.13V18.2183Z" stroke="#004181" stroke-width="0.75" stroke-linecap="round" stroke-linejoin="round"/>
</svg>
