<svg width="30" height="32" viewBox="0 0 30 32" fill="none" xmlns="http://www.w3.org/2000/svg">
<path d="M23.5701 8.68784C21.852 6.64525 19.4837 5.28494 16.8807 4.84551C14.2776 4.40609 11.606 4.91561 9.33445 6.2847C7.06289 7.65379 5.33643 9.79503 4.45792 12.3328C3.57941 14.8706 3.60495 17.6429 4.53005 20.1634" stroke="#004181" stroke-width="1.3" stroke-linecap="round" stroke-linejoin="round"/>
<path d="M20.29 8.42263L23.64 8.77965L24.03 5.53589" stroke="#004181" stroke-width="1.3" stroke-linecap="round" stroke-linejoin="round"/>
<path d="M25.28 11.493C25.9042 12.9394 26.2244 14.503 26.22 16.0833C26.2204 18.4507 25.5011 20.7599 24.1612 22.6929C22.8212 24.6259 20.9267 26.0874 18.7384 26.8762C16.5502 27.665 14.176 27.7422 11.943 27.0972C9.70991 26.4522 7.72791 25.1166 6.27002 23.2746" stroke="#004181" stroke-width="1.3" stroke-linecap="round" stroke-linejoin="round"/>
<path d="M5.71997 26.5592L6.03997 23.0604L9.41997 23.3766" stroke="#004181" stroke-width="1.3" stroke-linecap="round" stroke-linejoin="round"/>
<path d="M21.3699 21.3977V20.2247C21.3714 19.701 21.2026 19.1916 20.8899 18.7762C20.5751 18.3622 20.1361 18.0649 19.6399 17.9296" stroke="#004181" stroke-width="1.3" stroke-linecap="round" stroke-linejoin="round"/>
<path d="M17.8999 21.3977V20.2247C17.8999 19.597 17.6555 18.9951 17.2204 18.5513C16.7853 18.1075 16.1952 17.8582 15.5799 17.8582H10.9399C10.3263 17.8609 9.73878 18.1114 9.30586 18.5549C8.87293 18.9984 8.62988 19.5988 8.62988 20.2247V21.3977" fill="#DFEFFF"/>
<path d="M17.8999 21.3977V20.2247C17.8999 19.597 17.6555 18.9951 17.2204 18.5513C16.7853 18.1075 16.1952 17.8582 15.5799 17.8582H10.9399C10.3263 17.8609 9.73878 18.1114 9.30586 18.5549C8.87293 18.9984 8.62988 19.5988 8.62988 20.2247V21.3977" stroke="#004181" stroke-width="1.3" stroke-linecap="round" stroke-linejoin="round"/>
<path d="M17.3201 10.8402C17.8169 10.9723 18.2567 11.2688 18.5707 11.6832C18.8846 12.0976 19.0549 12.6065 19.0549 13.1302C19.0549 13.6539 18.8846 14.1629 18.5707 14.5773C18.2567 14.9917 17.8169 15.2882 17.3201 15.4202" stroke="#004181" stroke-width="1.3" stroke-linecap="round" stroke-linejoin="round"/>
<path d="M13.2599 15.4916C13.7188 15.4916 14.1673 15.3528 14.5489 15.0928C14.9304 14.8327 15.2277 14.4631 15.4033 14.0307C15.5789 13.5983 15.6249 13.1224 15.5354 12.6634C15.4458 12.2043 15.2249 11.7826 14.9004 11.4517C14.576 11.1207 14.1626 10.8953 13.7126 10.804C13.2625 10.7127 12.796 10.7596 12.3721 10.9387C11.9482 11.1178 11.5859 11.4211 11.3309 11.8103C11.076 12.1995 10.9399 12.657 10.9399 13.1251C10.9399 13.7527 11.1844 14.3546 11.6195 14.7984C12.0545 15.2423 12.6446 15.4916 13.2599 15.4916Z" fill="#DFEFFF" stroke="#004181" stroke-width="1.3" stroke-linecap="round" stroke-linejoin="round"/>
</svg>
