<svg width="20" height="20" viewBox="0 0 20 20" fill="none" xmlns="http://www.w3.org/2000/svg">
<path d="M17 4H3C2.73478 4 2.48043 4.10536 2.29289 4.29289C2.10536 4.48043 2 4.73478 2 5V15C2 15.2652 2.10536 15.5196 2.29289 15.7071C2.48043 15.8946 2.73478 16 3 16H17C17.2652 16 17.5196 15.8946 17.7071 15.7071C17.8946 15.5196 18 15.2652 18 15V5C18 4.73478 17.8946 4.48043 17.7071 4.29289C17.5196 4.10536 17.2652 4 17 4ZM16.23 15H3.83L7.33 11.38L6.61 10.685L3 14.42V5.76L9.215 11.945C9.40236 12.1313 9.65581 12.2358 9.92 12.2358C10.1842 12.2358 10.4376 12.1313 10.625 11.945L17 5.605V14.355L13.32 10.675L12.615 11.38L16.23 15ZM3.655 5H16.19L9.92 11.235L3.655 5Z" fill="#0053A5"/>
</svg>
