<svg width="180" height="180" viewBox="0 0 180 180" fill="none" xmlns="http://www.w3.org/2000/svg">
<circle cx="90" cy="90" r="90" fill="#EFF0F5"/>
<g clip-path="url(#clip0_3250_237073)">
<path d="M177.273 139.657H2.72754V139.727H177.273V139.657Z" fill="#EBEBEB"/>
<path d="M159.783 145.284H148.229V145.354H159.783V145.284Z" fill="#EBEBEB"/>
<path d="M118.347 146.262H115.31V146.332H118.347V146.262Z" fill="#EBEBEB"/>
<path d="M147.879 142.068H141.177V142.138H147.879V142.068Z" fill="#EBEBEB"/>
<path d="M36.1354 142.627H21.0547V142.697H36.1354V142.627Z" fill="#EBEBEB"/>
<path d="M41.4415 142.627H39.2422V142.697H41.4415V142.627Z" fill="#EBEBEB"/>
<path d="M81.3426 144.13H48.6328V144.2H81.3426V144.13Z" fill="#EBEBEB"/>
<path d="M85.4618 124.069H18.0523C16.9701 124.069 16.0625 123.16 16.0625 122.076V27.2195C16.0625 26.136 16.9701 25.2273 18.0523 25.2273H85.4618C86.544 25.2273 87.4516 26.136 87.4516 27.2195V122.076C87.4516 123.195 86.5789 124.069 85.4618 124.069ZM18.0523 25.2972C17.005 25.2972 16.1323 26.136 16.1323 27.2195V122.076C16.1323 123.125 16.9701 123.999 18.0523 123.999H85.4618C86.509 123.999 87.3818 123.16 87.3818 122.076V27.2195C87.3818 26.171 86.544 25.2972 85.4618 25.2972H18.0523Z" fill="#EBEBEB"/>
<path d="M160.971 124.069H93.5611C92.4789 124.069 91.5713 123.16 91.5713 122.076V27.2195C91.5713 26.136 92.4789 25.2273 93.5611 25.2273H160.971C162.053 25.2273 162.96 26.136 162.96 27.2195V122.076C162.96 123.195 162.088 124.069 160.971 124.069ZM93.5611 25.2972C92.5138 25.2972 91.6411 26.136 91.6411 27.2195V122.076C91.6411 123.125 92.4789 123.999 93.5611 123.999H160.971C162.018 123.999 162.891 123.16 162.891 122.076V27.2195C162.891 26.171 162.053 25.2972 160.971 25.2972H93.5611Z" fill="#EBEBEB"/>
<path d="M103.845 66.8489H151.95V35.3231L103.845 35.3231V66.8489Z" fill="#E6E6E6"/>
<path d="M102.391 66.8489H151.264V35.3231L102.391 35.3231V66.8489Z" fill="#F0F0F0"/>
<path d="M103.845 73.0471H151.95V66.8608H103.845V73.0471Z" fill="#E6E6E6"/>
<path d="M99.9447 73.0471H148.817V66.8608H99.9447V73.0471Z" fill="#F0F0F0"/>
<path d="M149.202 64.8252V37.3887L104.449 37.3887V64.8252H149.202Z" fill="#FAFAFA"/>
<path d="M139.117 64.7919L133.392 37.3904H124.49L130.18 64.7919H139.117Z" fill="white"/>
<path d="M148.263 62.7647C148.332 62.7647 148.402 62.6948 148.402 62.6249V38.7184C148.402 38.6485 148.332 38.5786 148.263 38.5786C148.193 38.5786 148.123 38.6485 148.123 38.7184V62.5899C148.123 62.6948 148.193 62.7647 148.263 62.7647Z" fill="#F0F0F0"/>
<path d="M128.295 64.7919L122.57 37.3904H119.079L124.804 64.7919H128.295Z" fill="white"/>
<path d="M104.71 64.8081V37.3716H104.466V64.8081H104.71Z" fill="#E6E6E6"/>
<path opacity="0.6" d="M101.904 40.4661H150.009L150.184 38.1943H102.079L101.904 40.4661Z" fill="#EBEBEB"/>
<path opacity="0.6" d="M101.904 44.2408H150.009L150.184 41.969H102.079L101.904 44.2408Z" fill="#EBEBEB"/>
<path opacity="0.6" d="M101.904 48.0155H150.009L150.184 45.7437H102.079L101.904 48.0155Z" fill="#EBEBEB"/>
<path opacity="0.6" d="M101.904 51.7901H150.009L150.184 49.5183H102.079L101.904 51.7901Z" fill="#EBEBEB"/>
<path opacity="0.6" d="M101.904 55.5648H150.009L150.184 53.293H102.079L101.904 55.5648Z" fill="#EBEBEB"/>
<path opacity="0.6" d="M101.904 59.3394H150.009L150.184 57.0676H102.079L101.904 59.3394Z" fill="#EBEBEB"/>
<path d="M145.052 116.729H134.963V118.721H145.052V116.729Z" fill="#E6E6E6"/>
<path d="M115.954 139.666H117.805V93.8453H115.954V139.666Z" fill="#E6E6E6"/>
<path d="M109.491 118.74H134.975V116.747H109.491V118.74Z" fill="#F5F5F5"/>
<path d="M145.052 127.634H134.963V129.626H145.052V127.634Z" fill="#E6E6E6"/>
<path d="M109.491 129.621H134.975V127.629H109.491V129.621Z" fill="#F5F5F5"/>
<path d="M145.052 94.9543H134.963V96.9465H145.052V94.9543Z" fill="#E6E6E6"/>
<path d="M109.491 96.9419H134.975V94.9497H109.491V96.9419Z" fill="#F5F5F5"/>
<path d="M145.052 105.859H134.963V107.851H145.052V105.859Z" fill="#E6E6E6"/>
<path d="M109.491 107.823H134.975V105.831H109.491V107.823Z" fill="#F5F5F5"/>
<path d="M141.413 139.666H143.263V93.8453H141.413V139.666Z" fill="#E6E6E6"/>
<path d="M133.1 139.666H134.95V93.8453H133.1V139.666Z" fill="#F5F5F5"/>
<path d="M109.516 139.666H111.366V93.8453H109.516V139.666Z" fill="#F5F5F5"/>
<path d="M25.5324 139.657H44.5928L44.5928 102.644H25.5324L25.5324 139.657Z" fill="#E6E6E6"/>
<path d="M30.6204 139.657H25.5586V134.554H35.9615L30.6204 139.657Z" fill="#FAFAFA"/>
<path d="M77.4836 139.657H96.5439V102.644H77.4836V139.657Z" fill="#E6E6E6"/>
<path d="M25.5496 137.899H81.9277V102.633H25.5496L25.5496 137.899Z" fill="#FAFAFA"/>
<path d="M76.8401 139.657H81.9368V134.554H71.499L76.8401 139.657Z" fill="#FAFAFA"/>
<path d="M29.4947 124.634H77.9834V115.826H29.4947V124.634Z" fill="#F0F0F0"/>
<path d="M29.4947 135.319H77.9834V126.511H29.4947V135.319Z" fill="#F0F0F0"/>
<path d="M38.7191 116.729H68.7758C69.6486 116.729 70.3816 116.03 70.3816 115.121V115.051H37.1133V115.156C37.1133 116.03 37.8464 116.729 38.7191 116.729Z" fill="#FAFAFA"/>
<path d="M29.4947 113.914H77.9834V105.106H29.4947V113.914Z" fill="#F0F0F0"/>
<path d="M38.7191 106.034H68.7758C69.6486 106.034 70.3816 105.335 70.3816 104.426V104.321H37.1133V104.426C37.1133 105.335 37.8464 106.034 38.7191 106.034Z" fill="#FAFAFA"/>
<path d="M38.7191 127.459H68.7758C69.6486 127.459 70.3816 126.76 70.3816 125.851V125.746H37.1133V125.851C37.1133 126.725 37.8464 127.459 38.7191 127.459Z" fill="#FAFAFA"/>
<path d="M28.5662 66.8489H76.6709V35.3231L28.5662 35.3231L28.5662 66.8489Z" fill="#E6E6E6"/>
<path d="M27.1116 66.8489H75.9844V35.3231L27.1116 35.3231L27.1116 66.8489Z" fill="#F0F0F0"/>
<path d="M28.5662 73.0471H76.6709V66.8608H28.5662V73.0471Z" fill="#E6E6E6"/>
<path d="M24.6654 73.0471H73.5381V66.8608H24.6654V73.0471Z" fill="#F0F0F0"/>
<path d="M73.9307 64.7981V37.3616L29.1772 37.3616L29.1772 64.7981H73.9307Z" fill="#FAFAFA"/>
<path d="M63.8532 64.7919L58.1281 37.3904H49.1914L54.9165 64.7919H63.8532Z" fill="white"/>
<path d="M73 62.7647C73.0698 62.7647 73.1396 62.6948 73.1396 62.6249V38.7184C73.1396 38.6485 73.0698 38.5786 73 38.5786C72.9302 38.5786 72.8604 38.6485 72.8604 38.7184V62.5899C72.8604 62.6948 72.8953 62.7647 73 62.7647Z" fill="#F0F0F0"/>
<path d="M52.9965 64.7919L47.2714 37.3904H43.8154L49.5405 64.7919H52.9965Z" fill="white"/>
<path d="M29.4385 64.8161L29.4385 37.3796H29.1941L29.1941 64.8161H29.4385Z" fill="#E6E6E6"/>
<path opacity="0.6" d="M26.6406 40.4661H74.7453L74.9199 38.1943H26.8152L26.6406 40.4661Z" fill="#EBEBEB"/>
<path opacity="0.6" d="M26.6406 41.7941H74.7453L74.9199 39.4873H26.8152L26.6406 41.7941Z" fill="#EBEBEB"/>
<path opacity="0.6" d="M26.6406 43.0873H74.7453L74.9199 40.7805H26.8152L26.6406 43.0873Z" fill="#EBEBEB"/>
<path opacity="0.6" d="M26.6406 44.3805H74.7453L74.9199 42.0737H26.8152L26.6406 44.3805Z" fill="#EBEBEB"/>
<path opacity="0.6" d="M26.6406 45.6737H74.7453L74.9199 43.3669H26.8152L26.6406 45.6737Z" fill="#EBEBEB"/>
<path opacity="0.6" d="M26.6406 46.9669H74.7453L74.9199 44.6602H26.8152L26.6406 46.9669Z" fill="#EBEBEB"/>
<path d="M36.2365 101.541H37.9121V82.9821H36.2365V101.541Z" fill="#F5F5F5"/>
<path d="M36.4847 101.515H36.9385V82.9564H36.4847V101.515Z" fill="#FAFAFA"/>
<path d="M37.1477 101.515H37.3223V82.9564H37.1477V101.515Z" fill="#FAFAFA"/>
<path d="M30.9346 102.679H43.2226C43.2226 101.805 42.5244 101.141 41.6866 101.141H32.4706C31.6327 101.106 30.9346 101.805 30.9346 102.679Z" fill="#F0F0F0"/>
<path d="M34.0756 94.5002C34.3549 94.5002 34.5644 94.2905 34.5644 94.0109V81.848C34.5644 81.5683 34.3549 81.3586 34.0756 81.3586C33.7964 81.3586 33.5869 81.5683 33.5869 81.848V94.0109C33.6218 94.2905 33.8313 94.5002 34.0756 94.5002Z" fill="#F0F0F0"/>
<path d="M29.6426 87.3702H44.5139L42.8033 76.9548H31.3531L29.6426 87.3702Z" fill="#E0E0E0"/>
<path d="M90.0002 155.455C127.384 155.455 157.689 153.686 157.689 151.505C157.689 149.324 127.384 147.556 90.0002 147.556C52.6168 147.556 22.3115 149.324 22.3115 151.505C22.3115 153.686 52.6168 155.455 90.0002 155.455Z" fill="#F5F5F5"/>
<path d="M39.0787 76.7395L38.7305 76.7646L39.1944 83.2138L39.5426 83.1887L39.0787 76.7395Z" fill="#407BFF"/>
<path d="M39.7828 86.5205L39.4346 86.5457L39.6102 88.9859L39.9583 88.9607L39.7828 86.5205Z" fill="#407BFF"/>
<path d="M120.615 116.17H45.8749C44.1992 116.17 42.6982 114.772 42.5934 113.094L38.928 62.0308C38.8232 60.3531 40.08 58.9551 41.7905 58.9551H116.566C118.241 58.9551 119.743 60.3531 119.847 62.0308L123.513 113.094C123.583 114.772 122.326 116.17 120.615 116.17Z" fill="#C9C9E8"/>
<path d="M120.895 116.17H46.1542C44.4785 116.17 42.9774 114.772 42.8727 113.094L39.2073 62.0308C39.1025 60.3531 40.3593 58.9551 42.0698 58.9551H116.845C118.521 58.9551 120.022 60.3531 120.127 62.0308L123.792 113.094C123.897 114.772 122.605 116.17 120.895 116.17Z" fill="#DDDCEC"/>
<path opacity="0.5" d="M120.895 116.17H46.1542C44.4785 116.17 42.9774 114.772 42.8727 113.094L39.2073 62.0308C39.1025 60.3531 40.3593 58.9551 42.0698 58.9551H116.845C118.521 58.9551 120.022 60.3531 120.127 62.0308L123.792 113.094C123.897 114.772 122.605 116.17 120.895 116.17Z" fill="white"/>
<path d="M116.915 60.4929H42.1392C42.0694 60.4929 41.9647 60.4929 41.8949 60.4929C39.9749 60.6677 40.3589 63.5686 42.3138 63.5686H117.194C119.114 63.5686 119.079 60.6677 117.159 60.4929C117.054 60.4929 116.984 60.4929 116.915 60.4929Z" fill="#DDDCEC"/>
<path d="M44.0941 62.0308C44.129 62.4153 43.8148 62.7298 43.4308 62.7298C43.0468 62.7298 42.6977 62.4153 42.6628 62.0308C42.6279 61.6463 42.9421 61.3318 43.3261 61.3318C43.7101 61.3318 44.0592 61.6463 44.0941 62.0308Z" fill="#FAFAFA"/>
<path d="M46.4681 62.0308C46.503 62.4153 46.1888 62.7298 45.8048 62.7298C45.4208 62.7298 45.0717 62.4153 45.0368 62.0308C45.0019 61.6463 45.3161 61.3318 45.7001 61.3318C46.119 61.3318 46.4681 61.6463 46.4681 62.0308Z" fill="#FAFAFA"/>
<path d="M48.8773 62.0308C48.9122 62.4153 48.598 62.7298 48.214 62.7298C47.83 62.7298 47.4809 62.4153 47.446 62.0308C47.4111 61.6463 47.7253 61.3318 48.1093 61.3318C48.4933 61.3318 48.8424 61.6463 48.8773 62.0308Z" fill="#FAFAFA"/>
<path d="M118.94 111.067H47.4114C46.7831 111.067 46.2594 110.578 46.2245 109.949L43.1874 67.9375C43.1525 67.3084 43.6063 66.8191 44.2347 66.8191H115.763C116.392 66.8191 116.915 67.3084 116.95 67.9375L119.987 109.949C119.987 110.578 119.534 111.067 118.94 111.067Z" fill="white"/>
<path d="M88.7781 98.2049L87.6261 82.0226L84.1002 79.8906H74.3955L75.7221 98.2049H88.7781Z" fill="white"/>
<path d="M88.7785 98.3796H75.6876C75.5829 98.3796 75.5131 98.3097 75.5131 98.2398L74.1865 79.9255C74.1865 79.8906 74.1865 79.8207 74.2214 79.7857C74.2563 79.7508 74.2913 79.7158 74.3611 79.7158H84.0658C84.1007 79.7158 84.1356 79.7158 84.1356 79.7508L87.6614 81.8828C87.6963 81.9177 87.7313 81.9527 87.7313 82.0226L88.8833 98.2049C88.8833 98.2398 88.8833 98.3097 88.8483 98.3447C88.8833 98.3796 88.8483 98.3796 88.7785 98.3796ZM75.8622 98.0651H88.604L87.452 82.1624L84.0309 80.1003H74.5705L75.8622 98.0651Z" fill="#DDDCEC"/>
<path d="M87.6264 82.0226L84.1006 79.8906L85.3922 82.7217L87.6264 82.0226Z" fill="#EBEBEB"/>
<path d="M85.392 82.8964C85.3222 82.8964 85.2524 82.8615 85.2524 82.7916L83.9607 79.9606C83.9258 79.8907 83.9608 79.8207 83.9957 79.7508C84.0655 79.7159 84.1353 79.6809 84.2051 79.7159L87.7309 81.8479C87.8007 81.8829 87.8357 81.9528 87.8007 82.0227C87.8007 82.0926 87.7309 82.1275 87.696 82.1625L85.4618 82.8615C85.4269 82.8964 85.392 82.8964 85.392 82.8964ZM84.4844 80.345L85.4968 82.512L87.2422 81.9877L84.4844 80.345Z" fill="#DDDCEC"/>
<path d="M79.8768 88.1742C79.9117 88.5936 79.5975 88.9081 79.1786 88.9081C78.7597 88.9081 78.4106 88.5936 78.3757 88.1742C78.3408 87.7547 78.655 87.4402 79.0739 87.4402C79.4928 87.4402 79.8419 87.7547 79.8768 88.1742Z" fill="#DDDCEC"/>
<path d="M84.659 88.1741C84.6939 88.5935 84.3797 88.9081 83.9608 88.9081C83.5419 88.9081 83.1928 88.5935 83.1579 88.1741C83.123 87.7547 83.4372 87.4402 83.8561 87.4402C84.275 87.4052 84.6241 87.7547 84.659 88.1741Z" fill="#DDDCEC"/>
<path d="M86.0207 92.9624C85.916 92.9624 85.8462 92.8925 85.8462 92.8226C85.7764 91.6343 83.8913 90.6557 81.692 90.6557C80.2258 90.6557 78.9342 91.0751 78.2709 91.7741C77.9917 92.0887 77.852 92.4382 77.8869 92.7877C77.8869 92.8925 77.8171 92.9624 77.7473 92.9624C77.6426 92.9624 77.5727 92.8925 77.5727 92.8226C77.5378 92.3683 77.7124 91.9488 78.0615 91.5644C78.7597 90.7955 80.1909 90.3062 81.7269 90.3062C84.1357 90.3062 86.1255 91.3896 86.2302 92.7877C86.1953 92.8576 86.1255 92.9624 86.0207 92.9624Z" fill="#DDDCEC"/>
<path d="M77.1542 86.6711C77.1193 86.6711 77.0843 86.6711 77.0494 86.6361C76.9796 86.5662 76.9796 86.4614 77.0494 86.3915L77.7825 85.5876C77.8523 85.5177 77.9571 85.5177 78.0269 85.5876C78.0967 85.6575 78.0967 85.7623 78.0269 85.8322L77.2938 86.6361C77.224 86.6361 77.1891 86.6711 77.1542 86.6711Z" fill="#DDDCEC"/>
<path d="M85.6714 86.6711C85.6365 86.6711 85.6016 86.6711 85.5667 86.6361L84.694 85.8322C84.6241 85.7623 84.6241 85.6575 84.694 85.5876C84.7638 85.5177 84.8685 85.5177 84.9383 85.5876L85.8111 86.3915C85.8809 86.4614 85.8809 86.5662 85.8111 86.6361C85.7412 86.6361 85.7063 86.6711 85.6714 86.6711Z" fill="#DDDCEC"/>
</g>
<defs>
<clipPath id="clip0_3250_237073">
<rect width="174.545" height="130.227" fill="white" transform="translate(2.72754 25.2273)"/>
</clipPath>
</defs>
</svg>
