<svg width="16" height="16" viewBox="0 0 16 16" fill="none" xmlns="http://www.w3.org/2000/svg">
<path d="M8 11.575C7.71667 11.575 7.47933 11.479 7.288 11.287C7.096 11.0957 7 10.8583 7 10.575V3.425L5.125 5.3C4.925 5.5 4.69167 5.6 4.425 5.6C4.15833 5.6 3.91667 5.49167 3.7 5.275C3.5 5.075 3.40433 4.83733 3.413 4.562C3.421 4.28733 3.51667 4.05833 3.7 3.875L7.3 0.275C7.4 0.175 7.50833 0.104 7.625 0.0619998C7.74167 0.0206665 7.86667 0 8 0C8.13333 0 8.25833 0.0206665 8.375 0.0619998C8.49167 0.104 8.6 0.175 8.7 0.275L12.3 3.875C12.5 4.075 12.5957 4.31233 12.587 4.587C12.579 4.86233 12.4833 5.09167 12.3 5.275C12.1 5.475 11.8627 5.579 11.588 5.587C11.3127 5.59567 11.075 5.5 10.875 5.3L9 3.425V10.575C9 10.8583 8.90433 11.0957 8.713 11.287C8.521 11.479 8.28333 11.575 8 11.575ZM2 15.575C1.45 15.575 0.979333 15.3793 0.588 14.988C0.196 14.596 0 14.125 0 13.575V11.575C0 11.2917 0.0956668 11.054 0.287 10.862C0.479 10.6707 0.716667 10.575 1 10.575C1.28333 10.575 1.521 10.6707 1.713 10.862C1.90433 11.054 2 11.2917 2 11.575V13.575H14V11.575C14 11.2917 14.096 11.054 14.288 10.862C14.4793 10.6707 14.7167 10.575 15 10.575C15.2833 10.575 15.5207 10.6707 15.712 10.862C15.904 11.054 16 11.2917 16 11.575V13.575C16 14.125 15.8043 14.596 15.413 14.988C15.021 15.3793 14.55 15.575 14 15.575H2Z" fill="#586888"/>
</svg>
