<svg width="380" height="233" viewBox="0 0 380 233" fill="none" xmlns="http://www.w3.org/2000/svg">
<path d="M0 186.797L47.5 186.647L95 186.591L190 186.484L285 186.591L332.5 186.647L380 186.797L332.5 186.954L285 187.004L190 187.11L95 187.004L47.5 186.948L0 186.797Z" fill="#25324B"/>
<path d="M179.769 233C268.533 233 340.49 224.27 340.49 213.5C340.49 202.73 268.533 194 179.769 194C91.0058 194 19.0488 202.73 19.0488 213.5C19.0488 224.27 91.0058 233 179.769 233Z" fill="#F8F8F8"/>
<path d="M287.111 218.017H96.7109L124.239 61.6094H314.639L287.111 218.017Z" fill="#DDDCEC"/>
<path d="M189.405 45.4062H127.094L124.238 61.6072H190.923L189.405 45.4062Z" fill="#DDDCEC"/>
<g opacity="0.1">
<path d="M287.111 218.017H96.7109L124.239 61.6094H314.639L287.111 218.017Z" fill="#060606"/>
<path d="M189.406 45.4062H127.095L124.239 61.6072H190.924L189.406 45.4062Z" fill="#060606"/>
</g>
<path d="M120.37 52.0166C119.953 50.2251 119.953 48.3617 120.37 46.5703C120.787 48.3617 120.787 50.2251 120.37 52.0166Z" fill="#25324B"/>
<path d="M114.833 53.6177C114.197 52.9568 113.649 52.2161 113.202 51.4142C112.734 50.629 112.366 49.7876 112.108 48.9102C112.747 49.5672 113.295 50.3061 113.739 51.1074C114.207 51.8954 114.574 52.7387 114.833 53.6177Z" fill="#25324B"/>
<path d="M110.834 57.7817C109.078 57.2469 107.468 56.3152 106.128 55.0586C107.004 55.3137 107.844 55.6797 108.628 56.1478C109.428 56.598 110.169 57.1469 110.834 57.7817Z" fill="#25324B"/>
<path d="M109.434 63.3912C107.646 63.8086 105.785 63.8086 103.997 63.3912C105.785 62.9738 107.646 62.9738 109.434 63.3912Z" fill="#25324B"/>
<path d="M111.059 68.9375C110.396 69.5716 109.657 70.1205 108.859 70.5714C108.075 71.0395 107.235 71.4055 106.359 71.6606C107.019 71.0232 107.759 70.474 108.559 70.0267C109.342 69.5564 110.182 69.1902 111.059 68.9375Z" fill="#25324B"/>
<path d="M115.208 72.9375C114.676 74.6992 113.745 76.3144 112.489 77.6576C112.744 76.7789 113.111 75.9371 113.583 75.1536C114.028 74.3488 114.574 73.6041 115.208 72.9375Z" fill="#25324B"/>
<path d="M120.807 74.3203C121.025 75.2113 121.13 76.1262 121.12 77.0434C121.133 77.9608 121.028 78.8761 120.807 79.7666C120.583 78.8767 120.478 77.961 120.495 77.0434C120.484 76.1262 120.589 75.2113 120.807 74.3203Z" fill="#25324B"/>
<path d="M126.344 72.7508C126.98 73.4118 127.528 74.1524 127.975 74.9543C128.444 75.7381 128.81 76.5799 129.062 77.4584C127.806 76.1152 126.876 74.5 126.344 72.7383V72.7508Z" fill="#25324B"/>
<path d="M130.337 68.5547C131.214 68.8074 132.054 69.1736 132.837 69.6439C133.637 70.0912 134.376 70.6404 135.036 71.2778C134.159 71.0251 133.319 70.6589 132.537 70.1886C131.736 69.7413 130.997 69.1921 130.337 68.5547Z" fill="#25324B"/>
<path d="M131.719 62.9457C133.509 62.5285 135.371 62.5285 137.162 62.9457C135.371 63.363 133.509 63.363 131.719 62.9457Z" fill="#25324B"/>
<path d="M130.119 57.3989C130.781 56.7653 131.52 56.2184 132.319 55.7713C133.1 55.2964 133.94 54.928 134.818 54.6758C133.477 55.9342 131.865 56.866 130.106 57.3989H130.119Z" fill="#25324B"/>
<path d="M125.963 53.399C126.22 52.5223 126.585 51.6812 127.05 50.8949C127.497 50.093 128.045 49.3524 128.681 48.6914C128.429 49.5699 128.063 50.4116 127.594 51.1954C127.147 51.9973 126.599 52.738 125.963 53.399Z" fill="#25324B"/>
<path d="M286.829 218.015H96.0232L68.9268 67.2852H259.739L286.829 218.015Z" fill="#DDDCEC"/>
<path d="M135.049 159.427C139.429 159.427 142.98 155.87 142.98 151.483C142.98 147.096 139.429 143.539 135.049 143.539C130.67 143.539 127.119 147.096 127.119 151.483C127.119 155.87 130.67 159.427 135.049 159.427Z" fill="#25324B"/>
<path d="M197.741 159.427C202.12 159.427 205.671 155.87 205.671 151.483C205.671 147.096 202.12 143.539 197.741 143.539C193.361 143.539 189.811 147.096 189.811 151.483C189.811 155.87 193.361 159.427 197.741 159.427Z" fill="#25324B"/>
<path d="M177.787 160.697L177.35 159.865C177.312 159.789 173.213 152.202 164.97 152.202C157.471 152.202 155.596 159.345 155.546 159.652L155.321 160.559L153.503 160.121L153.722 159.207C153.722 159.12 155.959 150.324 164.97 150.324C174.344 150.324 178.825 158.638 179.012 158.994L179.45 159.821L177.787 160.697Z" fill="#25324B"/>
<path d="M274.231 150.875L274.1 150.249C274.506 150.161 274.906 150.067 275.306 149.961L275.462 150.587C275.037 150.693 274.643 150.787 274.231 150.875Z" fill="#25324B"/>
<path d="M277.881 149.87L277.681 149.281C278.462 149.012 279.243 148.718 279.999 148.399L280.243 148.975C279.474 149.3 278.681 149.601 277.881 149.87ZM282.536 147.873L282.255 147.322C282.986 146.94 283.718 146.527 284.411 146.07L284.736 146.602C284.024 147.097 283.28 147.516 282.536 147.873ZM286.836 145.225L286.467 144.718C287.142 144.223 287.792 143.704 288.404 143.172L288.817 143.641C288.161 144.211 287.536 144.743 286.83 145.25L286.836 145.225ZM290.648 141.895L290.192 141.463C290.767 140.837 291.31 140.211 291.81 139.585L292.304 139.967C291.785 140.655 291.229 141.3 290.66 141.92L290.648 141.895ZM293.741 137.888L293.21 137.556C293.642 136.857 294.026 136.129 294.36 135.378L294.935 135.635C294.582 136.418 294.181 137.179 293.735 137.913L293.741 137.888ZM295.81 133.243L295.185 133.068C295.413 132.283 295.582 131.481 295.691 130.67L296.316 130.752C296.212 131.603 296.041 132.445 295.803 133.268L295.81 133.243ZM296.503 128.235H295.878V128.054C295.878 127.296 295.835 126.526 295.76 125.769L296.385 125.706C296.467 126.486 296.508 127.27 296.51 128.054L296.503 128.235ZM295.379 123.334C295.21 122.526 295.002 121.728 294.754 120.942L295.379 120.754C295.635 121.568 295.853 122.395 296.003 123.202L295.379 123.334ZM293.897 118.62C293.598 117.881 293.273 117.124 292.873 116.36L293.435 116.078C293.816 116.854 294.166 117.631 294.472 118.382L293.897 118.62ZM291.71 114.156C291.323 113.474 290.898 112.754 290.46 112.015L290.992 111.684C291.448 112.429 291.879 113.155 292.241 113.85L291.71 114.156ZM289.098 109.906C288.642 109.217 288.179 108.522 287.705 107.827L288.223 107.477C288.698 108.172 289.161 108.867 289.617 109.568L289.098 109.906ZM286.286 105.762C285.817 105.073 285.342 104.378 284.88 103.69L285.399 103.339C285.861 104.028 286.33 104.722 286.798 105.405L286.286 105.762ZM283.493 101.592C283.036 100.891 282.593 100.178 282.155 99.464L282.686 99.1385C283.124 99.8522 283.568 100.553 284.018 101.254L283.493 101.592ZM280.887 97.2918C280.462 96.5343 280.068 95.7831 279.712 95.0632L280.274 94.7815C280.624 95.4952 281.018 96.2339 281.43 96.9851L280.887 97.2918ZM278.668 92.7846C278.337 92.0021 278.043 91.207 277.768 90.4308L278.393 90.2305C278.656 90.9879 278.949 91.7704 279.274 92.5404L278.668 92.7846ZM277.043 88.0081C276.837 87.1943 276.656 86.3618 276.519 85.5041L277.143 85.404C277.281 86.2053 277.45 87.0191 277.656 87.8204L277.043 88.0081ZM276.206 83.0001C276.144 82.2301 276.112 81.4539 276.112 80.6776V80.4711H276.737V80.6714C276.737 81.4288 276.737 82.1926 276.831 82.9438L276.206 83.0001ZM276.831 77.9921L276.206 77.9295C276.206 77.7605 276.237 77.5852 276.256 77.4036C276.331 76.7338 276.425 76.064 276.537 75.4255L277.162 75.5319C277.056 76.1579 276.962 76.8152 276.887 77.4725C276.912 77.6665 276.912 77.8356 276.862 78.0109L276.831 77.9921ZM277.7 73.1218L277.075 72.9527C277.306 72.1264 277.575 71.3189 277.875 70.5489L278.456 70.7742C278.172 71.5493 277.93 72.3393 277.731 73.1405L277.7 73.1218ZM308.839 69.4721C308.489 69.4721 308.127 69.4221 307.771 69.372C307.283 69.3031 306.796 69.2218 306.315 69.1279L306.44 68.5019C306.902 68.5895 307.383 68.6709 307.858 68.7397C308.196 68.7835 308.539 68.8149 308.871 68.8336L308.839 69.4721ZM311.408 69.2781L311.276 68.6521C312.061 68.4899 312.813 68.1979 313.501 67.7882L313.826 68.3203C313.09 68.7766 312.283 69.1066 311.439 69.2969L311.408 69.2781ZM279.499 68.5331L278.943 68.2389C279.341 67.4923 279.781 66.7692 280.262 66.0729L280.774 66.4298C280.318 67.1115 279.902 67.8202 279.531 68.5519L279.499 68.5331ZM303.871 68.4956C303.064 68.2392 302.272 67.9404 301.496 67.6004L301.753 67.0245C302.504 67.3589 303.274 67.6494 304.059 67.8946L303.871 68.4956ZM315.745 66.5425L315.226 66.1919C315.671 65.5452 315.934 64.7907 315.988 64.0071L316.613 64.051C316.56 64.949 316.267 65.8161 315.763 66.5612L315.745 66.5425ZM299.247 66.4485C298.515 66.0227 297.808 65.5567 297.128 65.0526L297.497 64.5518C298.159 65.0406 298.847 65.4921 299.559 65.9039L299.247 66.4485ZM282.312 64.4954L281.849 64.076C282.415 63.4456 283.018 62.8498 283.655 62.2919L284.068 62.7614C283.454 63.3109 282.874 63.8961 282.33 64.5142L282.312 64.4954ZM295.179 63.4375C294.556 62.8631 293.966 62.255 293.41 61.6158L293.879 61.2026C294.42 61.8235 294.993 62.4149 295.597 62.9742L295.179 63.4375ZM315.52 61.741C315.162 61.0256 314.667 60.3875 314.064 59.863L314.476 59.3935C315.14 59.9688 315.686 60.6684 316.082 61.453L315.52 61.741ZM286.011 61.2464L285.655 60.7331C286.354 60.255 287.078 59.8141 287.823 59.4123L288.117 59.9631C287.399 60.3606 286.702 60.7952 286.03 61.2652L286.011 61.2464ZM291.848 59.6188C291.61 59.2808 291.379 58.9365 291.16 58.5797L290.348 58.8989L290.11 58.323L290.829 58.0351C290.717 57.8473 290.604 57.6594 290.498 57.4716L291.042 57.1649C291.167 57.384 291.292 57.6031 291.423 57.7909C291.773 57.6657 292.129 57.5468 292.491 57.4341L292.673 58.0601C292.366 58.154 292.048 58.2541 291.76 58.3606C291.954 58.6673 292.154 58.9866 292.385 59.2558L291.848 59.6188ZM312.051 58.5421C311.447 58.2402 310.82 57.9849 310.177 57.7784L309.764 57.6469L309.945 57.0209L310.37 57.1586C311.04 57.3724 311.692 57.6382 312.32 57.9537L312.051 58.5421ZM295.066 57.4216L294.935 56.7956C295.741 56.614 296.578 56.4638 297.435 56.3448L297.528 56.9708C296.703 57.1023 295.885 57.2588 295.085 57.4403L295.066 57.4216ZM307.377 57.0835C306.596 56.9458 305.771 56.8394 304.927 56.7643L304.977 56.1383C305.846 56.2134 306.69 56.3198 307.477 56.4638L307.377 57.0835ZM299.972 56.7204L299.928 56.0944C300.672 56.0506 301.415 56.0256 302.153 56.0256H302.459V56.6516H302.159C301.453 56.6704 300.715 56.6891 299.99 56.7392L299.972 56.7204ZM289.411 55.2243C289.073 54.4606 288.786 53.6655 288.504 52.858L289.129 52.6639C289.392 53.4527 289.686 54.2289 290.011 54.9739L289.411 55.2243ZM287.83 50.4166C287.642 49.609 287.486 48.7702 287.367 47.9126L287.992 47.8249C288.111 48.6512 288.261 49.4713 288.442 50.2663L287.83 50.4166ZM287.13 45.4085C287.098 44.8451 287.08 44.2692 287.08 43.6933C287.08 43.4241 287.08 43.1487 287.08 42.8795H287.705C287.705 43.1487 287.705 43.4116 287.705 43.6808C287.705 44.2442 287.705 44.8138 287.748 45.3585L287.13 45.4085ZM287.873 40.4005L287.248 40.3379C287.336 39.5116 287.455 38.6665 287.598 37.8339L288.223 37.9403C288.054 38.7729 287.936 39.5742 287.855 40.413L287.873 40.4005ZM288.729 35.5114L288.104 35.3612C288.304 34.5536 288.536 33.7398 288.792 32.926L289.417 33.1201C289.136 33.9401 288.904 34.7352 288.711 35.5239L288.729 35.5114ZM290.229 30.7725L289.648 30.5472C289.954 29.7647 290.273 28.9822 290.654 28.2247L291.217 28.5001C290.842 29.2514 290.51 30.0151 290.21 30.8101L290.229 30.7725ZM292.379 26.3091L291.835 25.9899C292.26 25.27 292.716 24.5501 293.191 23.8615L293.704 24.2183C293.216 24.9069 292.773 25.608 292.36 26.3217L292.379 26.3091ZM295.197 22.2338L294.71 21.8395C295.235 21.2135 295.797 20.5499 296.378 19.9614L296.828 20.3934C296.241 20.9818 295.691 21.6078 295.179 22.2464L295.197 22.2338ZM298.597 18.6281L298.178 18.1648C298.803 17.6077 299.428 17.0568 300.097 16.5247L300.484 17.0192C299.815 17.5513 299.178 18.0959 298.578 18.6406L298.597 18.6281ZM302.478 15.5356L302.121 15.016C302.803 14.5465 303.515 14.0833 304.24 13.6451L304.559 14.1772C303.834 14.6216 303.159 15.0786 302.459 15.5481L302.478 15.5356ZM306.721 12.9502L306.427 12.3993C307.164 12.0049 307.927 11.6293 308.689 11.2788L308.952 11.8484C308.158 12.2052 307.427 12.5808 306.702 12.9627L306.721 12.9502ZM311.239 10.8719L311.008 10.2834C311.795 9.97667 312.589 9.6574 313.376 9.42578L313.576 10.0518C312.782 10.2897 311.995 10.5776 311.22 10.8844L311.239 10.8719Z" fill="#25324B"/>
<path d="M316.057 9.28897L315.9 8.66296C316.675 8.46264 317.15 8.375 317.15 8.375L317.263 9.001C317.263 9.001 316.813 9.0949 316.057 9.28897Z" fill="#25324B"/>
<path d="M327.105 5.24137C325.512 0.295931 314.838 2.07378 316.919 8.54041C319 15.007 328.699 10.1931 327.105 5.24137Z" fill="#25324B"/>
<path d="M311.114 3.26425C311.195 1.09201 314.207 -0.579424 318.469 0.190562C322.731 0.960547 326.737 3.84017 326.737 3.84017C326.737 3.84017 322.531 6.39427 318.226 6.86377C313.92 7.33328 311.033 5.43022 311.114 3.26425Z" fill="#DDDCEC"/>
<path d="M326.737 3.82813C324.524 3.82813 322.318 3.76553 320.112 3.69667C317.906 3.62781 315.694 3.51513 313.488 3.33984C315.7 3.33984 317.913 3.39618 320.119 3.46504C322.325 3.5339 324.537 3.64659 326.737 3.82813Z" fill="#25324B"/>
<path d="M315.395 1.33203C316.65 1.93388 317.835 2.67513 318.925 3.54183C318.297 3.2464 317.687 2.91187 317.101 2.54022C316.509 2.17112 315.939 1.76771 315.395 1.33203Z" fill="#25324B"/>
<path d="M321.187 3.62109C320.057 4.53888 318.831 5.33221 317.531 5.98739C318.668 5.06847 319.899 4.2751 321.206 3.62109H321.187Z" fill="#25324B"/>
<path d="M321.831 2.39844C322.462 2.70176 323.014 3.14746 323.443 3.70052C323.128 3.55144 322.832 3.36434 322.562 3.14338C322.291 2.9238 322.046 2.67386 321.831 2.39844Z" fill="#25324B"/>
<path d="M315.175 16.1295C316.506 17.8448 319.924 17.4316 322.93 14.3141C325.936 11.1966 327.53 6.50781 327.53 6.50781C327.53 6.50781 322.605 6.88342 318.85 9.01183C315.094 11.1402 313.838 14.408 315.175 16.1295Z" fill="#DDDCEC"/>
<path d="M327.53 6.50781C325.731 7.75982 323.981 9.14955 322.225 10.4955C320.469 11.8414 318.75 13.2311 317.069 14.6647C318.869 13.4126 320.619 12.0292 322.369 10.6833C324.118 9.33735 325.824 7.94762 327.53 6.50781Z" fill="#25324B"/>
<path d="M319.769 15.157C320.103 14.5489 320.401 13.9218 320.662 13.279C320.928 12.6343 321.154 11.9736 321.337 11.3008C321.002 11.9084 320.704 12.5355 320.443 13.1788C320.18 13.8244 319.955 14.4849 319.769 15.157Z" fill="#25324B"/>
<path d="M323.156 9.92404C321.693 9.84574 320.227 9.92338 318.781 10.1557C319.51 10.1995 320.24 10.1995 320.968 10.1557C321.701 10.1199 322.432 10.0425 323.156 9.92404Z" fill="#25324B"/>
<path d="M324.361 10.5446C324.529 10.2355 324.659 9.9077 324.749 9.56806C324.842 9.23092 324.897 8.88446 324.912 8.53516C324.579 9.15487 324.391 9.84183 324.361 10.5446Z" fill="#25324B"/>
<path d="M327.105 5.24235C326.752 5.35715 326.373 5.36445 326.016 5.26333C325.659 5.16221 325.34 4.95722 325.099 4.67431C324.859 4.39141 324.707 4.04332 324.664 3.67412C324.621 3.30491 324.688 2.93122 324.857 2.60034C325.026 2.26947 325.29 1.9963 325.614 1.81543C325.938 1.63457 326.309 1.55414 326.678 1.58433C327.048 1.61452 327.401 1.75398 327.691 1.98504C327.982 2.2161 328.198 2.52837 328.311 2.88231C328.463 3.35549 328.421 3.86958 328.195 4.31194C327.969 4.75429 327.577 5.08887 327.105 5.24235Z" fill="#586888"/>
<path d="M328.255 8.81716C327.902 8.93149 327.523 8.9385 327.167 8.83729C326.81 8.73609 326.491 8.53121 326.251 8.24857C326.01 7.96593 325.859 7.6182 325.816 7.24936C325.772 6.88052 325.839 6.50711 326.008 6.17635C326.176 5.8456 326.439 5.57234 326.763 5.39112C327.086 5.20989 327.456 5.12885 327.826 5.15823C328.195 5.18761 328.548 5.32609 328.839 5.55617C329.13 5.78626 329.346 6.0976 329.461 6.45086C329.537 6.68556 329.566 6.93296 329.546 7.17893C329.527 7.4249 329.459 7.66461 329.347 7.88436C329.235 8.10412 329.081 8.2996 328.894 8.45966C328.706 8.61971 328.489 8.74119 328.255 8.81716Z" fill="#586888"/>
</svg>
