<svg width="20" height="20" viewBox="0 0 20 20" fill="none" xmlns="http://www.w3.org/2000/svg">
<path d="M9.37497 6.875C9.37497 6.70924 9.44082 6.55027 9.55803 6.43306C9.67524 6.31585 9.83421 6.25 9.99997 6.25H13.125C13.2907 6.25 13.4497 6.31585 13.5669 6.43306C13.6841 6.55027 13.75 6.70924 13.75 6.875V10C13.75 10.1658 13.6841 10.3247 13.5669 10.4419C13.4497 10.5592 13.2907 10.625 13.125 10.625C12.9592 10.625 12.8002 10.5592 12.683 10.4419C12.5658 10.3247 12.5 10.1658 12.5 10V8.38375L9.19247 11.6925C9.13436 11.7506 9.06537 11.7967 8.98945 11.8282C8.91353 11.8596 8.83215 11.8758 8.74997 11.8758C8.66779 11.8758 8.58641 11.8596 8.51049 11.8282C8.43457 11.7967 8.36558 11.7506 8.30747 11.6925C8.24936 11.6344 8.20326 11.5654 8.17182 11.4895C8.14037 11.4136 8.12418 11.3322 8.12418 11.25C8.12418 11.1678 8.14037 11.0864 8.17182 11.0105C8.20326 10.9346 8.24936 10.8656 8.30747 10.8075L11.6162 7.5H9.99997C9.83421 7.5 9.67524 7.43415 9.55803 7.31694C9.44082 7.19973 9.37497 7.04076 9.37497 6.875ZM5.16622 4.615C5.37717 3.9979 5.77584 3.46222 6.30639 3.08297C6.83694 2.70372 7.47281 2.49988 8.12497 2.5H14.375C15.2038 2.5 15.9986 2.82924 16.5847 3.41529C17.1707 4.00134 17.5 4.7962 17.5 5.625V11.875C17.5 13.2475 16.615 14.4125 15.385 14.8337V15.2887C15.385 15.7075 15.2387 16.2425 14.895 16.6838C14.5337 17.1488 13.96 17.5 13.1737 17.5H5.96122C5.50569 17.5032 5.05408 17.4157 4.63264 17.2428C4.21119 17.0699 3.82831 16.815 3.50626 16.4928C3.18421 16.1707 2.9294 15.7877 2.75665 15.3662C2.58389 14.9447 2.49665 14.493 2.49997 14.0375V6.82875C2.49997 6.1425 2.74622 5.57125 3.18247 5.175C3.60747 4.78875 4.16372 4.61625 4.71122 4.61625H5.16622V4.615ZM4.99997 5.865H4.71247C4.46127 5.85495 4.21532 5.93872 4.02247 6.1C3.87497 6.23375 3.74997 6.455 3.74997 6.8275V14.0387C3.74997 15.28 4.71997 16.2513 5.96247 16.2513H13.1737C13.5475 16.2513 13.7662 16.1 13.9087 15.9163C14.0464 15.7352 14.1249 15.5161 14.1337 15.2887V15H8.12497C7.29617 15 6.50131 14.6708 5.91526 14.0847C5.32921 13.4987 4.99997 12.7038 4.99997 11.875V5.865ZM8.12497 3.75C7.62769 3.75 7.15077 3.94754 6.79914 4.29917C6.44751 4.65081 6.24997 5.12772 6.24997 5.625V11.875C6.24997 12.3723 6.44751 12.8492 6.79914 13.2008C7.15077 13.5525 7.62769 13.75 8.12497 13.75H14.375C14.8723 13.75 15.3492 13.5525 15.7008 13.2008C16.0524 12.8492 16.25 12.3723 16.25 11.875V5.625C16.25 5.12772 16.0524 4.65081 15.7008 4.29917C15.3492 3.94754 14.8723 3.75 14.375 3.75H8.12497Z" fill="white"/>
</svg>
