<svg width="20" height="20" viewBox="0 0 20 20" fill="none" xmlns="http://www.w3.org/2000/svg">
<path d="M15.3834 16.3011C17.2004 16.3011 18.6734 14.8291 18.6734 13.0134C18.6734 11.1976 17.2004 9.72559 15.3834 9.72559C13.5664 9.72559 12.0934 11.1976 12.0934 13.0134C12.0934 14.8291 13.5664 16.3011 15.3834 16.3011Z" stroke="#586888" stroke-width="1.3" stroke-miterlimit="10"/>
<path d="M12.0934 12.808V3.97212C12.0934 3.97212 13.4089 2.53372 14.8256 3.86938L18.2661 11.8833" stroke="#586888" stroke-width="1.3" stroke-miterlimit="10"/>
<path d="M8.04581 6.74634H12.0934" stroke="#586888" stroke-width="1.3" stroke-miterlimit="10"/>
<path d="M4.85961 16.3011C6.67663 16.3011 8.14961 14.8291 8.14961 13.0134C8.14961 11.1976 6.67663 9.72559 4.85961 9.72559C3.04259 9.72559 1.56961 11.1976 1.56961 13.0134C1.56961 14.8291 3.04259 16.3011 4.85961 16.3011Z" stroke="#586888" stroke-width="1.3" stroke-miterlimit="10"/>
<path d="M8.04581 12.808V3.97212C8.04581 3.97212 6.73033 2.53372 5.31366 3.86938L1.87318 11.8833" stroke="#586888" stroke-width="1.3" stroke-miterlimit="10"/>
</svg>
