<svg width="10" height="11" viewBox="0 0 10 11" fill="none" xmlns="http://www.w3.org/2000/svg">
<path d="M4.58216 0C3.37108 0.00135161 2.21002 0.457078 1.35367 1.26721C0.497308 2.07734 0.0155785 3.17573 0.0141498 4.32143C0.0126993 5.2577 0.335979 6.16856 0.934396 6.91429C0.934396 6.91429 1.05898 7.06946 1.07933 7.09186L4.58216 11L8.08665 7.08989C8.10492 7.06907 8.22992 6.91429 8.22992 6.91429L8.23033 6.91311C8.82845 6.1677 9.15158 5.25727 9.15016 4.32143C9.14874 3.17573 8.66701 2.07734 7.81065 1.26721C6.95429 0.457078 5.79323 0.00135161 4.58216 0ZM4.58216 5.89286C4.25362 5.89286 3.93247 5.80069 3.6593 5.62802C3.38614 5.45535 3.17323 5.20993 3.04751 4.92279C2.92178 4.63565 2.88889 4.31969 2.95298 4.01486C3.01707 3.71003 3.17528 3.43003 3.40759 3.21026C3.63989 2.99049 3.93587 2.84083 4.25809 2.78019C4.58031 2.71956 4.9143 2.75068 5.21783 2.86962C5.52136 2.98856 5.78078 3.18997 5.96331 3.44839C6.14583 3.70681 6.24325 4.01063 6.24325 4.32143C6.2427 4.73804 6.06752 5.13743 5.75612 5.43202C5.44472 5.72661 5.02254 5.89234 4.58216 5.89286Z" fill="#586888"/>
</svg>
