<svg width="30" height="31" viewBox="0 0 30 31" fill="none" xmlns="http://www.w3.org/2000/svg">
<g clip-path="url(#clip0_3264_16305)">
<path d="M8.54008 13.1171L8.30008 13.3415C7.89764 13.6704 7.4145 13.8805 6.90319 13.9488C6.39189 14.0172 5.872 13.9412 5.40008 13.7291C5.18933 13.6362 4.99106 13.5162 4.81008 13.3721C4.49083 13.1273 4.2258 12.8165 4.0323 12.4601C3.8388 12.1037 3.72117 11.7096 3.68711 11.3037C3.65304 10.8978 3.7033 10.4891 3.83461 10.1043C3.96591 9.7195 4.1753 9.3673 4.44911 9.07068C4.72292 8.77406 5.05499 8.53969 5.42363 8.38287C5.79228 8.22605 6.1892 8.15031 6.58849 8.1606C6.98777 8.17089 7.38044 8.26698 7.74085 8.44259C8.10126 8.61819 8.4213 8.86937 8.68008 9.17972" fill="#DFEFFF"/>
<path d="M8.54008 13.1171L8.30008 13.3415C7.89764 13.6704 7.4145 13.8805 6.90319 13.9488C6.39189 14.0172 5.872 13.9412 5.40008 13.7291C5.18933 13.6362 4.99106 13.5162 4.81008 13.3721C4.49083 13.1273 4.2258 12.8165 4.0323 12.4601C3.8388 12.1037 3.72117 11.7096 3.68711 11.3037C3.65304 10.8978 3.7033 10.4891 3.83461 10.1043C3.96591 9.7195 4.1753 9.3673 4.44911 9.07068C4.72292 8.77406 5.05499 8.53969 5.42363 8.38287C5.79228 8.22605 6.1892 8.15031 6.58849 8.1606C6.98777 8.17089 7.38044 8.26698 7.74085 8.44259C8.10126 8.61819 8.4213 8.86937 8.68008 9.17972" stroke="#004181" stroke-miterlimit="10" stroke-linecap="round"/>
<path d="M8.29006 13.3517C8.09956 13.5033 7.89129 13.6301 7.67006 13.7291C7.30894 13.8845 6.92193 13.9676 6.53007 13.974C6.1427 13.9651 5.76001 13.8856 5.40007 13.7394C5.19102 13.639 4.9932 13.5158 4.81007 13.3721C3.9566 13.5711 3.19479 14.0601 2.64966 14.7589C2.10453 15.4577 1.80847 16.3247 1.81006 17.2177V19.9107H9.05007V19.5638C9.04338 18.7878 9.21653 18.0211 9.55539 17.3262C9.89426 16.6314 10.3893 16.028 11.0001 15.5652" fill="#DFEFFF"/>
<path d="M8.29006 13.3517C8.09956 13.5033 7.89129 13.6301 7.67006 13.7291C7.30894 13.8845 6.92193 13.9676 6.53007 13.974C6.1427 13.9651 5.76001 13.8856 5.40007 13.7394C5.19102 13.639 4.9932 13.5158 4.81007 13.3721C3.9566 13.5711 3.19479 14.0601 2.64966 14.7589C2.10453 15.4577 1.80847 16.3247 1.81006 17.2177V19.9107H9.05007V19.5638C9.04338 18.7878 9.21653 18.0211 9.55539 17.3262C9.89426 16.6314 10.3893 16.028 11.0001 15.5652" stroke="#004181" stroke-linecap="round" stroke-linejoin="round"/>
<path d="M21.3201 9.17972C21.6975 8.72875 22.2015 8.40676 22.764 8.25725C23.3265 8.10774 23.9204 8.1379 24.4656 8.34366C25.0107 8.54942 25.4809 8.92086 25.8125 9.40784C26.1442 9.89482 26.3213 10.4739 26.3201 11.0668C26.3181 11.5057 26.2202 11.9385 26.0333 12.3338C25.8465 12.7291 25.5755 13.0769 25.2401 13.3517C25.0446 13.5012 24.8333 13.6278 24.6101 13.7291C24.2525 13.8847 23.8687 13.9678 23.4801 13.974C23.0882 13.9676 22.7012 13.8845 22.3401 13.7291C22.1325 13.6361 21.9375 13.5161 21.7601 13.3721C21.6565 13.2956 21.5595 13.2103 21.4701 13.1171" fill="#DFEFFF"/>
<path d="M21.3201 9.17972C21.6975 8.72875 22.2015 8.40676 22.764 8.25725C23.3265 8.10774 23.9204 8.1379 24.4656 8.34366C25.0107 8.54942 25.4809 8.92086 25.8125 9.40784C26.1442 9.89482 26.3213 10.4739 26.3201 11.0668C26.3181 11.5057 26.2202 11.9385 26.0333 12.3338C25.8465 12.7291 25.5755 13.0769 25.2401 13.3517C25.0446 13.5012 24.8333 13.6278 24.6101 13.7291C24.2525 13.8847 23.8687 13.9678 23.4801 13.974C23.0882 13.9676 22.7012 13.8845 22.3401 13.7291C22.1325 13.6361 21.9375 13.5161 21.7601 13.3721C21.6565 13.2956 21.5595 13.2103 21.4701 13.1171" stroke="#004181" stroke-miterlimit="10" stroke-linecap="round"/>
<path d="M21.7501 13.3721C21.9297 13.5157 22.1242 13.6389 22.3301 13.7394C22.6932 13.8866 23.0794 13.9661 23.4701 13.974C23.8588 13.9678 24.2425 13.8847 24.6001 13.7291C24.8233 13.6278 25.0346 13.5012 25.2301 13.3517C26.0739 13.5136 26.8357 13.9713 27.3836 14.6456C27.9314 15.32 28.2309 16.1685 28.2301 17.0443V19.9107H21.0001V19.3394C20.9939 18.6028 20.8189 17.8778 20.489 17.2225C20.1591 16.5671 19.6834 15.9996 19.1001 15.5652" fill="#DFEFFF"/>
<path d="M21.7501 13.3721C21.9297 13.5157 22.1242 13.6389 22.3301 13.7394C22.6932 13.8866 23.0794 13.9661 23.4701 13.974C23.8588 13.9678 24.2425 13.8847 24.6001 13.7291C24.8233 13.6278 25.0346 13.5012 25.2301 13.3517C26.0739 13.5136 26.8357 13.9713 27.3836 14.6456C27.9314 15.32 28.2309 16.1685 28.2301 17.0443V19.9107H21.0001V19.3394C20.9939 18.6028 20.8189 17.8778 20.489 17.2225C20.1591 16.5671 19.6834 15.9996 19.1001 15.5652" stroke="#004181" stroke-linecap="round" stroke-linejoin="round"/>
<path d="M18.5799 11.8216C18.578 12.3728 18.4548 12.9164 18.2194 13.4125C17.984 13.9086 17.6424 14.3445 17.2199 14.688C16.9749 14.8774 16.71 15.0382 16.4299 15.1674C15.9757 15.3694 15.4855 15.4736 14.9899 15.4734C14.5022 15.47 14.0199 15.3695 13.5699 15.1776C13.3078 15.0563 13.0596 14.9057 12.8299 14.7288C12.3929 14.3862 12.0386 13.946 11.7942 13.4421C11.5498 12.9382 11.4218 12.3839 11.4199 11.8216C11.4199 10.8531 11.7971 9.92429 12.4685 9.23945C13.1399 8.55461 14.0504 8.16986 14.9999 8.16986C15.9494 8.16986 16.86 8.55461 17.5314 9.23945C18.2027 9.92429 18.5799 10.8531 18.5799 11.8216V11.8216Z" stroke="#004181" stroke-miterlimit="10"/>
<path d="M21 19.3394V22.9504H9.04999V19.5638C9.04331 18.7878 9.21645 18.0211 9.55532 17.3262C9.89418 16.6313 10.3892 16.028 11 15.5652C11.5463 15.1382 12.1778 14.8387 12.85 14.688C13.0797 14.8649 13.3279 15.0154 13.59 15.1368C14.04 15.3287 14.5223 15.4292 15.01 15.4326C15.5055 15.4328 15.9958 15.3286 16.45 15.1266C16.73 14.9974 16.995 14.8366 17.24 14.6472C17.9214 14.8019 18.5582 15.1162 19.1 15.5652C19.6833 15.9996 20.1589 16.5671 20.4889 17.2225C20.8188 17.8778 20.9938 18.6028 21 19.3394Z" stroke="#004181" stroke-linecap="round" stroke-linejoin="round"/>
</g>
<defs>
<clipPath id="clip0_3264_16305">
<rect width="30" height="30.6015" fill="white" transform="translate(0 0.264465)"/>
</clipPath>
</defs>
</svg>
