<svg width="30" height="31" viewBox="0 0 30 31" fill="none" xmlns="http://www.w3.org/2000/svg">
<g clip-path="url(#clip0_3264_16317)">
<path d="M6.98999 19.0711V16.6128H23.02V19.0711" stroke="#004181" stroke-width="0.75" stroke-linecap="round" stroke-linejoin="round"/>
<path d="M15.04 14.3381L15 18.9487" stroke="#004181" stroke-width="0.75" stroke-linecap="round" stroke-linejoin="round"/>
<path d="M17.8598 5.75944C17.8596 6.18379 17.725 6.60255 17.5431 6.9842C17.3612 7.36584 17.0968 7.70042 16.7698 7.96275C16.2825 8.36235 15.6751 8.57849 15.0498 8.57478C14.6883 8.56648 14.3317 8.48681 13.9998 8.34017C13.7946 8.2529 13.6026 8.13611 13.4298 7.99335C13.0556 7.70324 12.7602 7.32045 12.5717 6.88127C12.3831 6.44208 12.3076 5.96105 12.3524 5.48378C12.3971 5.0065 12.5607 4.54879 12.8274 4.15403C13.0942 3.75928 13.4554 3.44055 13.8767 3.22808C14.2981 3.0156 14.7656 2.91641 15.2351 2.93991C15.7046 2.96341 16.1604 3.10881 16.5593 3.36235C16.9583 3.61588 17.2871 3.96914 17.5147 4.38864C17.7423 4.80814 17.8611 5.27998 17.8598 5.75944Z" fill="#DFEFFF" stroke="#004181" stroke-width="0.75" stroke-miterlimit="10"/>
<path d="M19.87 11.5533V14.3381H10.22V11.7267C10.2212 11.1266 10.3636 10.5355 10.635 10.0031C10.9064 9.47063 11.2991 9.01232 11.78 8.66659C12.2282 8.33537 12.739 8.10265 13.28 7.98315C13.4662 8.1219 13.6676 8.23828 13.88 8.32997C14.6265 8.64229 15.4635 8.64229 16.21 8.32997C16.4351 8.23256 16.6469 8.10569 16.84 7.95255C17.3922 8.05971 17.9146 8.28956 18.37 8.62579C18.8309 8.95625 19.2075 9.39445 19.4685 9.90375C19.7294 10.4131 19.8671 10.9787 19.87 11.5533Z" fill="#DFEFFF" stroke="#004181" stroke-width="0.75" stroke-linecap="round" stroke-linejoin="round"/>
<path d="M9.94992 24.4876V25.4877L7.84992 27.6701H4.84992C4.65101 27.6701 4.46024 27.5895 4.31959 27.4461C4.17894 27.3026 4.09992 27.108 4.09992 26.9051V20.0198C4.09858 19.9189 4.11706 19.8188 4.15427 19.7254C4.19149 19.6319 4.24668 19.5471 4.31659 19.4757C4.38651 19.4044 4.46972 19.3481 4.56133 19.3102C4.65293 19.2722 4.75106 19.2534 4.84992 19.2547H9.94992V24.4876Z" stroke="#004181" stroke-width="0.75" stroke-linecap="round" stroke-linejoin="round"/>
<path d="M9.88989 24.61H7.88989C7.69098 24.61 7.50021 24.6906 7.35956 24.8341C7.21891 24.9775 7.13989 25.1721 7.13989 25.375V27.5477" fill="#DFEFFF"/>
<path d="M9.88989 24.61H7.88989C7.69098 24.61 7.50021 24.6906 7.35956 24.8341C7.21891 24.9775 7.13989 25.1721 7.13989 25.375V27.5477" stroke="#004181" stroke-width="0.75" stroke-linecap="round" stroke-linejoin="round"/>
<path d="M17.9801 24.4876V25.5076L15.8701 27.6905H12.8701C12.672 27.6879 12.4827 27.6065 12.3427 27.4636C12.2026 27.3206 12.1227 27.1276 12.1201 26.9255V20.0198C12.1201 19.8169 12.1991 19.6223 12.3398 19.4788C12.4804 19.3353 12.6712 19.2547 12.8701 19.2547H17.9801V24.4876Z" stroke="#004181" stroke-width="0.75" stroke-linecap="round" stroke-linejoin="round"/>
<path d="M17.9099 24.61H15.9099C15.8106 24.6086 15.712 24.6274 15.6198 24.6653C15.5277 24.7031 15.4438 24.7593 15.3731 24.8304C15.3024 24.9016 15.2462 24.9864 15.2079 25.0799C15.1696 25.1734 15.1499 25.2737 15.1499 25.375V27.5477" fill="#DFEFFF"/>
<path d="M17.9099 24.61H15.9099C15.8106 24.6086 15.712 24.6274 15.6198 24.6653C15.5277 24.7031 15.4438 24.7593 15.3731 24.8304C15.3024 24.9016 15.2462 24.9864 15.2079 25.0799C15.1696 25.1734 15.1499 25.2737 15.1499 25.375V27.5477" stroke="#004181" stroke-width="0.75" stroke-linecap="round" stroke-linejoin="round"/>
<path d="M25.9799 24.4876V25.5076L23.8799 27.6905H20.8799C20.6818 27.6879 20.4925 27.6065 20.3524 27.4636C20.2123 27.3206 20.1325 27.1276 20.1299 26.9255V20.0198C20.1299 19.8169 20.2089 19.6223 20.3496 19.4788C20.4902 19.3353 20.681 19.2547 20.8799 19.2547H25.9799V24.4876Z" stroke="#004181" stroke-width="0.75" stroke-linecap="round" stroke-linejoin="round"/>
<path d="M25.9199 24.61H23.9199C23.721 24.61 23.5302 24.6906 23.3896 24.8341C23.2489 24.9775 23.1699 25.1721 23.1699 25.375V27.5477" fill="#DFEFFF"/>
<path d="M25.9199 24.61H23.9199C23.721 24.61 23.5302 24.6906 23.3896 24.8341C23.2489 24.9775 23.1699 25.1721 23.1699 25.375V27.5477" stroke="#004181" stroke-width="0.75" stroke-linecap="round" stroke-linejoin="round"/>
</g>
<defs>
<clipPath id="clip0_3264_16317">
<rect width="30" height="30.6015" fill="white" transform="translate(0 0.00634766)"/>
</clipPath>
</defs>
</svg>
