<svg width="30" height="32" viewBox="0 0 30 32" fill="none" xmlns="http://www.w3.org/2000/svg">
<g clip-path="url(#clip0_3264_16332)">
<path d="M28.39 16.1493C28.3675 14.1941 27.9215 12.2682 27.0838 10.5095C26.2462 8.75078 25.0376 7.2028 23.5446 5.97641C22.0517 4.75002 20.3113 3.87559 18.4482 3.41574C16.5851 2.95589 14.6454 2.92201 12.7679 3.31652C10.8905 3.71102 9.12182 4.52416 7.58858 5.69768C6.05535 6.87121 4.7955 8.37607 3.89928 10.1045C3.00305 11.8329 2.49264 13.7421 2.40459 15.6954C2.31654 17.6486 2.65304 19.5975 3.38998 21.4025L4.44998 19.5257L4.99998 18.628L6.62998 15.7515L7.21998 14.7314C7.28851 14.6107 7.38694 14.5105 7.50541 14.4408C7.62388 14.3711 7.75823 14.3345 7.89498 14.3345C8.03173 14.3345 8.16608 14.3711 8.28455 14.4408C8.40302 14.5105 8.50145 14.6107 8.56998 14.7314L8.99998 15.5373L10.73 18.5974H25.57C25.6362 18.5867 25.7037 18.5867 25.77 18.5974C25.9294 18.6387 26.0704 18.7338 26.1702 18.8671C26.27 19.0004 26.3228 19.1641 26.32 19.3318V23.2896C27.6644 21.16 28.3827 18.6822 28.39 16.1493ZM15.17 17.3427C14.9458 17.3439 14.7252 17.2863 14.5291 17.1756C14.333 17.0649 14.168 16.9047 14.05 16.7103L12.5 14.3438L10.71 11.5999L9.34998 9.55975L9.50998 9.41694L11.37 11.0184L13.87 13.1707L15.94 14.9456C16.159 15.1158 16.3204 15.3516 16.4015 15.6201C16.4826 15.8885 16.4794 16.176 16.3924 16.4425C16.3053 16.709 16.1387 16.941 15.9159 17.1061C15.6931 17.2712 15.4453 17.3406 15.17 17.3427ZM14 24.4117C14.0556 24.5332 14.0802 24.6671 14.0715 24.8009C14.0628 24.9347 14.0211 25.0641 13.9503 25.177C13.8795 25.29 13.7818 25.3829 13.6664 25.447C13.5509 25.5112 13.4214 25.5445 13.29 25.544H6.12998C7.42631 26.8752 8.98486 27.9107 10.7026 28.582C12.4204 29.2533 14.2583 29.545 16.0948 29.438C17.9313 29.331 19.7246 28.8276 21.3563 27.9612C22.9879 27.0947 24.4207 25.8849 25.56 24.4117H14Z" stroke="#004181" stroke-width="0.75" stroke-miterlimit="10" stroke-linecap="round"/>
<path d="M13.8701 13.1401C14.2899 12.9417 14.7475 12.8407 15.2101 12.8443C15.8963 12.841 16.5657 13.0606 17.1213 13.4715C17.6769 13.8823 18.0898 14.4629 18.3001 15.1292" fill="#DFEFFF"/>
<path d="M13.8701 13.1401C14.2899 12.9417 14.7475 12.8407 15.2101 12.8443C15.8963 12.841 16.5657 13.0606 17.1213 13.4715C17.6769 13.8823 18.0898 14.4629 18.3001 15.1292" stroke="#004181" stroke-width="0.75" stroke-linecap="round" stroke-linejoin="round"/>
<path d="M18.2601 17.2713C18.0768 17.7823 17.7708 18.2382 17.3701 18.5974" stroke="#004181" stroke-width="0.75" stroke-linecap="round" stroke-linejoin="round"/>
<path d="M13.0001 18.5974C12.6752 18.2831 12.4184 17.9029 12.2462 17.4812C12.074 17.0596 11.9901 16.6059 12.0001 16.1493C11.9977 15.5072 12.1821 14.8789 12.5301 14.3438" fill="#DFEFFF"/>
<path d="M13.0001 18.5974C12.6752 18.2831 12.4184 17.9029 12.2462 17.4812C12.074 17.0596 11.9901 16.6059 12.0001 16.1493C11.9977 15.5072 12.1821 14.8789 12.5301 14.3438" stroke="#004181" stroke-width="0.75" stroke-linecap="round" stroke-linejoin="round"/>
<path d="M9.51001 9.38634C10.7575 8.26927 12.294 7.54241 13.9358 7.29269C15.5776 7.04298 17.2552 7.28099 18.7679 7.97825C20.2806 8.67551 21.5643 9.80251 22.4656 11.2244C23.3669 12.6464 23.8475 14.303 23.85 15.9963H21.46C21.4599 14.8027 21.1307 13.6332 20.5102 12.6213C19.8896 11.6094 19.0026 10.7958 17.9504 10.2736C16.8982 9.75129 15.7233 9.54132 14.5597 9.66761C13.3962 9.79391 12.2909 10.2514 11.37 10.9878" fill="#DFEFFF"/>
<path d="M9.51001 9.38634C10.7575 8.26927 12.294 7.54241 13.9358 7.29269C15.5776 7.04298 17.2552 7.28099 18.7679 7.97825C20.2806 8.67551 21.5643 9.80251 22.4656 11.2244C23.3669 12.6464 23.8475 14.303 23.85 15.9963H21.46C21.4599 14.8027 21.1307 13.6332 20.5102 12.6213C19.8896 11.6094 19.0026 10.7958 17.9504 10.2736C16.8982 9.75129 15.7233 9.54132 14.5597 9.66761C13.3962 9.79391 12.2909 10.2514 11.37 10.9878" stroke="#004181" stroke-width="0.75" stroke-miterlimit="10" stroke-linecap="round"/>
<path d="M6.58008 15.7413C6.60925 14.5691 6.86955 13.415 7.34546 12.3477C7.82137 11.2804 8.50313 10.3219 9.35008 9.52915" fill="#DFEFFF"/>
<path d="M6.58008 15.7413C6.60925 14.5691 6.86955 13.415 7.34546 12.3477C7.82137 11.2804 8.50313 10.3219 9.35008 9.52915" stroke="#004181" stroke-width="0.75" stroke-miterlimit="10" stroke-linecap="round"/>
<path d="M10.71 11.5999C9.70384 12.6664 9.09837 14.0605 9 15.5373L10.71 11.5999Z" fill="#ECF5FE"/>
<path d="M10.71 11.5999C9.70384 12.6664 9.09837 14.0605 9 15.5373" stroke="#004181" stroke-width="0.75" stroke-miterlimit="10" stroke-linecap="round"/>
<path d="M22.17 10.7736L20.29 12.2935" stroke="#004181" stroke-width="0.75" stroke-miterlimit="10" stroke-linecap="round"/>
<path d="M15.22 7.30544V9.53935" stroke="#004181" stroke-width="0.75" stroke-miterlimit="10" stroke-linecap="round"/>
<path d="M13.3101 25.544H2.38007C2.23616 25.5514 2.09311 25.5174 1.96717 25.446C1.84123 25.3746 1.73746 25.2686 1.66766 25.14C1.59786 25.0114 1.56484 24.8654 1.57233 24.7187C1.57983 24.5719 1.62755 24.4302 1.71007 24.3097L3.38007 21.3617L4.44007 19.4849L5.00007 18.628L6.63007 15.7515L7.22007 14.7314C7.2886 14.6107 7.38703 14.5105 7.5055 14.4408C7.62397 14.3711 7.75832 14.3345 7.89507 14.3345C8.03182 14.3345 8.16616 14.3711 8.28464 14.4408C8.40311 14.5105 8.50154 14.6107 8.57007 14.7314L9.00007 15.5373L10.7301 18.5974L11.2601 19.5257L14.0001 24.3097C14.0642 24.4312 14.0963 24.6288 14.0932 24.7667C14.0901 24.9046 14.0519 25.0394 13.9823 25.1577C13.9127 25.276 13.8141 25.3738 13.6963 25.4415C13.5784 25.5093 13.4453 25.5445 13.3101 25.544Z" fill="#DFEFFF" stroke="#004181" stroke-width="0.75" stroke-miterlimit="10" stroke-linecap="round"/>
<path d="M7.8501 17.5774V21.5046" stroke="#004181" stroke-width="0.8" stroke-linecap="round" stroke-linejoin="round"/>
<path d="M7.8501 22.9326V23.6467" stroke="#004181" stroke-width="0.8" stroke-linecap="round" stroke-linejoin="round"/>
<path d="M26.32 19.3624V23.6569C26.32 23.7569 26.3005 23.8558 26.2627 23.9481C26.2249 24.0404 26.1695 24.124 26.0997 24.1943C26.0299 24.2645 25.9472 24.3199 25.8562 24.3572C25.7653 24.3945 25.668 24.4131 25.57 24.4117H14C14 24.4117 14 24.4117 14 24.3505L11.27 19.5257L10.74 18.5974H25.57C25.6362 18.5867 25.7037 18.5867 25.77 18.5974C25.9346 18.6398 26.0795 18.7394 26.1799 18.879C26.2803 19.0186 26.3298 19.1896 26.32 19.3624Z" fill="#DFEFFF" stroke="#004181" stroke-width="0.75" stroke-linecap="round" stroke-linejoin="round"/>
<path d="M13.74 20.5967H23.86" stroke="#004181" stroke-width="0.8" stroke-linecap="round" stroke-linejoin="round"/>
<path d="M14.79 22.494H23.86" stroke="#004181" stroke-width="0.8" stroke-linecap="round" stroke-linejoin="round"/>
<path d="M16.4899 15.9963C16.4902 16.2889 16.3971 16.5736 16.2246 16.8074C16.0521 17.0412 15.8097 17.2113 15.5339 17.292C15.2582 17.3727 14.9642 17.3596 14.6964 17.2546C14.4287 17.1497 14.2017 16.9586 14.0499 16.7103L12.4999 14.3438L10.7099 11.5999L9.34992 9.55975L8.91992 8.90692L9.50992 9.41695L11.3699 11.0184L13.8699 13.1707L15.9399 14.9456C16.105 15.0654 16.2406 15.2227 16.336 15.405C16.4315 15.5873 16.4841 15.7897 16.4899 15.9963Z" fill="#DFEFFF" stroke="#004181" stroke-width="0.75" stroke-linecap="round" stroke-linejoin="round"/>
</g>
<defs>
<clipPath id="clip0_3264_16332">
<rect width="30" height="30.6015" fill="white" transform="translate(0 0.848511)"/>
</clipPath>
</defs>
</svg>
