<svg width="30" height="32" viewBox="0 0 30 32" fill="none" xmlns="http://www.w3.org/2000/svg">
<g clip-path="url(#clip0_3264_16298)">
<path d="M25.7801 24.8202V22.78C25.7806 21.8941 25.4919 21.0332 24.9595 20.3332C24.4272 19.6331 23.6815 19.1338 22.8401 18.9141" stroke="#004181" stroke-width="1.3" stroke-linecap="round" stroke-linejoin="round"/>
<path d="M19.9 24.8202V22.78C19.8869 21.731 19.4712 20.729 18.7421 19.989C18.0129 19.2491 17.0285 18.8302 16 18.8222H8.13998C7.62483 18.8209 7.1145 18.9234 6.63831 19.1239C6.16211 19.3244 5.72945 19.6188 5.36518 19.9904C5.00091 20.362 4.71222 20.8033 4.51569 21.2891C4.31916 21.7748 4.21866 22.2954 4.21998 22.8209V24.861" fill="#DFEFFF"/>
<path d="M19.9 24.8202V22.78C19.8869 21.731 19.4712 20.729 18.7421 19.989C18.0129 19.2491 17.0285 18.8302 16 18.8222H8.13998C7.62483 18.8209 7.1145 18.9234 6.63831 19.1239C6.16211 19.3244 5.72945 19.6188 5.36518 19.9904C5.00091 20.362 4.71222 20.8033 4.51569 21.2891C4.31916 21.7748 4.21866 22.2954 4.21998 22.8209V24.861" stroke="#004181" stroke-width="1.3" stroke-linecap="round" stroke-linejoin="round"/>
<path d="M18.9199 6.94885C19.5503 7.11424 20.1304 7.43673 20.6084 7.88736C21.0864 8.33799 21.4471 8.90265 21.6583 9.53064C21.8695 10.1586 21.9244 10.8303 21.8182 11.4853C21.712 12.1403 21.448 12.7582 21.0499 13.2834C20.5163 13.9867 19.7659 14.4862 18.9199 14.7012" stroke="#004181" stroke-width="1.3" stroke-linecap="round" stroke-linejoin="round"/>
<path d="M12.0599 14.8032C12.8361 14.8032 13.5948 14.5682 14.2398 14.1279C14.8849 13.6876 15.3873 13.0619 15.6834 12.3301C15.9795 11.5983 16.056 10.7932 15.9031 10.017C15.7502 9.24082 15.3749 8.52838 14.8247 7.96998C14.2744 7.41159 13.5741 7.03238 12.8124 6.8804C12.0506 6.72843 11.2618 6.81053 10.5459 7.1163C9.82999 7.42208 9.21916 7.93776 8.79084 8.59801C8.36252 9.25825 8.13598 10.0333 8.13994 10.825C8.14784 11.8812 8.56401 12.8914 9.29802 13.6363C10.032 14.3812 11.0246 14.8006 12.0599 14.8032Z" fill="#DFEFFF" stroke="#004181" stroke-width="1.3" stroke-linecap="round" stroke-linejoin="round"/>
</g>
<defs>
<clipPath id="clip0_3264_16298">
<rect width="30" height="30.6015" fill="white" transform="translate(0 0.522522)"/>
</clipPath>
</defs>
</svg>
