<svg width="30" height="31" viewBox="0 0 30 31" fill="none" xmlns="http://www.w3.org/2000/svg">
<path d="M7.82011 4.14941H4.79011C4.55262 4.14941 4.36011 4.34579 4.36011 4.58804V7.67879C4.36011 7.92104 4.55262 8.11741 4.79011 8.11741H7.82011C8.05759 8.11741 8.25011 7.92104 8.25011 7.67879V4.58804C8.25011 4.34579 8.05759 4.14941 7.82011 4.14941Z" fill="#DFEFFF" stroke="#004181" stroke-width="0.75"/>
<path d="M27.57 5.51624H22.98C22.7426 5.51624 22.55 5.71261 22.55 5.95486V10.6369C22.55 10.8791 22.7426 11.0755 22.98 11.0755H27.57C27.8075 11.0755 28 10.8791 28 10.6369V5.95486C28 5.71261 27.8075 5.51624 27.57 5.51624Z" fill="#DFEFFF" stroke="#004181" stroke-width="0.75"/>
<path d="M5.38 18.777H2.43C2.19252 18.777 2 18.9734 2 19.2156V22.3472C2 22.5894 2.19252 22.7858 2.43 22.7858H5.38C5.61748 22.7858 5.81 22.5894 5.81 22.3472V19.2156C5.81 18.9734 5.61748 18.777 5.38 18.777Z" fill="#DFEFFF" stroke="#004181" stroke-width="0.75"/>
<path d="M15.5301 4.078H13.7801C13.5426 4.078 13.3501 4.27438 13.3501 4.51663V6.30172C13.3501 6.54396 13.5426 6.74034 13.7801 6.74034H15.5301C15.7676 6.74034 15.9601 6.54396 15.9601 6.30172V4.51663C15.9601 4.27438 15.7676 4.078 15.5301 4.078Z" stroke="#004181" stroke-width="0.75"/>
<path d="M5.86994 11.9222H4.11994C3.88246 11.9222 3.68994 12.1186 3.68994 12.3609V14.146C3.68994 14.3882 3.88246 14.5846 4.11994 14.5846H5.86994C6.10742 14.5846 6.29994 14.3882 6.29994 14.146V12.3609C6.29994 12.1186 6.10742 11.9222 5.86994 11.9222Z" stroke="#004181" stroke-width="0.75"/>
<path d="M25.5401 14.3907H23.5101C23.2726 14.3907 23.0801 14.5871 23.0801 14.8294V17.0123C23.0801 17.2545 23.2726 17.4509 23.5101 17.4509H25.5401C25.7776 17.4509 25.9701 17.2545 25.9701 17.0123V14.8294C25.9701 14.5871 25.7776 14.3907 25.5401 14.3907Z" stroke="#004181" stroke-width="0.75"/>
<path d="M7.8999 7.8114L10.1599 10.0453" stroke="#004181" stroke-width="0.75"/>
<path d="M14.3899 6.55676V8.56626" stroke="#004181" stroke-width="0.75"/>
<path d="M18.6899 11.5142L22.7399 8.93347" stroke="#004181" stroke-width="0.75"/>
<path d="M19.1799 14.3907L22.9199 15.4006" stroke="#004181" stroke-width="0.75"/>
<path d="M9.27993 16.6553L5.67993 18.9708" stroke="#004181" stroke-width="0.75"/>
<path d="M8.75005 12.9219H6.30005" stroke="#004181" stroke-width="0.75"/>
<path d="M8.6601 14.3907C8.64976 14.1834 8.64976 13.9758 8.6601 13.7685C8.65937 12.7969 8.92127 11.8439 9.41702 11.0143C9.91276 10.1847 10.6232 9.51057 11.4701 9.06604" stroke="#004181" stroke-width="0.75" stroke-linecap="round" stroke-linejoin="round"/>
<path d="M11.3401 18.42C10.355 17.8753 9.56919 17.02 9.1001 15.9821" stroke="#004181" stroke-width="0.75" stroke-linecap="round" stroke-linejoin="round"/>
<path d="M17.25 9.80054C18.0797 10.5448 18.6544 11.5402 18.8901 12.6413C19.1257 13.7424 19.0101 14.8916 18.56 15.9208" stroke="#004181" stroke-width="0.75" stroke-linecap="round" stroke-linejoin="round"/>
<path d="M13 8.53565C14.1382 8.35762 15.3022 8.56925 16.31 9.13748" stroke="#004181" stroke-width="0.75" stroke-linecap="round" stroke-linejoin="round"/>
<path d="M10.7401 14.4622C10.7299 14.3059 10.7299 14.1492 10.7401 13.9929C10.7403 13.1865 11.027 12.4074 11.547 11.8C12.067 11.1925 12.7851 10.7978 13.5684 10.6889C14.3518 10.58 15.1473 10.7642 15.8077 11.2075C16.4681 11.6509 16.9487 12.3232 17.1606 13.1002C17.3724 13.8771 17.3011 14.7061 16.9599 15.4335C16.6187 16.161 16.0306 16.7377 15.3046 17.057C14.5786 17.3762 13.7638 17.4164 13.0111 17.17C12.2583 16.9236 11.6185 16.4074 11.2101 15.7168" stroke="#004181" stroke-width="0.75" stroke-linecap="round" stroke-linejoin="round"/>
<path d="M14.0401 22.6837L9.81006 20.5518L19.5001 17.2061L17.8101 22.1431L16.1001 26.8863L14.0401 22.6837L19.5001 17.2061L14.0401 22.6837Z" fill="#DFEFFF"/>
<path d="M14.0401 22.6837L9.81006 20.5518L19.5001 17.2061M14.0401 22.6837L16.1001 26.8863L17.8101 22.1431L19.5001 17.2061M14.0401 22.6837L19.5001 17.2061" stroke="#004181" stroke-width="0.8" stroke-linecap="round" stroke-linejoin="round"/>
</svg>
